<svg xmlns="http://www.w3.org/2000/svg" xmlns:xlink="http://www.w3.org/1999/xlink" width="300" zoomAndPan="magnify" viewBox="0 0 224.87999 187.499995" height="250" preserveAspectRatio="xMidYMid meet" version="1.0"><defs><clipPath id="cdabb8d499"><path d="M 73 9 L 150 9 L 150 175 L 73 175 Z M 73 9 " clip-rule="nonzero"/></clipPath><clipPath id="61c9c2c1b5"><path d="M 65.675781 173.160156 L 78.484375 5.863281 L 154.601562 11.691406 L 141.796875 178.988281 Z M 65.675781 173.160156 " clip-rule="nonzero"/></clipPath><clipPath id="b76bf90525"><path d="M 65.675781 173.160156 L 78.484375 5.863281 L 154.601562 11.691406 L 141.796875 178.988281 Z M 65.675781 173.160156 " clip-rule="nonzero"/></clipPath><clipPath id="25b2f4f8ec"><path d="M 77 5 L 154 5 L 154 171 L 77 171 Z M 77 5 " clip-rule="nonzero"/></clipPath><clipPath id="886fe320b5"><path d="M 70.066406 169.21875 L 82.875 1.917969 L 158.996094 7.746094 L 146.1875 175.042969 Z M 70.066406 169.21875 " clip-rule="nonzero"/></clipPath><clipPath id="4aff95c070"><path d="M 70.066406 169.21875 L 82.875 1.917969 L 158.996094 7.746094 L 146.1875 175.042969 Z M 70.066406 169.21875 " clip-rule="nonzero"/></clipPath></defs><g clip-path="url(#cdabb8d499)"><g clip-path="url(#61c9c2c1b5)"><g clip-path="url(#b76bf90525)"><path fill="#04080b" d="M 108.839844 9.34375 C 106.695312 9.636719 104.429688 10.921875 102.746094 10.601562 C 96.644531 9.414062 94.5 12.992188 92.605469 17.535156 C 84.582031 36.667969 78.042969 56.265625 73.976562 76.644531 C 72.519531 83.933594 74.359375 85.898438 81.707031 84.828125 C 82.617188 84.691406 83.507812 84.417969 84.417969 84.238281 C 87.484375 83.664062 89.035156 81.527344 88.734375 78.71875 C 88.425781 75.96875 89.257812 73.585938 89.945312 71.148438 C 91.691406 64.902344 93.636719 58.726562 95.511719 52.519531 C 95.863281 52.355469 96.21875 52.351562 96.574219 52.511719 C 96.640625 59.371094 96.925781 66.230469 96.710938 73.066406 C 96.148438 90.601562 99.023438 108.09375 96.851562 125.714844 C 95.828125 134.09375 96.5625 142.742188 97.121094 151.230469 C 97.570312 157.910156 96.558594 164.566406 97.449219 171.207031 C 97.898438 174.589844 98.703125 175.269531 101.5625 173.511719 C 107.28125 170.03125 112.984375 166.371094 111.859375 158.164062 C 111.660156 156.71875 111.9375 155.207031 111.890625 153.714844 C 111.554688 139.824219 111.835938 125.933594 112.015625 112.050781 C 112.203125 97.050781 112.335938 82.042969 112.453125 67.035156 C 112.5 62.027344 112.410156 57.027344 112.386719 51.527344 C 114.71875 53.238281 115.285156 55.269531 116.273438 56.984375 C 119.617188 62.78125 123.726562 68.015625 127.660156 73.402344 C 133.664062 81.625 142.707031 78.988281 148.386719 75.636719 C 149.449219 75.011719 150.09375 74.144531 148.789062 73.058594 C 144.855469 69.765625 142.734375 65.152344 140.203125 60.878906 C 132.917969 48.617188 126.539062 35.871094 120.164062 23.121094 C 118.5 19.8125 116.867188 16.488281 115.265625 13.167969 C 113.96875 10.460938 112.457031 8.839844 108.839844 9.34375 Z M 95.949219 50.285156 C 95.910156 50.191406 95.902344 50.101562 95.835938 50.011719 C 95.90625 50.074219 95.945312 50.152344 95.984375 50.226562 C 95.980469 50.242188 95.964844 50.253906 95.949219 50.285156 Z M 95.949219 50.285156 " fill-opacity="1" fill-rule="nonzero"/></g></g></g><g clip-path="url(#25b2f4f8ec)"><g clip-path="url(#886fe320b5)"><g clip-path="url(#4aff95c070)"><path fill="#39ff14" d="M 113.230469 5.402344 C 111.085938 5.695312 108.820312 6.980469 107.136719 6.660156 C 101.039062 5.46875 98.890625 9.046875 96.996094 13.589844 C 88.972656 32.722656 82.433594 52.324219 78.371094 72.703125 C 76.914062 79.988281 78.75 81.957031 86.097656 80.882812 C 87.007812 80.746094 87.898438 80.476562 88.8125 80.292969 C 91.875 79.71875 93.425781 77.582031 93.125 74.773438 C 92.820312 72.023438 93.648438 69.640625 94.335938 67.203125 C 96.082031 60.957031 98.027344 54.785156 99.902344 48.574219 C 100.253906 48.410156 100.609375 48.410156 100.964844 48.570312 C 101.03125 55.425781 101.316406 62.285156 101.101562 69.121094 C 100.539062 86.660156 103.414062 104.152344 101.242188 121.769531 C 100.21875 130.152344 100.957031 138.800781 101.515625 147.285156 C 101.960938 153.964844 100.949219 160.625 101.839844 167.265625 C 102.289062 170.644531 103.09375 171.324219 105.953125 169.570312 C 111.671875 166.085938 117.375 162.425781 116.25 154.21875 C 116.050781 152.777344 116.328125 151.265625 116.28125 149.773438 C 115.945312 135.878906 116.226562 121.988281 116.40625 108.105469 C 116.597656 93.105469 116.726562 78.097656 116.84375 63.089844 C 116.890625 58.085938 116.800781 53.082031 116.78125 47.582031 C 119.109375 49.292969 119.675781 51.328125 120.664062 53.039062 C 124.007812 58.835938 128.117188 64.070312 132.050781 69.457031 C 138.054688 77.683594 147.097656 75.042969 152.777344 71.691406 C 153.84375 71.066406 154.484375 70.203125 153.179688 69.113281 C 149.246094 65.820312 147.125 61.210938 144.59375 56.933594 C 137.308594 44.675781 130.929688 31.925781 124.554688 19.175781 C 122.890625 15.867188 121.257812 12.542969 119.65625 9.222656 C 118.359375 6.515625 116.847656 4.898438 113.230469 5.402344 Z M 100.339844 46.339844 C 100.304688 46.25 100.296875 46.160156 100.230469 46.066406 C 100.296875 46.128906 100.335938 46.207031 100.375 46.285156 C 100.371094 46.296875 100.355469 46.3125 100.339844 46.339844 Z M 100.339844 46.339844 " fill-opacity="1" fill-rule="nonzero"/></g></g></g></svg>