<svg xmlns="http://www.w3.org/2000/svg" xmlns:xlink="http://www.w3.org/1999/xlink" width="250" zoomAndPan="magnify" viewBox="0 0 187.5 187.499992" height="250" preserveAspectRatio="xMidYMid meet" version="1.0"><defs><g/></defs><g fill="#04080b" fill-opacity="1"><g transform="translate(101.723859, 114.681674)"><g><path d="M 31.101562 -29.359375 C 30.933594 -31.625 30.703125 -33.976562 30.238281 -36.273438 C 29.691406 -38.5 28.839844 -40.683594 27.984375 -42.789062 C 27.671875 -43.496094 26.941406 -43.714844 26.324219 -43.542969 C 25.894531 -44.5625 25.265625 -45.894531 24.351562 -46.582031 C 23.507812 -47.183594 22.238281 -47.300781 21.175781 -47.175781 C 20.214844 -47.339844 19.21875 -47.128906 18.214844 -46.847656 C 15.785156 -46.542969 13.785156 -44.402344 12.265625 -41.761719 C 12.117188 -41.773438 11.898438 -41.871094 11.667969 -41.816406 C 12.042969 -42.609375 12.414062 -43.398438 12.863281 -44.183594 C 13.230469 -44.902344 13.746094 -45.605469 14.261719 -46.308594 C 14.347656 -46.453125 14.207031 -46.539062 14.117188 -46.398438 C 12.703125 -44.875 11.570312 -43.175781 10.644531 -41.308594 C 10.5625 -41.242188 10.558594 -41.167969 10.484375 -41.175781 C 4.722656 -33.292969 2.476562 -23.585938 3.085938 -13.914062 C 3.425781 -9.449219 4.503906 -4.84375 7.730469 -1.539062 C 9.589844 0.285156 12.261719 1.429688 14.761719 1.210938 C 15.574219 1.359375 16.394531 1.4375 17.21875 1.4375 C 19.332031 1.332031 21.136719 0.523438 22.679688 -0.761719 C 23.804688 -1.5625 24.796875 -2.519531 25.71875 -3.5625 C 28.5 -6.835938 29.589844 -11.320312 30.339844 -15.378906 C 31.292969 -20.023438 31.421875 -24.671875 31.101562 -29.359375 Z M 19.792969 -8.542969 C 19.488281 -7.667969 19.039062 -6.882812 18.515625 -6.105469 C 17.992188 -5.328125 17.261719 -4.71875 16.339844 -4.503906 C 13.046875 -3.828125 10.722656 -7.125 9.757812 -9.691406 C 10.460938 -9.175781 11.410156 -8.863281 12.324219 -9.003906 C 12.628906 -9.050781 12.941406 -9.171875 13.175781 -9.300781 C 12.507812 -14.246094 12.378906 -19.367188 13.066406 -24.410156 C 13.375 -26.109375 13.683594 -27.808594 14.136719 -29.496094 C 14.21875 -29.5625 14.226562 -29.636719 14.3125 -29.777344 C 15.191406 -32.777344 16.441406 -35.742188 18.109375 -38.367188 C 18.457031 -38.863281 18.808594 -39.429688 19.285156 -39.6875 C 14.214844 -31.140625 13.054688 -20.203125 14.25 -10.328125 C 14.683594 -10.964844 14.824219 -11.703125 14.753906 -12.535156 C 14.367188 -18.128906 14.820312 -23.871094 16 -29.324219 C 16.632812 -32.117188 17.558594 -34.8125 18.625 -37.417969 C 18.917969 -38.144531 19.304688 -39.085938 19.828125 -39.863281 L 20.199219 -39.828125 C 20.273438 -39.820312 20.414062 -39.734375 20.484375 -39.652344 C 20.734375 -39.101562 20.902344 -38.484375 21.078125 -37.945312 C 21.480469 -36.628906 21.804688 -35.246094 22.128906 -33.867188 C 22.253906 -32.800781 22.300781 -31.671875 22.421875 -30.535156 C 22.679688 -26.828125 22.554688 -23.007812 22.507812 -19.257812 C 22.171875 -15.609375 21.382812 -11.925781 19.792969 -8.542969 Z M 19.792969 -8.542969 "/></g></g></g><g fill="#39ff14" fill-opacity="1"><g transform="translate(103.698636, 115.501835)"><g><path d="M 31.101562 -29.359375 C 30.933594 -31.625 30.703125 -33.976562 30.238281 -36.273438 C 29.691406 -38.5 28.839844 -40.683594 27.984375 -42.789062 C 27.671875 -43.496094 26.941406 -43.714844 26.324219 -43.542969 C 25.894531 -44.5625 25.265625 -45.894531 24.351562 -46.582031 C 23.507812 -47.183594 22.238281 -47.300781 21.175781 -47.175781 C 20.214844 -47.339844 19.21875 -47.128906 18.214844 -46.847656 C 15.785156 -46.542969 13.785156 -44.402344 12.265625 -41.761719 C 12.117188 -41.773438 11.898438 -41.871094 11.667969 -41.816406 C 12.042969 -42.609375 12.414062 -43.398438 12.863281 -44.183594 C 13.230469 -44.902344 13.746094 -45.605469 14.261719 -46.308594 C 14.347656 -46.453125 14.207031 -46.539062 14.117188 -46.398438 C 12.703125 -44.875 11.570312 -43.175781 10.644531 -41.308594 C 10.5625 -41.242188 10.558594 -41.167969 10.484375 -41.175781 C 4.722656 -33.292969 2.476562 -23.585938 3.085938 -13.914062 C 3.425781 -9.449219 4.503906 -4.84375 7.730469 -1.539062 C 9.589844 0.285156 12.261719 1.429688 14.761719 1.210938 C 15.574219 1.359375 16.394531 1.4375 17.21875 1.4375 C 19.332031 1.332031 21.136719 0.523438 22.679688 -0.761719 C 23.804688 -1.5625 24.796875 -2.519531 25.71875 -3.5625 C 28.5 -6.835938 29.589844 -11.320312 30.339844 -15.378906 C 31.292969 -20.023438 31.421875 -24.671875 31.101562 -29.359375 Z M 19.792969 -8.542969 C 19.488281 -7.667969 19.039062 -6.882812 18.515625 -6.105469 C 17.992188 -5.328125 17.261719 -4.71875 16.339844 -4.503906 C 13.046875 -3.828125 10.722656 -7.125 9.757812 -9.691406 C 10.460938 -9.175781 11.410156 -8.863281 12.324219 -9.003906 C 12.628906 -9.050781 12.941406 -9.171875 13.175781 -9.300781 C 12.507812 -14.246094 12.378906 -19.367188 13.066406 -24.410156 C 13.375 -26.109375 13.683594 -27.808594 14.136719 -29.496094 C 14.21875 -29.5625 14.226562 -29.636719 14.3125 -29.777344 C 15.191406 -32.777344 16.441406 -35.742188 18.109375 -38.367188 C 18.457031 -38.863281 18.808594 -39.429688 19.285156 -39.6875 C 14.214844 -31.140625 13.054688 -20.203125 14.25 -10.328125 C 14.683594 -10.964844 14.824219 -11.703125 14.753906 -12.535156 C 14.367188 -18.128906 14.820312 -23.871094 16 -29.324219 C 16.632812 -32.117188 17.558594 -34.8125 18.625 -37.417969 C 18.917969 -38.144531 19.304688 -39.085938 19.828125 -39.863281 L 20.199219 -39.828125 C 20.273438 -39.820312 20.414062 -39.734375 20.484375 -39.652344 C 20.734375 -39.101562 20.902344 -38.484375 21.078125 -37.945312 C 21.480469 -36.628906 21.804688 -35.246094 22.128906 -33.867188 C 22.253906 -32.800781 22.300781 -31.671875 22.421875 -30.535156 C 22.679688 -26.828125 22.554688 -23.007812 22.507812 -19.257812 C 22.171875 -15.609375 21.382812 -11.925781 19.792969 -8.542969 Z M 19.792969 -8.542969 "/></g></g></g><g fill="#04080b" fill-opacity="1"><g transform="translate(21.235959, 114.891975)"><g><path d="M 43.085938 -6.808594 C 44.730469 -10.695312 43.085938 -14.960938 41.289062 -18.476562 C 39.867188 -21.316406 38.074219 -23.9375 36.203125 -26.40625 C 35.082031 -27.902344 33.808594 -29.320312 32.539062 -30.667969 C 28.949219 -34.78125 25.058594 -38.597656 21.167969 -42.335938 C 17.652344 -45.703125 14.0625 -48.996094 9.050781 -49.367188 C 7.332031 -49.519531 3.890625 -48.917969 3.214844 -46.976562 C 2.917969 -46.976562 2.542969 -46.898438 2.167969 -46.824219 C 0.824219 -46.601562 -0.300781 -45.328125 0.148438 -43.832031 C 0.222656 -43.609375 0.375 -43.308594 0.449219 -43.011719 C 2.167969 -34.707031 3.890625 -26.40625 5.535156 -18.027344 C 5.757812 -17.128906 5.910156 -16.304688 6.058594 -15.410156 L 5.757812 -15.632812 C 3.664062 -16.832031 0.824219 -16.082031 -0.375 -13.988281 C -1.644531 -11.894531 -0.972656 -8.976562 1.195312 -7.777344 C 3.515625 -6.582031 5.835938 -5.535156 8.226562 -4.5625 C 8.601562 -2.769531 9.125 -1.570312 10.769531 -0.449219 C 11.519531 0.0742188 12.566406 0.222656 13.539062 0.148438 C 14.0625 0.148438 14.4375 -0.0742188 14.734375 -0.375 C 15.035156 -0.222656 15.410156 -0.148438 15.78125 -0.222656 C 16.382812 -0.375 16.90625 -0.898438 17.203125 -1.570312 C 19 -1.121094 20.871094 -0.746094 22.738281 -0.449219 C 26.703125 0.148438 30.59375 0.300781 34.484375 -0.597656 C 37.847656 -1.421875 41.664062 -3.515625 43.085938 -6.808594 Z M 2.769531 -37.550781 C 3.738281 -34.332031 6.957031 -21.019531 7.929688 -17.503906 C 8.226562 -16.230469 8.675781 -14.960938 9.125 -13.6875 C 8.675781 -13.914062 8.226562 -14.210938 7.777344 -14.4375 L 5.757812 -22.441406 C 4.414062 -27.601562 3.367188 -32.761719 2.09375 -37.925781 C 1.871094 -38.972656 2.691406 -37.847656 2.769531 -37.550781 Z M 34.484375 -14.734375 C 35.007812 -13.914062 35.457031 -12.941406 35.902344 -12.042969 C 36.351562 -11.144531 36.800781 -10.324219 36.953125 -9.351562 C 36.128906 -8.601562 35.082031 -8.226562 33.808594 -7.929688 C 32.238281 -7.480469 31.117188 -7.480469 29.320312 -7.480469 C 27.378906 -7.554688 26.40625 -7.703125 24.460938 -8.152344 C 21.992188 -8.675781 19.597656 -9.425781 17.277344 -10.246094 C 16.90625 -12.492188 16.457031 -14.734375 16.082031 -16.980469 C 15.035156 -23.1875 13.914062 -29.472656 12.640625 -35.679688 L 14.0625 -34.933594 C 17.578125 -32.914062 20.570312 -30.742188 23.414062 -28.125 C 26.253906 -25.65625 28.796875 -22.8125 31.042969 -19.820312 C 32.238281 -18.175781 33.359375 -16.457031 34.484375 -14.734375 Z M 34.484375 -14.734375 "/></g></g></g><g fill="#39ff14" fill-opacity="1"><g transform="translate(24.040119, 114.891975)"><g><path d="M 43.085938 -6.808594 C 44.730469 -10.695312 43.085938 -14.960938 41.289062 -18.476562 C 39.867188 -21.316406 38.074219 -23.9375 36.203125 -26.40625 C 35.082031 -27.902344 33.808594 -29.320312 32.539062 -30.667969 C 28.949219 -34.78125 25.058594 -38.597656 21.167969 -42.335938 C 17.652344 -45.703125 14.0625 -48.996094 9.050781 -49.367188 C 7.332031 -49.519531 3.890625 -48.917969 3.214844 -46.976562 C 2.917969 -46.976562 2.542969 -46.898438 2.167969 -46.824219 C 0.824219 -46.601562 -0.300781 -45.328125 0.148438 -43.832031 C 0.222656 -43.609375 0.375 -43.308594 0.449219 -43.011719 C 2.167969 -34.707031 3.890625 -26.40625 5.535156 -18.027344 C 5.757812 -17.128906 5.910156 -16.304688 6.058594 -15.410156 L 5.757812 -15.632812 C 3.664062 -16.832031 0.824219 -16.082031 -0.375 -13.988281 C -1.644531 -11.894531 -0.972656 -8.976562 1.195312 -7.777344 C 3.515625 -6.582031 5.835938 -5.535156 8.226562 -4.5625 C 8.601562 -2.769531 9.125 -1.570312 10.769531 -0.449219 C 11.519531 0.0742188 12.566406 0.222656 13.539062 0.148438 C 14.0625 0.148438 14.4375 -0.0742188 14.734375 -0.375 C 15.035156 -0.222656 15.410156 -0.148438 15.78125 -0.222656 C 16.382812 -0.375 16.90625 -0.898438 17.203125 -1.570312 C 19 -1.121094 20.871094 -0.746094 22.738281 -0.449219 C 26.703125 0.148438 30.59375 0.300781 34.484375 -0.597656 C 37.847656 -1.421875 41.664062 -3.515625 43.085938 -6.808594 Z M 2.769531 -37.550781 C 3.738281 -34.332031 6.957031 -21.019531 7.929688 -17.503906 C 8.226562 -16.230469 8.675781 -14.960938 9.125 -13.6875 C 8.675781 -13.914062 8.226562 -14.210938 7.777344 -14.4375 L 5.757812 -22.441406 C 4.414062 -27.601562 3.367188 -32.761719 2.09375 -37.925781 C 1.871094 -38.972656 2.691406 -37.847656 2.769531 -37.550781 Z M 34.484375 -14.734375 C 35.007812 -13.914062 35.457031 -12.941406 35.902344 -12.042969 C 36.351562 -11.144531 36.800781 -10.324219 36.953125 -9.351562 C 36.128906 -8.601562 35.082031 -8.226562 33.808594 -7.929688 C 32.238281 -7.480469 31.117188 -7.480469 29.320312 -7.480469 C 27.378906 -7.554688 26.40625 -7.703125 24.460938 -8.152344 C 21.992188 -8.675781 19.597656 -9.425781 17.277344 -10.246094 C 16.90625 -12.492188 16.457031 -14.734375 16.082031 -16.980469 C 15.035156 -23.1875 13.914062 -29.472656 12.640625 -35.679688 L 14.0625 -34.933594 C 17.578125 -32.914062 20.570312 -30.742188 23.414062 -28.125 C 26.253906 -25.65625 28.796875 -22.8125 31.042969 -19.820312 C 32.238281 -18.175781 33.359375 -16.457031 34.484375 -14.734375 Z M 34.484375 -14.734375 "/></g></g></g><g fill="#04080b" fill-opacity="1"><g transform="translate(61.948461, 115.919938)"><g><path d="M 41.878906 -29.601562 C 42.0625 -31.25 41.578125 -32.585938 40.359375 -33.453125 C 39.367188 -34.171875 38.296875 -34.96875 37.230469 -35.6875 C 37.066406 -36.285156 36.75 -36.875 36.140625 -37.308594 C 28.683594 -42.050781 21.148438 -46.941406 12.855469 -49.347656 C 12.78125 -49.34375 12.703125 -49.417969 12.628906 -49.414062 C 12.101562 -49.625 11.574219 -49.761719 11.042969 -49.972656 C 10.890625 -50.117188 10.664062 -50.261719 10.363281 -50.253906 C 7.882812 -50.636719 3.371094 -51.492188 2.023438 -48.691406 C 1.246094 -46.949219 2.121094 -44.875 3.574219 -43.714844 C 3.144531 -43.03125 2.632812 -42.496094 2.046875 -42.03125 C 2.710938 -39.503906 3.304688 -36.902344 3.894531 -34.371094 C 3.445312 -34.359375 2.996094 -34.347656 2.550781 -34.261719 C 0.304688 -34.203125 -0.492188 -30.441406 1.636719 -29.148438 C 2.320312 -28.71875 3.152344 -28.292969 3.910156 -28.011719 L 2.195312 -27.742188 C 3.027344 -27.464844 3.855469 -27.1875 4.683594 -26.984375 C 4.984375 -26.917969 5.140625 -26.695312 5.148438 -26.472656 C 5.296875 -26.476562 5.445312 -26.480469 5.59375 -26.484375 L 6.113281 -23.878906 C 6.800781 -20.378906 7.492188 -16.882812 8.179688 -13.382812 L 8.984375 -8.464844 C 9.175781 -6.824219 9.074219 -5.023438 9.488281 -3.464844 C 9.507812 -2.640625 10.269531 -2.136719 10.863281 -2.304688 C 10.949219 -1.855469 11.109375 -1.488281 11.34375 -1.117188 C 12.269531 -0.09375 13.761719 -0.207031 14.714844 -1.058594 C 15.445312 -1.675781 15.949219 -2.4375 16.375 -3.34375 C 16.363281 -3.71875 16.351562 -4.167969 16.265625 -4.613281 C 16.394531 -8.285156 15.921875 -12.085938 15.601562 -15.746094 C 15.363281 -19.179688 14.972656 -22.613281 14.511719 -25.96875 C 16.460938 -25.945312 18.480469 -25.847656 20.429688 -25.824219 C 20.820312 -25.160156 21.289062 -24.425781 21.753906 -23.761719 L 21.753906 -23.6875 C 22.222656 -22.953125 22.617188 -22.214844 23.011719 -21.402344 C 24.503906 -18.671875 26.652344 -13.789062 27.527344 -11.867188 C 29.109375 -8.464844 30.699219 -4.988281 32.136719 -1.511719 C 32.4375 -1.367188 32.882812 -1.53125 33.101562 -1.761719 C 33.105469 -1.6875 33.179688 -1.6875 33.253906 -1.691406 C 33.933594 -1.40625 34.605469 -1.425781 35.277344 -1.519531 C 36.5625 -1.027344 38.273438 -1.445312 38.453125 -3.097656 C 38.925781 -7.972656 36.1875 -12.617188 34.054688 -16.824219 C 32.402344 -20 30.527344 -23.019531 28.429688 -25.957031 C 31.953125 -25.75 35.476562 -25.542969 38.996094 -25.410156 C 40.195312 -25.289062 41.582031 -26.597656 41.695312 -28.023438 Z M 11.222656 -40.25 L 10.96875 -41.441406 C 17.4375 -40.113281 23.503906 -37.050781 29.363281 -33.238281 L 22.085938 -33.949219 C 20.332031 -35.324219 17.808594 -37.277344 15.605469 -35.800781 C 15.238281 -35.492188 15.023438 -35.035156 14.960938 -34.660156 C 14.585938 -34.726562 14.136719 -34.714844 13.757812 -34.777344 C 13.417969 -36.339844 13.003906 -37.902344 12.589844 -39.460938 C 12.496094 -40.132812 11.75 -40.113281 11.386719 -39.730469 C 11.308594 -39.878906 11.300781 -40.101562 11.222656 -40.25 Z M 17.410156 -6.738281 C 17.660156 -8.542969 18.238281 -9.304688 17.945312 -11.992188 C 17.453125 -16.46875 16.964844 -20.945312 16.101562 -25.261719 L 15.503906 -25.246094 C 16.5625 -19.136719 16.949219 -12.9375 17.410156 -6.738281 Z M 17.410156 -6.738281 "/></g></g></g><g fill="#39ff14" fill-opacity="1"><g transform="translate(64.466252, 115.605957)"><g><path d="M 41.878906 -29.601562 C 42.0625 -31.25 41.578125 -32.585938 40.359375 -33.453125 C 39.367188 -34.171875 38.296875 -34.96875 37.230469 -35.6875 C 37.066406 -36.285156 36.75 -36.875 36.140625 -37.308594 C 28.683594 -42.050781 21.148438 -46.941406 12.855469 -49.347656 C 12.78125 -49.34375 12.703125 -49.417969 12.628906 -49.414062 C 12.101562 -49.625 11.574219 -49.761719 11.042969 -49.972656 C 10.890625 -50.117188 10.664062 -50.261719 10.363281 -50.253906 C 7.882812 -50.636719 3.371094 -51.492188 2.023438 -48.691406 C 1.246094 -46.949219 2.121094 -44.875 3.574219 -43.714844 C 3.144531 -43.03125 2.632812 -42.496094 2.046875 -42.03125 C 2.710938 -39.503906 3.304688 -36.902344 3.894531 -34.371094 C 3.445312 -34.359375 2.996094 -34.347656 2.550781 -34.261719 C 0.304688 -34.203125 -0.492188 -30.441406 1.636719 -29.148438 C 2.320312 -28.71875 3.152344 -28.292969 3.910156 -28.011719 L 2.195312 -27.742188 C 3.027344 -27.464844 3.855469 -27.1875 4.683594 -26.984375 C 4.984375 -26.917969 5.140625 -26.695312 5.148438 -26.472656 C 5.296875 -26.476562 5.445312 -26.480469 5.59375 -26.484375 L 6.113281 -23.878906 C 6.800781 -20.378906 7.492188 -16.882812 8.179688 -13.382812 L 8.984375 -8.464844 C 9.175781 -6.824219 9.074219 -5.023438 9.488281 -3.464844 C 9.507812 -2.640625 10.269531 -2.136719 10.863281 -2.304688 C 10.949219 -1.855469 11.109375 -1.488281 11.34375 -1.117188 C 12.269531 -0.09375 13.761719 -0.207031 14.714844 -1.058594 C 15.445312 -1.675781 15.949219 -2.4375 16.375 -3.34375 C 16.363281 -3.71875 16.351562 -4.167969 16.265625 -4.613281 C 16.394531 -8.285156 15.921875 -12.085938 15.601562 -15.746094 C 15.363281 -19.179688 14.972656 -22.613281 14.511719 -25.96875 C 16.460938 -25.945312 18.480469 -25.847656 20.429688 -25.824219 C 20.820312 -25.160156 21.289062 -24.425781 21.753906 -23.761719 L 21.753906 -23.6875 C 22.222656 -22.953125 22.617188 -22.214844 23.011719 -21.402344 C 24.503906 -18.671875 26.652344 -13.789062 27.527344 -11.867188 C 29.109375 -8.464844 30.699219 -4.988281 32.136719 -1.511719 C 32.4375 -1.367188 32.882812 -1.53125 33.101562 -1.761719 C 33.105469 -1.6875 33.179688 -1.6875 33.253906 -1.691406 C 33.933594 -1.40625 34.605469 -1.425781 35.277344 -1.519531 C 36.5625 -1.027344 38.273438 -1.445312 38.453125 -3.097656 C 38.925781 -7.972656 36.1875 -12.617188 34.054688 -16.824219 C 32.402344 -20 30.527344 -23.019531 28.429688 -25.957031 C 31.953125 -25.75 35.476562 -25.542969 38.996094 -25.410156 C 40.195312 -25.289062 41.582031 -26.597656 41.695312 -28.023438 Z M 11.222656 -40.25 L 10.96875 -41.441406 C 17.4375 -40.113281 23.503906 -37.050781 29.363281 -33.238281 L 22.085938 -33.949219 C 20.332031 -35.324219 17.808594 -37.277344 15.605469 -35.800781 C 15.238281 -35.492188 15.023438 -35.035156 14.960938 -34.660156 C 14.585938 -34.726562 14.136719 -34.714844 13.757812 -34.777344 C 13.417969 -36.339844 13.003906 -37.902344 12.589844 -39.460938 C 12.496094 -40.132812 11.75 -40.113281 11.386719 -39.730469 C 11.308594 -39.878906 11.300781 -40.101562 11.222656 -40.25 Z M 17.410156 -6.738281 C 17.660156 -8.542969 18.238281 -9.304688 17.945312 -11.992188 C 17.453125 -16.46875 16.964844 -20.945312 16.101562 -25.261719 L 15.503906 -25.246094 C 16.5625 -19.136719 16.949219 -12.9375 17.410156 -6.738281 Z M 17.410156 -6.738281 "/></g></g></g><g fill="#04080b" fill-opacity="1"><g transform="translate(130.365935, 114.294065)"><g><path d="M 36.714844 -21.261719 C 37.953125 -22.171875 38.722656 -23.585938 38.671875 -25.699219 C 38.609375 -26.460938 38.402344 -27.238281 38.042969 -28.035156 C 38.1875 -28.621094 38.035156 -29.242188 37.503906 -29.832031 C 33.71875 -34.121094 29.75 -38.132812 25.4375 -41.804688 C 23.3125 -43.5625 21.183594 -45.320312 18.882812 -46.875 C 16.644531 -48.34375 13.566406 -49.6875 10.914062 -48.269531 C 10.421875 -47.953125 9.992188 -47.476562 9.984375 -46.796875 C 8.828125 -46.558594 7.796875 -45.476562 8.089844 -44.160156 C 8.828125 -40.835938 9.40625 -37.453125 9.910156 -34.078125 L 9.492188 -34.351562 C 8.214844 -35.03125 6.402344 -34.34375 5.601562 -33.308594 C 4.617188 -31.992188 4.714844 -29.644531 6.261719 -28.710938 C 7.808594 -27.773438 9.355469 -26.835938 10.984375 -25.964844 C 11.003906 -25.511719 11.109375 -25.121094 11.132812 -24.667969 C 9 -25.75 6.875 -26.90625 4.84375 -28.199219 C 4.707031 -28.292969 4.613281 -28.152344 4.679688 -28.070312 C 6.765625 -26.617188 8.945312 -25.304688 11.144531 -24.140625 C 11.230469 -21.042969 11.304688 -17.867188 11.464844 -14.761719 C 11.527344 -12.117188 11.675781 -9.539062 11.746094 -6.96875 L 11.957031 -3.027344 C 11.984375 -1.96875 11.824219 -0.632812 12.3125 0.328125 C 12.378906 0.410156 12.378906 0.410156 12.386719 0.335938 C 12.792969 -0.519531 12.625 -1.667969 12.664062 -2.644531 C 12.59375 -3.933594 12.59375 -5.210938 12.601562 -6.566406 C 12.542969 -7.328125 12.554688 -8.078125 12.578125 -8.90625 C 12.644531 -7.542969 12.789062 -6.242188 13.023438 -5.011719 C 12.980469 -4.035156 13.015625 -3.054688 13.058594 -2.144531 C 13.050781 -0.789062 12.882812 0.621094 13.574219 1.757812 C 14.335938 2.976562 15.992188 2.34375 16.886719 1.773438 C 18.042969 0.929688 19 -0.160156 19.519531 -1.378906 C 20.242188 -3.027344 20.464844 -4.882812 20.527344 -6.683594 C 20.585938 -10.367188 20.28125 -14.167969 20.046875 -17.886719 C 19.992188 -18.722656 19.875 -19.640625 19.832031 -20.550781 C 20.484375 -20.320312 21.144531 -20.167969 21.792969 -19.941406 C 26.3125 -18.652344 33.46875 -16.75 36.714844 -21.261719 Z M 28.742188 -30.265625 C 30.328125 -29.023438 32.136719 -27.753906 32.992188 -26.070312 C 33.121094 -25.90625 33.179688 -25.75 33.234375 -25.589844 L 32.621094 -25.511719 C 32.167969 -25.492188 31.640625 -25.480469 31.121094 -25.539062 C 28.566406 -25.617188 26.078125 -26.210938 23.6875 -27.023438 C 22.097656 -27.589844 20.589844 -28.21875 19.09375 -28.921875 C 18.839844 -31.890625 18.433594 -34.800781 18.023438 -37.710938 C 19.644531 -36.765625 21.179688 -35.757812 22.71875 -34.746094 C 24.734375 -33.300781 26.738281 -31.785156 28.742188 -30.265625 Z M 23.699219 -20.769531 C 25.523438 -20.253906 28.105469 -19.796875 30.664062 -19.792969 C 30.65625 -19.71875 32.234375 -19.683594 32.226562 -19.609375 L 29.351562 -19.5 C 26.417969 -19.542969 23.425781 -20.351562 20.582031 -21.140625 C 20.285156 -21.175781 20.070312 -21.273438 19.78125 -21.382812 C 19.722656 -21.542969 19.75 -21.765625 19.703125 -21.996094 C 21.078125 -21.53125 22.382812 -21.078125 23.699219 -20.769531 Z M 18.4375 -8.136719 L 18.464844 -9.640625 C 18.539062 -9.628906 18.496094 -10.539062 18.578125 -10.605469 L 18.753906 -8.25 C 18.984375 -5.738281 18.980469 -3.175781 17.667969 -0.996094 C 17.417969 -0.800781 17.179688 -0.675781 16.863281 -0.5625 L 16.742188 -0.804688 C 18.195312 -2.890625 18.371094 -5.660156 18.4375 -8.136719 Z M 18.4375 -8.136719 "/></g></g></g><g fill="#39ff14" fill-opacity="1"><g transform="translate(132.297469, 114.522779)"><g><path d="M 36.714844 -21.261719 C 37.953125 -22.171875 38.722656 -23.585938 38.671875 -25.699219 C 38.609375 -26.460938 38.402344 -27.238281 38.042969 -28.035156 C 38.1875 -28.621094 38.035156 -29.242188 37.503906 -29.832031 C 33.71875 -34.121094 29.75 -38.132812 25.4375 -41.804688 C 23.3125 -43.5625 21.183594 -45.320312 18.882812 -46.875 C 16.644531 -48.34375 13.566406 -49.6875 10.914062 -48.269531 C 10.421875 -47.953125 9.992188 -47.476562 9.984375 -46.796875 C 8.828125 -46.558594 7.796875 -45.476562 8.089844 -44.160156 C 8.828125 -40.835938 9.40625 -37.453125 9.910156 -34.078125 L 9.492188 -34.351562 C 8.214844 -35.03125 6.402344 -34.34375 5.601562 -33.308594 C 4.617188 -31.992188 4.714844 -29.644531 6.261719 -28.710938 C 7.808594 -27.773438 9.355469 -26.835938 10.984375 -25.964844 C 11.003906 -25.511719 11.109375 -25.121094 11.132812 -24.667969 C 9 -25.75 6.875 -26.90625 4.84375 -28.199219 C 4.707031 -28.292969 4.613281 -28.152344 4.679688 -28.070312 C 6.765625 -26.617188 8.945312 -25.304688 11.144531 -24.140625 C 11.230469 -21.042969 11.304688 -17.867188 11.464844 -14.761719 C 11.527344 -12.117188 11.675781 -9.539062 11.746094 -6.96875 L 11.957031 -3.027344 C 11.984375 -1.96875 11.824219 -0.632812 12.3125 0.328125 C 12.378906 0.410156 12.378906 0.410156 12.386719 0.335938 C 12.792969 -0.519531 12.625 -1.667969 12.664062 -2.644531 C 12.59375 -3.933594 12.59375 -5.210938 12.601562 -6.566406 C 12.542969 -7.328125 12.554688 -8.078125 12.578125 -8.90625 C 12.644531 -7.542969 12.789062 -6.242188 13.023438 -5.011719 C 12.980469 -4.035156 13.015625 -3.054688 13.058594 -2.144531 C 13.050781 -0.789062 12.882812 0.621094 13.574219 1.757812 C 14.335938 2.976562 15.992188 2.34375 16.886719 1.773438 C 18.042969 0.929688 19 -0.160156 19.519531 -1.378906 C 20.242188 -3.027344 20.464844 -4.882812 20.527344 -6.683594 C 20.585938 -10.367188 20.28125 -14.167969 20.046875 -17.886719 C 19.992188 -18.722656 19.875 -19.640625 19.832031 -20.550781 C 20.484375 -20.320312 21.144531 -20.167969 21.792969 -19.941406 C 26.3125 -18.652344 33.46875 -16.75 36.714844 -21.261719 Z M 28.742188 -30.265625 C 30.328125 -29.023438 32.136719 -27.753906 32.992188 -26.070312 C 33.121094 -25.90625 33.179688 -25.75 33.234375 -25.589844 L 32.621094 -25.511719 C 32.167969 -25.492188 31.640625 -25.480469 31.121094 -25.539062 C 28.566406 -25.617188 26.078125 -26.210938 23.6875 -27.023438 C 22.097656 -27.589844 20.589844 -28.21875 19.09375 -28.921875 C 18.839844 -31.890625 18.433594 -34.800781 18.023438 -37.710938 C 19.644531 -36.765625 21.179688 -35.757812 22.71875 -34.746094 C 24.734375 -33.300781 26.738281 -31.785156 28.742188 -30.265625 Z M 23.699219 -20.769531 C 25.523438 -20.253906 28.105469 -19.796875 30.664062 -19.792969 C 30.65625 -19.71875 32.234375 -19.683594 32.226562 -19.609375 L 29.351562 -19.5 C 26.417969 -19.542969 23.425781 -20.351562 20.582031 -21.140625 C 20.285156 -21.175781 20.070312 -21.273438 19.78125 -21.382812 C 19.722656 -21.542969 19.75 -21.765625 19.703125 -21.996094 C 21.078125 -21.53125 22.382812 -21.078125 23.699219 -20.769531 Z M 18.4375 -8.136719 L 18.464844 -9.640625 C 18.539062 -9.628906 18.496094 -10.539062 18.578125 -10.605469 L 18.753906 -8.25 C 18.984375 -5.738281 18.980469 -3.175781 17.667969 -0.996094 C 17.417969 -0.800781 17.179688 -0.675781 16.863281 -0.5625 L 16.742188 -0.804688 C 18.195312 -2.890625 18.371094 -5.660156 18.4375 -8.136719 Z M 18.4375 -8.136719 "/></g></g></g></svg>