<svg xmlns="http://www.w3.org/2000/svg" xmlns:xlink="http://www.w3.org/1999/xlink" width="500" zoomAndPan="magnify" viewBox="0 0 375 374.999991" height="500" preserveAspectRatio="xMidYMid meet" version="1.0"><defs><g/></defs><g fill="#04080b" fill-opacity="1"><g transform="translate(24.380051, 229.602903)"><g><path d="M 65.722656 -26.316406 C 68.859375 -37.222656 69.402344 -48.679688 68.859375 -59.996094 L 68.859375 -65.449219 C 68.859375 -68.722656 68.3125 -71.992188 68.039062 -75.265625 C 67.628906 -80.3125 67.085938 -86.855469 60.949219 -87.539062 C 59.449219 -87.675781 58.222656 -86.175781 58.222656 -84.8125 L 58.222656 -83.449219 C 54.8125 -85.355469 49.90625 -82.628906 50.042969 -78.539062 C 50.175781 -66.265625 50.3125 -54.132812 49.496094 -41.996094 C 49.222656 -37.359375 49.496094 -28.769531 46.359375 -24.132812 C 44.449219 -22.5 42.132812 -21.40625 39.542969 -20.863281 C 37.085938 -21 35.042969 -22.089844 33.132812 -23.589844 C 29.453125 -33.40625 26.996094 -43.632812 26.316406 -54.132812 C 26.042969 -59.175781 26.042969 -64.359375 26.453125 -69.539062 C 26.726562 -73.765625 28.90625 -78.8125 27.40625 -82.902344 C 26.179688 -85.902344 23.316406 -88.21875 20.042969 -88.628906 C 11.863281 -89.855469 7.636719 -81.539062 6.136719 -74.722656 C 2.046875 -57.132812 2.726562 -38.042969 9.410156 -21.132812 C 10.226562 -19.089844 12.136719 -18.40625 13.773438 -18.542969 C 15.269531 -15.40625 17.179688 -12.40625 19.5 -9.679688 C 26.316406 -1.773438 38.996094 3.273438 48.40625 -2.726562 C 50.722656 -3.816406 53.175781 -6 54.40625 -7.363281 C 54.675781 -7.636719 54.949219 -7.910156 55.359375 -8.179688 C 60.539062 -12.953125 63.675781 -19.632812 65.722656 -26.316406 Z M 25.90625 -74.3125 C 23.863281 -62.3125 23.996094 -50.042969 26.179688 -38.042969 C 26.042969 -38.179688 25.90625 -38.179688 25.769531 -38.179688 C 25.363281 -39.816406 24.953125 -41.585938 24.679688 -43.359375 C 22.90625 -52.359375 22.90625 -61.769531 23.996094 -71.039062 C 24.542969 -72.128906 24.816406 -73.359375 25.089844 -74.585938 C 25.226562 -74.3125 25.632812 -74.175781 25.90625 -74.3125 Z M 25.90625 -74.3125 "/></g></g></g><g fill="#04080b" fill-opacity="1"><g transform="translate(102.453193, 229.57262)"><g><path d="M 74.886719 -83.089844 C 78.105469 -84.570312 78.054688 -89.753906 74.855469 -91.410156 C 74.574219 -91.675781 74.296875 -91.800781 74.019531 -91.925781 C 74.285156 -92.074219 74.695312 -92.089844 74.964844 -92.097656 C 76.320312 -92.421875 75.828125 -94.722656 74.605469 -94.539062 C 72.570312 -94.195312 70.53125 -93.984375 68.496094 -93.636719 C 67.675781 -93.742188 66.863281 -93.578125 66.179688 -93.550781 C 64.824219 -93.367188 63.464844 -93.179688 61.976562 -92.851562 C 43.097656 -90.527344 24.035156 -89.425781 4.917969 -89.820312 C 4.503906 -89.941406 4.398438 -89.121094 4.804688 -89.136719 C 12.210938 -88.175781 19.597656 -87.628906 26.96875 -87.484375 C 26.976562 -87.351562 26.84375 -87.207031 26.847656 -87.074219 C 19.355469 -86.800781 11.976562 -87.078125 4.457031 -87.484375 C 1.449219 -87.648438 -1.179688 -84.960938 -1.898438 -82.207031 C -2.597656 -78.90625 -0.84375 -75.695312 1.933594 -74.296875 C 2.832031 -72.144531 4.671875 -70.300781 6.488281 -69.140625 C 8.996094 -67.730469 12.007812 -67.429688 14.886719 -67.125 C 18.4375 -66.980469 22.121094 -66.980469 25.800781 -67.113281 C 27.574219 -67.179688 29.34375 -67.242188 31.117188 -67.308594 L 31.273438 -62.945312 L 31.21875 -56.941406 C 31.207031 -49.84375 31.054688 -42.746094 30.898438 -35.78125 C 30.878906 -28.820312 31 -21.730469 31.660156 -14.796875 C 32.128906 -9.492188 33.582031 -3.269531 39.371094 -1.707031 C 42.261719 -0.992188 45.609375 -2.75 46.453125 -5.785156 C 47.308594 -8.542969 47.304688 -12.363281 47.761719 -14.835938 L 47.949219 -9.660156 C 47.882812 -7.746094 47.953125 -5.839844 47.886719 -3.925781 L 47.894531 -3.652344 C 50.277344 -5.648438 50.703125 -8.941406 50.859375 -12.21875 C 50.546875 -16.984375 50.101562 -21.742188 49.792969 -26.507812 C 49.488281 -34.820312 49.050781 -43.128906 48.75 -51.4375 C 48.53125 -57.433594 48.449219 -63.433594 48.230469 -69.429688 C 55.144531 -70.636719 61.914062 -72.113281 68.8125 -73.726562 C 69.222656 -73.742188 69.484375 -74.023438 69.746094 -74.308594 C 70.421875 -74.46875 71.230469 -74.769531 71.761719 -75.199219 C 73.886719 -76.777344 74.34375 -79.25 74.390625 -81.707031 C 74.648438 -82.125 74.769531 -82.539062 74.886719 -83.089844 Z M 14.765625 -70.394531 C 11.492188 -70.414062 7.914062 -71.238281 5.660156 -73.203125 C 11.03125 -71.761719 16.519531 -71.003906 21.988281 -70.660156 C 19.539062 -70.433594 17.089844 -70.34375 14.765625 -70.394531 Z M 14.765625 -70.394531 "/></g></g></g><g fill="#04080b" fill-opacity="1"><g transform="translate(178.491105, 221.479816)"><g><path d="M 83.324219 -74.625 C 86.683594 -75.753906 87.183594 -80.914062 84.179688 -82.902344 C 83.929688 -83.195312 83.664062 -83.347656 83.402344 -83.503906 C 83.683594 -83.621094 84.09375 -83.59375 84.367188 -83.574219 C 85.746094 -83.75 85.5 -86.089844 84.265625 -86.039062 C 82.207031 -85.914062 80.15625 -85.921875 78.097656 -85.792969 C 77.292969 -85.988281 76.464844 -85.910156 75.785156 -85.957031 C 74.414062 -85.917969 73.046875 -85.875 71.53125 -85.710938 C 52.507812 -85.414062 33.4375 -86.351562 14.472656 -88.785156 C 14.074219 -88.949219 13.882812 -88.144531 14.289062 -88.113281 C 21.546875 -86.371094 28.835938 -85.035156 36.152344 -84.109375 C 36.140625 -83.972656 35.996094 -83.847656 35.984375 -83.710938 C 28.503906 -84.238281 21.199219 -85.300781 13.765625 -86.511719 C 10.792969 -86.992188 7.890625 -84.601562 6.882812 -81.9375 C 5.835938 -78.734375 7.238281 -75.351562 9.851562 -73.664062 C 10.515625 -71.429688 12.148438 -69.402344 13.828125 -68.050781 C 16.171875 -66.382812 19.136719 -65.765625 21.960938 -65.152344 C 25.480469 -64.632812 29.140625 -64.238281 32.816406 -63.976562 C 34.582031 -63.851562 36.351562 -63.726562 38.121094 -63.601562 L 37.8125 -59.25 L 37.117188 -53.285156 C 36.34375 -46.230469 35.4375 -39.1875 34.539062 -32.28125 C 33.777344 -25.363281 33.140625 -18.300781 33.058594 -11.332031 C 32.957031 -6.011719 33.738281 0.332031 39.328125 2.503906 C 42.125 3.523438 45.640625 2.128906 46.804688 -0.792969 C 47.949219 -3.449219 48.355469 -7.246094 49.070312 -9.65625 L 48.707031 -4.488281 C 48.433594 -2.59375 48.300781 -0.6875 48.03125 1.207031 L 48.011719 1.476562 C 50.59375 -0.253906 51.367188 -3.480469 51.871094 -6.722656 C 52.070312 -11.496094 52.136719 -16.273438 52.335938 -21.042969 C 52.921875 -29.339844 53.371094 -37.648438 53.957031 -45.945312 C 54.382812 -51.929688 54.941406 -57.902344 55.363281 -63.886719 C 62.367188 -64.351562 69.253906 -65.09375 76.285156 -65.964844 C 76.695312 -65.933594 76.984375 -66.1875 77.277344 -66.441406 C 77.96875 -66.527344 78.800781 -66.742188 79.375 -67.113281 C 81.65625 -68.457031 82.375 -70.863281 82.683594 -73.304688 C 82.984375 -73.691406 83.148438 -74.089844 83.324219 -74.625 Z M 22.191406 -68.417969 C 18.9375 -68.785156 15.46875 -69.988281 13.4375 -72.179688 C 18.625 -70.175781 24 -68.835938 29.402344 -67.910156 C 26.945312 -67.945312 24.496094 -68.121094 22.191406 -68.417969 Z M 22.191406 -68.417969 "/></g></g></g><g fill="#04080b" fill-opacity="1"><g transform="translate(269.758384, 226.857632)"><g><path d="M 63.460938 -51.847656 C 63.207031 -55.113281 63.085938 -58.382812 63.097656 -61.792969 C 63.410156 -68.21875 64.527344 -74.945312 63.476562 -81.320312 C 62.933594 -84.984375 60.507812 -87.898438 56.554688 -87.753906 C 53.015625 -87.621094 49.988281 -84.511719 50.125 -80.832031 C 50.34375 -78.519531 50.429688 -76.203125 50.515625 -73.886719 L 49.808594 -74.542969 C 46.992188 -76.898438 43.921875 -78.832031 40.851562 -80.628906 C 34.292969 -84.621094 27.507812 -87.375 20.070312 -89.285156 C 19.242188 -89.527344 18.5625 -89.503906 18.019531 -89.347656 C 15.125 -90.195312 12.097656 -90.902344 9.089844 -91.066406 C 4.441406 -91.304688 0.59375 -88.300781 -0.332031 -83.765625 C -1.257812 -79.226562 1.339844 -75.367188 3.917969 -72.046875 C 9.199219 -65.691406 15.265625 -60.183594 21.859375 -55.238281 L 23.964844 -53.679688 C 25.941406 -51.839844 27.917969 -50.003906 29.765625 -48.023438 C 34.570312 -43.425781 39.109375 -38.679688 43.519531 -33.789062 C 44.941406 -32.203125 46.363281 -30.621094 47.648438 -29.03125 C 47.953125 -28.222656 48.386719 -27.554688 48.683594 -26.882812 C 49.269531 -25.8125 50.589844 -23.269531 49.960938 -21.746094 C 49.976562 -21.335938 49.992188 -20.929688 49.597656 -20.503906 C 48.566406 -18.828125 45.851562 -18.457031 44.085938 -18.257812 C 41.097656 -17.875 38.238281 -17.769531 35.367188 -17.9375 C 33.726562 -18.015625 32.082031 -18.226562 30.425781 -18.710938 C 28.746094 -19.878906 27.191406 -21.324219 25.78125 -22.636719 C 23.230469 -25.136719 21.472656 -28.480469 20.125 -31.707031 C 16.664062 -40.585938 15.902344 -50.246094 12.710938 -59.136719 C 11.503906 -62.367188 8.734375 -63.492188 5.476562 -62.964844 C 2.765625 -62.457031 0.816406 -59.792969 0.363281 -57.320312 C -0.3125 -53.339844 0.660156 -49.144531 1.34375 -45.347656 C 2.050781 -41.007812 2.753906 -36.667969 4 -32.484375 C 6.316406 -25.0625 8.09375 -17.488281 9.191406 -9.886719 C 9.511719 -8.535156 9.964844 -7.324219 10.816406 -6.398438 C 11.316406 -3.960938 12.765625 -1.695312 14.316406 -0.25 C 15.730469 1.0625 17.910156 0.984375 19.222656 -0.429688 C 20.941406 -1.992188 21.8125 -4.207031 22.273438 -6.542969 C 24.921875 -5.003906 27.828125 -3.882812 30.851562 -3.308594 C 35.257812 -2.242188 40.453125 -1.886719 45.0625 -2.738281 L 45.472656 -2.753906 C 54.042969 -3.476562 63.074219 -10.21875 63.023438 -19.085938 C 63.4375 -22.648438 62.484375 -26.296875 60.863281 -29.648438 C 59.910156 -33.296875 57.878906 -36.632812 55.3125 -39.679688 C 51.605469 -44.046875 47.363281 -48.121094 43.253906 -52.199219 C 39.003906 -56.546875 34.484375 -60.75 29.96875 -64.8125 L 24.1875 -69.925781 C 27.761719 -69.234375 31.484375 -68.144531 34.945312 -66.769531 C 41.597656 -64.011719 47.746094 -60.003906 51.910156 -54.289062 C 52.046875 -54.296875 52.054688 -54.160156 52.1875 -54.164062 C 53.242188 -47.789062 55.886719 -38.882812 62.503906 -40.761719 C 64.390625 -41.375 65.40625 -43.457031 64.796875 -45.210938 C 64.304688 -47.511719 63.683594 -49.535156 63.460938 -51.847656 Z M 63.460938 -51.847656 "/></g></g></g><g fill="#39ff14" fill-opacity="1"><g transform="translate(34.181778, 232.591359)"><g><path d="M 65.722656 -26.316406 C 68.859375 -37.222656 69.402344 -48.679688 68.859375 -59.996094 L 68.859375 -65.449219 C 68.859375 -68.722656 68.3125 -71.992188 68.039062 -75.265625 C 67.628906 -80.3125 67.085938 -86.855469 60.949219 -87.539062 C 59.449219 -87.675781 58.222656 -86.175781 58.222656 -84.8125 L 58.222656 -83.449219 C 54.8125 -85.355469 49.90625 -82.628906 50.042969 -78.539062 C 50.175781 -66.265625 50.3125 -54.132812 49.496094 -41.996094 C 49.222656 -37.359375 49.496094 -28.769531 46.359375 -24.132812 C 44.449219 -22.5 42.132812 -21.40625 39.542969 -20.863281 C 37.085938 -21 35.042969 -22.089844 33.132812 -23.589844 C 29.453125 -33.40625 26.996094 -43.632812 26.316406 -54.132812 C 26.042969 -59.175781 26.042969 -64.359375 26.453125 -69.539062 C 26.726562 -73.765625 28.90625 -78.8125 27.40625 -82.902344 C 26.179688 -85.902344 23.316406 -88.21875 20.042969 -88.628906 C 11.863281 -89.855469 7.636719 -81.539062 6.136719 -74.722656 C 2.046875 -57.132812 2.726562 -38.042969 9.410156 -21.132812 C 10.226562 -19.089844 12.136719 -18.40625 13.773438 -18.542969 C 15.269531 -15.40625 17.179688 -12.40625 19.5 -9.679688 C 26.316406 -1.773438 38.996094 3.273438 48.40625 -2.726562 C 50.722656 -3.816406 53.175781 -6 54.40625 -7.363281 C 54.675781 -7.636719 54.949219 -7.910156 55.359375 -8.179688 C 60.539062 -12.953125 63.675781 -19.632812 65.722656 -26.316406 Z M 25.90625 -74.3125 C 23.863281 -62.3125 23.996094 -50.042969 26.179688 -38.042969 C 26.042969 -38.179688 25.90625 -38.179688 25.769531 -38.179688 C 25.363281 -39.816406 24.953125 -41.585938 24.679688 -43.359375 C 22.90625 -52.359375 22.90625 -61.769531 23.996094 -71.039062 C 24.542969 -72.128906 24.816406 -73.359375 25.089844 -74.585938 C 25.226562 -74.3125 25.632812 -74.175781 25.90625 -74.3125 Z M 25.90625 -74.3125 "/></g></g></g><g fill="#39ff14" fill-opacity="1"><g transform="translate(112.254929, 232.561075)"><g><path d="M 74.886719 -83.089844 C 78.105469 -84.570312 78.054688 -89.753906 74.855469 -91.410156 C 74.574219 -91.675781 74.296875 -91.800781 74.019531 -91.925781 C 74.285156 -92.074219 74.695312 -92.089844 74.964844 -92.097656 C 76.320312 -92.421875 75.828125 -94.722656 74.605469 -94.539062 C 72.570312 -94.195312 70.53125 -93.984375 68.496094 -93.636719 C 67.675781 -93.742188 66.863281 -93.578125 66.179688 -93.550781 C 64.824219 -93.367188 63.464844 -93.179688 61.976562 -92.851562 C 43.097656 -90.527344 24.035156 -89.425781 4.917969 -89.820312 C 4.503906 -89.941406 4.398438 -89.121094 4.804688 -89.136719 C 12.210938 -88.175781 19.597656 -87.628906 26.96875 -87.484375 C 26.976562 -87.351562 26.84375 -87.207031 26.847656 -87.074219 C 19.355469 -86.800781 11.976562 -87.078125 4.457031 -87.484375 C 1.449219 -87.648438 -1.179688 -84.960938 -1.898438 -82.207031 C -2.597656 -78.90625 -0.84375 -75.695312 1.933594 -74.296875 C 2.832031 -72.144531 4.671875 -70.300781 6.488281 -69.140625 C 8.996094 -67.730469 12.007812 -67.429688 14.886719 -67.125 C 18.4375 -66.980469 22.121094 -66.980469 25.800781 -67.113281 C 27.574219 -67.179688 29.34375 -67.242188 31.117188 -67.308594 L 31.273438 -62.945312 L 31.21875 -56.941406 C 31.207031 -49.84375 31.054688 -42.746094 30.898438 -35.78125 C 30.878906 -28.820312 31 -21.730469 31.660156 -14.796875 C 32.128906 -9.492188 33.582031 -3.269531 39.371094 -1.707031 C 42.261719 -0.992188 45.609375 -2.75 46.453125 -5.785156 C 47.308594 -8.542969 47.304688 -12.363281 47.761719 -14.835938 L 47.949219 -9.660156 C 47.882812 -7.746094 47.953125 -5.839844 47.886719 -3.925781 L 47.894531 -3.652344 C 50.277344 -5.648438 50.703125 -8.941406 50.859375 -12.21875 C 50.546875 -16.984375 50.101562 -21.742188 49.792969 -26.507812 C 49.488281 -34.820312 49.050781 -43.128906 48.75 -51.4375 C 48.53125 -57.433594 48.449219 -63.433594 48.230469 -69.429688 C 55.144531 -70.636719 61.914062 -72.113281 68.8125 -73.726562 C 69.222656 -73.742188 69.484375 -74.023438 69.746094 -74.308594 C 70.421875 -74.46875 71.230469 -74.769531 71.761719 -75.199219 C 73.886719 -76.777344 74.34375 -79.25 74.390625 -81.707031 C 74.648438 -82.125 74.769531 -82.539062 74.886719 -83.089844 Z M 14.765625 -70.394531 C 11.492188 -70.414062 7.914062 -71.238281 5.660156 -73.203125 C 11.03125 -71.761719 16.519531 -71.003906 21.988281 -70.660156 C 19.539062 -70.433594 17.089844 -70.34375 14.765625 -70.394531 Z M 14.765625 -70.394531 "/></g></g></g><g fill="#39ff14" fill-opacity="1"><g transform="translate(188.292842, 224.468257)"><g><path d="M 83.324219 -74.625 C 86.683594 -75.753906 87.183594 -80.914062 84.179688 -82.902344 C 83.929688 -83.195312 83.664062 -83.347656 83.402344 -83.503906 C 83.683594 -83.621094 84.09375 -83.59375 84.367188 -83.574219 C 85.746094 -83.75 85.5 -86.089844 84.265625 -86.039062 C 82.207031 -85.914062 80.15625 -85.921875 78.097656 -85.792969 C 77.292969 -85.988281 76.464844 -85.910156 75.785156 -85.957031 C 74.414062 -85.917969 73.046875 -85.875 71.53125 -85.710938 C 52.507812 -85.414062 33.4375 -86.351562 14.472656 -88.785156 C 14.074219 -88.949219 13.882812 -88.144531 14.289062 -88.113281 C 21.546875 -86.371094 28.835938 -85.035156 36.152344 -84.109375 C 36.140625 -83.972656 35.996094 -83.847656 35.984375 -83.710938 C 28.503906 -84.238281 21.199219 -85.300781 13.765625 -86.511719 C 10.792969 -86.992188 7.890625 -84.601562 6.882812 -81.9375 C 5.835938 -78.734375 7.238281 -75.351562 9.851562 -73.664062 C 10.515625 -71.429688 12.148438 -69.402344 13.828125 -68.050781 C 16.171875 -66.382812 19.136719 -65.765625 21.960938 -65.152344 C 25.480469 -64.632812 29.140625 -64.238281 32.816406 -63.976562 C 34.582031 -63.851562 36.351562 -63.726562 38.121094 -63.601562 L 37.8125 -59.25 L 37.117188 -53.285156 C 36.34375 -46.230469 35.4375 -39.1875 34.539062 -32.28125 C 33.777344 -25.363281 33.140625 -18.300781 33.058594 -11.332031 C 32.957031 -6.011719 33.738281 0.332031 39.328125 2.503906 C 42.125 3.523438 45.640625 2.128906 46.804688 -0.792969 C 47.949219 -3.449219 48.355469 -7.246094 49.070312 -9.65625 L 48.707031 -4.488281 C 48.433594 -2.59375 48.300781 -0.6875 48.03125 1.207031 L 48.011719 1.476562 C 50.59375 -0.253906 51.367188 -3.480469 51.871094 -6.722656 C 52.070312 -11.496094 52.136719 -16.273438 52.335938 -21.042969 C 52.921875 -29.339844 53.371094 -37.648438 53.957031 -45.945312 C 54.382812 -51.929688 54.941406 -57.902344 55.363281 -63.886719 C 62.367188 -64.351562 69.253906 -65.09375 76.285156 -65.964844 C 76.695312 -65.933594 76.984375 -66.1875 77.277344 -66.441406 C 77.96875 -66.527344 78.800781 -66.742188 79.375 -67.113281 C 81.65625 -68.457031 82.375 -70.863281 82.683594 -73.304688 C 82.984375 -73.691406 83.148438 -74.089844 83.324219 -74.625 Z M 22.191406 -68.417969 C 18.9375 -68.785156 15.46875 -69.988281 13.4375 -72.179688 C 18.625 -70.175781 24 -68.835938 29.402344 -67.910156 C 26.945312 -67.945312 24.496094 -68.121094 22.191406 -68.417969 Z M 22.191406 -68.417969 "/></g></g></g><g fill="#39ff14" fill-opacity="1"><g transform="translate(279.560091, 229.846075)"><g><path d="M 63.460938 -51.847656 C 63.207031 -55.113281 63.085938 -58.382812 63.097656 -61.792969 C 63.410156 -68.21875 64.527344 -74.945312 63.476562 -81.320312 C 62.933594 -84.984375 60.507812 -87.898438 56.554688 -87.753906 C 53.015625 -87.621094 49.988281 -84.511719 50.125 -80.832031 C 50.34375 -78.519531 50.429688 -76.203125 50.515625 -73.886719 L 49.808594 -74.542969 C 46.992188 -76.898438 43.921875 -78.832031 40.851562 -80.628906 C 34.292969 -84.621094 27.507812 -87.375 20.070312 -89.285156 C 19.242188 -89.527344 18.5625 -89.503906 18.019531 -89.347656 C 15.125 -90.195312 12.097656 -90.902344 9.089844 -91.066406 C 4.441406 -91.304688 0.59375 -88.300781 -0.332031 -83.765625 C -1.257812 -79.226562 1.339844 -75.367188 3.917969 -72.046875 C 9.199219 -65.691406 15.265625 -60.183594 21.859375 -55.238281 L 23.964844 -53.679688 C 25.941406 -51.839844 27.917969 -50.003906 29.765625 -48.023438 C 34.570312 -43.425781 39.109375 -38.679688 43.519531 -33.789062 C 44.941406 -32.203125 46.363281 -30.621094 47.648438 -29.03125 C 47.953125 -28.222656 48.386719 -27.554688 48.683594 -26.882812 C 49.269531 -25.8125 50.589844 -23.269531 49.960938 -21.746094 C 49.976562 -21.335938 49.992188 -20.929688 49.597656 -20.503906 C 48.566406 -18.828125 45.851562 -18.457031 44.085938 -18.257812 C 41.097656 -17.875 38.238281 -17.769531 35.367188 -17.9375 C 33.726562 -18.015625 32.082031 -18.226562 30.425781 -18.710938 C 28.746094 -19.878906 27.191406 -21.324219 25.78125 -22.636719 C 23.230469 -25.136719 21.472656 -28.480469 20.125 -31.707031 C 16.664062 -40.585938 15.902344 -50.246094 12.710938 -59.136719 C 11.503906 -62.367188 8.734375 -63.492188 5.476562 -62.964844 C 2.765625 -62.457031 0.816406 -59.792969 0.363281 -57.320312 C -0.3125 -53.339844 0.660156 -49.144531 1.34375 -45.347656 C 2.050781 -41.007812 2.753906 -36.667969 4 -32.484375 C 6.316406 -25.0625 8.09375 -17.488281 9.191406 -9.886719 C 9.511719 -8.535156 9.964844 -7.324219 10.816406 -6.398438 C 11.316406 -3.960938 12.765625 -1.695312 14.316406 -0.25 C 15.730469 1.0625 17.910156 0.984375 19.222656 -0.429688 C 20.941406 -1.992188 21.8125 -4.207031 22.273438 -6.542969 C 24.921875 -5.003906 27.828125 -3.882812 30.851562 -3.308594 C 35.257812 -2.242188 40.453125 -1.886719 45.0625 -2.738281 L 45.472656 -2.753906 C 54.042969 -3.476562 63.074219 -10.21875 63.023438 -19.085938 C 63.4375 -22.648438 62.484375 -26.296875 60.863281 -29.648438 C 59.910156 -33.296875 57.878906 -36.632812 55.3125 -39.679688 C 51.605469 -44.046875 47.363281 -48.121094 43.253906 -52.199219 C 39.003906 -56.546875 34.484375 -60.75 29.96875 -64.8125 L 24.1875 -69.925781 C 27.761719 -69.234375 31.484375 -68.144531 34.945312 -66.769531 C 41.597656 -64.011719 47.746094 -60.003906 51.910156 -54.289062 C 52.046875 -54.296875 52.054688 -54.160156 52.1875 -54.164062 C 53.242188 -47.789062 55.886719 -38.882812 62.503906 -40.761719 C 64.390625 -41.375 65.40625 -43.457031 64.796875 -45.210938 C 64.304688 -47.511719 63.683594 -49.535156 63.460938 -51.847656 Z M 63.460938 -51.847656 "/></g></g></g></svg>