<svg xmlns="http://www.w3.org/2000/svg" xmlns:xlink="http://www.w3.org/1999/xlink" width="500" zoomAndPan="magnify" viewBox="0 0 375 187.499995" height="250" preserveAspectRatio="xMidYMid meet" version="1.0"><defs><g/></defs><g fill="#04080b" fill-opacity="1"><g transform="translate(7.141955, 121.135745)"><g><path d="M 1.105469 -45.542969 C 1.261719 -44.753906 2.367188 -44.121094 3.078125 -43.882812 C 4.261719 -43.410156 5.445312 -43.253906 6.707031 -43.253906 C 8.207031 -43.253906 9.945312 -43.648438 10.890625 -44.753906 C 12.390625 -45.066406 13.890625 -45.777344 15.074219 -46.648438 C 15.707031 -47.121094 16.257812 -47.910156 15.945312 -48.777344 C 15.15625 -50.832031 13.574219 -52.015625 11.445312 -52.566406 C 8.996094 -53.199219 6.550781 -52.25 4.5 -50.832031 C 4.339844 -50.75 4.183594 -50.59375 4.023438 -50.433594 C 3.234375 -49.882812 2.605469 -49.25 2.050781 -48.460938 C 1.5 -47.671875 0.789062 -46.566406 1.105469 -45.542969 Z M 6.394531 -43.648438 C 5.445312 -43.726562 4.578125 -43.882812 3.710938 -44.199219 C 3.15625 -44.359375 2.683594 -44.671875 2.210938 -45.066406 C 1.578125 -45.621094 1.65625 -46.171875 1.972656 -46.882812 C 2.289062 -47.4375 2.605469 -47.910156 3 -48.382812 C 2.210938 -46.566406 3.078125 -44.753906 5.367188 -44.277344 C 7.183594 -43.964844 8.207031 -44.121094 9.15625 -44.359375 C 9.234375 -44.359375 8.683594 -43.648438 6.394531 -43.648438 Z M 14.601562 -4.183594 C 14.757812 -3.394531 16.023438 -3.472656 15.945312 -4.261719 C 14.445312 -15.46875 13.8125 -26.679688 14.128906 -37.964844 C 14.128906 -38.042969 13.574219 -37.964844 13.574219 -37.808594 C 13.261719 -32.203125 13.261719 -23.914062 13.496094 -18.3125 C 13.339844 -18.3125 13.101562 -21.074219 12.945312 -20.996094 C 12.867188 -21.707031 12.785156 -22.414062 12.785156 -22.96875 C 12.707031 -25.886719 12.550781 -28.808594 12.550781 -31.652344 C 12.550781 -34.570312 12.707031 -37.414062 12.707031 -40.332031 C 12.628906 -41.042969 11.996094 -41.359375 11.445312 -41.28125 C 10.183594 -44.4375 6.15625 -41.515625 4.5 -40.410156 C 4.261719 -40.175781 4.023438 -39.9375 3.867188 -39.621094 C 2.921875 -38.675781 2.445312 -37.175781 2.210938 -35.675781 C 1.894531 -32.835938 1.972656 -29.914062 1.972656 -27.074219 C 1.894531 -21.152344 2.289062 -15.3125 3 -9.472656 C 3.316406 -7.261719 3.394531 -4.894531 5.050781 -3.316406 C 5.445312 -3 5.839844 -2.761719 6.234375 -2.605469 L 6.394531 -2.367188 C 7.894531 -0.867188 10.261719 -0.394531 12.15625 -1.339844 C 12.867188 -1.65625 13.023438 -2.289062 12.945312 -2.839844 C 13.574219 -3.078125 14.207031 -3.550781 14.601562 -4.183594 Z M 5.839844 -36.386719 C 5.839844 -36.542969 6.15625 -37.015625 6.394531 -37.175781 L 6.472656 -37.175781 C 5.605469 -34.648438 5.445312 -31.730469 5.445312 -29.046875 C 5.367188 -25.492188 5.445312 -21.941406 5.445312 -18.390625 L 5.210938 -18.390625 C 4.972656 -20.285156 4.734375 -22.179688 4.578125 -24.074219 C 4.578125 -24.152344 4.578125 -24.152344 4.578125 -24.230469 L 4.578125 -25.019531 C 4.734375 -28.652344 4.65625 -32.835938 5.839844 -36.386719 Z M 5.839844 -36.386719 "/></g></g></g><g fill="#39ff14" fill-opacity="1"><g transform="translate(11.838094, 121.135745)"><g><path d="M 1.105469 -45.542969 C 1.261719 -44.753906 2.367188 -44.121094 3.078125 -43.882812 C 4.261719 -43.410156 5.445312 -43.253906 6.707031 -43.253906 C 8.207031 -43.253906 9.945312 -43.648438 10.890625 -44.753906 C 12.390625 -45.066406 13.890625 -45.777344 15.074219 -46.648438 C 15.707031 -47.121094 16.257812 -47.910156 15.945312 -48.777344 C 15.15625 -50.832031 13.574219 -52.015625 11.445312 -52.566406 C 8.996094 -53.199219 6.550781 -52.25 4.5 -50.832031 C 4.339844 -50.75 4.183594 -50.59375 4.023438 -50.433594 C 3.234375 -49.882812 2.605469 -49.25 2.050781 -48.460938 C 1.5 -47.671875 0.789062 -46.566406 1.105469 -45.542969 Z M 6.394531 -43.648438 C 5.445312 -43.726562 4.578125 -43.882812 3.710938 -44.199219 C 3.15625 -44.359375 2.683594 -44.671875 2.210938 -45.066406 C 1.578125 -45.621094 1.65625 -46.171875 1.972656 -46.882812 C 2.289062 -47.4375 2.605469 -47.910156 3 -48.382812 C 2.210938 -46.566406 3.078125 -44.753906 5.367188 -44.277344 C 7.183594 -43.964844 8.207031 -44.121094 9.15625 -44.359375 C 9.234375 -44.359375 8.683594 -43.648438 6.394531 -43.648438 Z M 14.601562 -4.183594 C 14.757812 -3.394531 16.023438 -3.472656 15.945312 -4.261719 C 14.445312 -15.46875 13.8125 -26.679688 14.128906 -37.964844 C 14.128906 -38.042969 13.574219 -37.964844 13.574219 -37.808594 C 13.261719 -32.203125 13.261719 -23.914062 13.496094 -18.3125 C 13.339844 -18.3125 13.101562 -21.074219 12.945312 -20.996094 C 12.867188 -21.707031 12.785156 -22.414062 12.785156 -22.96875 C 12.707031 -25.886719 12.550781 -28.808594 12.550781 -31.652344 C 12.550781 -34.570312 12.707031 -37.414062 12.707031 -40.332031 C 12.628906 -41.042969 11.996094 -41.359375 11.445312 -41.28125 C 10.183594 -44.4375 6.15625 -41.515625 4.5 -40.410156 C 4.261719 -40.175781 4.023438 -39.9375 3.867188 -39.621094 C 2.921875 -38.675781 2.445312 -37.175781 2.210938 -35.675781 C 1.894531 -32.835938 1.972656 -29.914062 1.972656 -27.074219 C 1.894531 -21.152344 2.289062 -15.3125 3 -9.472656 C 3.316406 -7.261719 3.394531 -4.894531 5.050781 -3.316406 C 5.445312 -3 5.839844 -2.761719 6.234375 -2.605469 L 6.394531 -2.367188 C 7.894531 -0.867188 10.261719 -0.394531 12.15625 -1.339844 C 12.867188 -1.65625 13.023438 -2.289062 12.945312 -2.839844 C 13.574219 -3.078125 14.207031 -3.550781 14.601562 -4.183594 Z M 5.839844 -36.386719 C 5.839844 -36.542969 6.15625 -37.015625 6.394531 -37.175781 L 6.472656 -37.175781 C 5.605469 -34.648438 5.445312 -31.730469 5.445312 -29.046875 C 5.367188 -25.492188 5.445312 -21.941406 5.445312 -18.390625 L 5.210938 -18.390625 C 4.972656 -20.285156 4.734375 -22.179688 4.578125 -24.074219 C 4.578125 -24.152344 4.578125 -24.152344 4.578125 -24.230469 L 4.578125 -25.019531 C 4.734375 -28.652344 4.65625 -32.835938 5.839844 -36.386719 Z M 5.839844 -36.386719 "/></g></g></g><g fill="#04080b" fill-opacity="1"><g transform="translate(27.09183, 116.197094)"><g><path d="M 34.253906 0.238281 C 35.753906 0.238281 37.015625 -0.710938 37.886719 -1.894531 C 37.253906 -11.601562 36.386719 -21.390625 34.808594 -31.019531 C 34.097656 -35.753906 33.308594 -40.570312 32.046875 -45.148438 C 31.652344 -46.648438 31.175781 -48.148438 30.859375 -49.644531 C 30.703125 -49.804688 30.546875 -49.960938 30.308594 -50.039062 C 28.96875 -50.988281 26.597656 -51.144531 25.652344 -49.410156 C 25.652344 -49.332031 25.574219 -49.332031 25.574219 -49.25 C 25.019531 -48.9375 24.546875 -48.382812 24.230469 -47.832031 C 23.363281 -46.253906 24.074219 -44.753906 24.46875 -43.253906 C 25.257812 -40.410156 25.730469 -37.570312 26.285156 -34.730469 C 26.992188 -30.703125 27.863281 -26.519531 28.257812 -22.574219 L 26.992188 -25.019531 C 26.992188 -25.257812 26.992188 -25.492188 26.835938 -25.808594 C 25.257812 -29.046875 23.601562 -32.203125 21.785156 -35.28125 C 19.652344 -39.148438 17.441406 -42.9375 14.757812 -46.488281 C 13.261719 -48.460938 8.761719 -53.117188 6.3125 -49.882812 C 5.917969 -49.332031 5.683594 -48.699219 5.683594 -48.066406 C 5.128906 -47.988281 4.578125 -47.671875 4.183594 -47.355469 C 3.945312 -43.964844 4.105469 -40.492188 4.183594 -37.015625 C 4.339844 -31.652344 4.421875 -26.203125 4.65625 -20.835938 C 4.894531 -14.207031 5.128906 -7.578125 5.523438 -0.945312 C 6.078125 -0.238281 6.789062 0.316406 7.734375 0.550781 C 9.472656 1.105469 11.285156 0.472656 12.234375 -1.105469 C 15.46875 -1.578125 14.601562 -6.15625 14.523438 -8.601562 C 14.445312 -11.761719 14.363281 -14.917969 14.207031 -18.074219 C 14.207031 -23.441406 14.285156 -28.808594 14.207031 -34.175781 C 14.601562 -33.625 14.996094 -32.992188 15.46875 -32.441406 L 29.203125 -7.894531 L 29.675781 -5.210938 C 30.070312 -3.15625 30.546875 -0.710938 32.675781 0.238281 C 33.148438 0.472656 33.78125 0.550781 34.253906 0.238281 Z M 38.675781 -2.683594 C 38.753906 -3.789062 38.675781 -5.523438 38.597656 -6.078125 C 38.675781 -20.046875 36.9375 -34.019531 34.097656 -47.75 C 33.9375 -48.542969 32.992188 -48.542969 32.597656 -48.066406 C 32.28125 -47.75 32.28125 -47.4375 32.359375 -47.199219 C 35.597656 -32.519531 37.332031 -17.523438 38.359375 -2.445312 C 38.4375 -2.605469 38.515625 -2.683594 38.675781 -2.683594 Z M 4.105469 -8.445312 C 4.421875 -5.050781 4.734375 -5.210938 4.734375 -5.210938 L 4.023438 -22.96875 C 3.867188 -28.492188 3.710938 -34.019531 3.628906 -39.464844 C 3.550781 -41.988281 3.472656 -44.515625 3.550781 -47.042969 C 3 -45.777344 2.839844 -44.277344 2.921875 -42.9375 C 3 -37.253906 3.078125 -31.570312 3.316406 -25.96875 C 3.550781 -20.285156 3.628906 -14.050781 4.105469 -8.445312 Z M 12.945312 -12.3125 C 13.023438 -11.367188 13.101562 -10.496094 13.101562 -9.550781 C 13.261719 -7.972656 13.339844 -6.394531 13.417969 -4.894531 C 13.496094 -4.183594 13.261719 -3 12.785156 -2.210938 C 13.261719 -4.183594 12.472656 -6 12.472656 -7.261719 L 12.550781 -11.996094 C 12.628906 -12.074219 12.707031 -12.074219 12.707031 -12.074219 Z M 12.945312 -12.3125 "/></g></g></g><g fill="#39ff14" fill-opacity="1"><g transform="translate(30.85991, 116.197094)"><g><path d="M 34.253906 0.238281 C 35.753906 0.238281 37.015625 -0.710938 37.886719 -1.894531 C 37.253906 -11.601562 36.386719 -21.390625 34.808594 -31.019531 C 34.097656 -35.753906 33.308594 -40.570312 32.046875 -45.148438 C 31.652344 -46.648438 31.175781 -48.148438 30.859375 -49.644531 C 30.703125 -49.804688 30.546875 -49.960938 30.308594 -50.039062 C 28.96875 -50.988281 26.597656 -51.144531 25.652344 -49.410156 C 25.652344 -49.332031 25.574219 -49.332031 25.574219 -49.25 C 25.019531 -48.9375 24.546875 -48.382812 24.230469 -47.832031 C 23.363281 -46.253906 24.074219 -44.753906 24.46875 -43.253906 C 25.257812 -40.410156 25.730469 -37.570312 26.285156 -34.730469 C 26.992188 -30.703125 27.863281 -26.519531 28.257812 -22.574219 L 26.992188 -25.019531 C 26.992188 -25.257812 26.992188 -25.492188 26.835938 -25.808594 C 25.257812 -29.046875 23.601562 -32.203125 21.785156 -35.28125 C 19.652344 -39.148438 17.441406 -42.9375 14.757812 -46.488281 C 13.261719 -48.460938 8.761719 -53.117188 6.3125 -49.882812 C 5.917969 -49.332031 5.683594 -48.699219 5.683594 -48.066406 C 5.128906 -47.988281 4.578125 -47.671875 4.183594 -47.355469 C 3.945312 -43.964844 4.105469 -40.492188 4.183594 -37.015625 C 4.339844 -31.652344 4.421875 -26.203125 4.65625 -20.835938 C 4.894531 -14.207031 5.128906 -7.578125 5.523438 -0.945312 C 6.078125 -0.238281 6.789062 0.316406 7.734375 0.550781 C 9.472656 1.105469 11.285156 0.472656 12.234375 -1.105469 C 15.46875 -1.578125 14.601562 -6.15625 14.523438 -8.601562 C 14.445312 -11.761719 14.363281 -14.917969 14.207031 -18.074219 C 14.207031 -23.441406 14.285156 -28.808594 14.207031 -34.175781 C 14.601562 -33.625 14.996094 -32.992188 15.46875 -32.441406 L 29.203125 -7.894531 L 29.675781 -5.210938 C 30.070312 -3.15625 30.546875 -0.710938 32.675781 0.238281 C 33.148438 0.472656 33.78125 0.550781 34.253906 0.238281 Z M 38.675781 -2.683594 C 38.753906 -3.789062 38.675781 -5.523438 38.597656 -6.078125 C 38.675781 -20.046875 36.9375 -34.019531 34.097656 -47.75 C 33.9375 -48.542969 32.992188 -48.542969 32.597656 -48.066406 C 32.28125 -47.75 32.28125 -47.4375 32.359375 -47.199219 C 35.597656 -32.519531 37.332031 -17.523438 38.359375 -2.445312 C 38.4375 -2.605469 38.515625 -2.683594 38.675781 -2.683594 Z M 4.105469 -8.445312 C 4.421875 -5.050781 4.734375 -5.210938 4.734375 -5.210938 L 4.023438 -22.96875 C 3.867188 -28.492188 3.710938 -34.019531 3.628906 -39.464844 C 3.550781 -41.988281 3.472656 -44.515625 3.550781 -47.042969 C 3 -45.777344 2.839844 -44.277344 2.921875 -42.9375 C 3 -37.253906 3.078125 -31.570312 3.316406 -25.96875 C 3.550781 -20.285156 3.628906 -14.050781 4.105469 -8.445312 Z M 12.945312 -12.3125 C 13.023438 -11.367188 13.101562 -10.496094 13.101562 -9.550781 C 13.261719 -7.972656 13.339844 -6.394531 13.417969 -4.894531 C 13.496094 -4.183594 13.261719 -3 12.785156 -2.210938 C 13.261719 -4.183594 12.472656 -6 12.472656 -7.261719 L 12.550781 -11.996094 C 12.628906 -12.074219 12.707031 -12.074219 12.707031 -12.074219 Z M 12.945312 -12.3125 "/></g></g></g><g fill="#04080b" fill-opacity="1"><g transform="translate(236.957453, 113.557203)"><g><path d="M 32.816406 -30.976562 C 32.644531 -33.371094 32.394531 -35.851562 31.90625 -38.273438 C 31.332031 -40.625 30.433594 -42.929688 29.527344 -45.152344 C 29.199219 -45.894531 28.429688 -46.125 27.777344 -45.949219 C 27.324219 -47.019531 26.660156 -48.429688 25.695312 -49.152344 C 24.804688 -49.789062 23.46875 -49.910156 22.34375 -49.777344 C 21.332031 -49.949219 20.28125 -49.730469 19.222656 -49.433594 C 16.65625 -49.113281 14.546875 -46.851562 12.941406 -44.066406 C 12.785156 -44.082031 12.554688 -44.179688 12.3125 -44.125 C 12.707031 -44.960938 13.101562 -45.796875 13.574219 -46.625 C 13.960938 -47.378906 14.503906 -48.121094 15.046875 -48.867188 C 15.140625 -49.015625 14.992188 -49.109375 14.898438 -48.957031 C 13.402344 -47.351562 12.207031 -45.5625 11.234375 -43.589844 C 11.148438 -43.519531 11.140625 -43.441406 11.0625 -43.445312 C 4.984375 -35.128906 2.613281 -24.886719 3.257812 -14.679688 C 3.613281 -9.972656 4.75 -5.109375 8.15625 -1.625 C 10.117188 0.300781 12.9375 1.511719 15.578125 1.277344 C 16.433594 1.4375 17.296875 1.515625 18.171875 1.515625 C 20.398438 1.40625 22.300781 0.550781 23.933594 -0.804688 C 25.121094 -1.648438 26.164062 -2.660156 27.136719 -3.757812 C 30.070312 -7.214844 31.222656 -11.941406 32.011719 -16.230469 C 33.019531 -21.128906 33.15625 -26.03125 32.816406 -30.976562 Z M 20.886719 -9.011719 C 20.5625 -8.089844 20.089844 -7.261719 19.539062 -6.441406 C 18.988281 -5.621094 18.214844 -4.976562 17.242188 -4.75 C 13.769531 -4.039062 11.316406 -7.515625 10.296875 -10.226562 C 11.039062 -9.683594 12.039062 -9.351562 13.003906 -9.5 C 13.324219 -9.550781 13.652344 -9.679688 13.90625 -9.816406 C 13.195312 -15.03125 13.0625 -20.433594 13.789062 -25.757812 C 14.113281 -27.550781 14.4375 -29.34375 14.917969 -31.121094 C 15.003906 -31.195312 15.011719 -31.273438 15.105469 -31.421875 C 16.03125 -34.585938 17.347656 -37.714844 19.109375 -40.484375 C 19.476562 -41.007812 19.847656 -41.605469 20.347656 -41.878906 C 15 -32.859375 13.777344 -21.320312 15.035156 -10.898438 C 15.492188 -11.570312 15.644531 -12.347656 15.566406 -13.226562 C 15.160156 -19.132812 15.640625 -25.191406 16.882812 -30.941406 C 17.550781 -33.890625 18.527344 -36.734375 19.652344 -39.484375 C 19.960938 -40.25 20.371094 -41.242188 20.921875 -42.0625 L 21.3125 -42.027344 C 21.390625 -42.019531 21.542969 -41.925781 21.613281 -41.839844 C 21.878906 -41.261719 22.054688 -40.609375 22.238281 -40.039062 C 22.667969 -38.652344 23.007812 -37.191406 23.347656 -35.734375 C 23.484375 -34.613281 23.53125 -33.417969 23.660156 -32.21875 C 23.933594 -28.308594 23.796875 -24.28125 23.75 -20.320312 C 23.394531 -16.46875 22.5625 -12.582031 20.886719 -9.011719 Z M 20.886719 -9.011719 "/></g></g></g><g fill="#39ff14" fill-opacity="1"><g transform="translate(242.051486, 115.672842)"><g><path d="M 32.816406 -30.976562 C 32.644531 -33.371094 32.394531 -35.851562 31.90625 -38.273438 C 31.332031 -40.625 30.433594 -42.929688 29.527344 -45.152344 C 29.199219 -45.894531 28.429688 -46.125 27.777344 -45.949219 C 27.324219 -47.019531 26.660156 -48.429688 25.695312 -49.152344 C 24.804688 -49.789062 23.46875 -49.910156 22.34375 -49.777344 C 21.332031 -49.949219 20.28125 -49.730469 19.222656 -49.433594 C 16.65625 -49.113281 14.546875 -46.851562 12.941406 -44.066406 C 12.785156 -44.082031 12.554688 -44.179688 12.3125 -44.125 C 12.707031 -44.960938 13.101562 -45.796875 13.574219 -46.625 C 13.960938 -47.378906 14.503906 -48.121094 15.046875 -48.867188 C 15.140625 -49.015625 14.992188 -49.109375 14.898438 -48.957031 C 13.402344 -47.351562 12.207031 -45.5625 11.234375 -43.589844 C 11.148438 -43.519531 11.140625 -43.441406 11.0625 -43.445312 C 4.984375 -35.128906 2.613281 -24.886719 3.257812 -14.679688 C 3.613281 -9.972656 4.75 -5.109375 8.15625 -1.625 C 10.117188 0.300781 12.9375 1.511719 15.578125 1.277344 C 16.433594 1.4375 17.296875 1.515625 18.171875 1.515625 C 20.398438 1.40625 22.300781 0.550781 23.933594 -0.804688 C 25.121094 -1.648438 26.164062 -2.660156 27.136719 -3.757812 C 30.070312 -7.214844 31.222656 -11.941406 32.011719 -16.230469 C 33.019531 -21.128906 33.15625 -26.03125 32.816406 -30.976562 Z M 20.886719 -9.011719 C 20.5625 -8.089844 20.089844 -7.261719 19.539062 -6.441406 C 18.988281 -5.621094 18.214844 -4.976562 17.242188 -4.75 C 13.769531 -4.039062 11.316406 -7.515625 10.296875 -10.226562 C 11.039062 -9.683594 12.039062 -9.351562 13.003906 -9.5 C 13.324219 -9.550781 13.652344 -9.679688 13.90625 -9.816406 C 13.195312 -15.03125 13.0625 -20.433594 13.789062 -25.757812 C 14.113281 -27.550781 14.4375 -29.34375 14.917969 -31.121094 C 15.003906 -31.195312 15.011719 -31.273438 15.105469 -31.421875 C 16.03125 -34.585938 17.347656 -37.714844 19.109375 -40.484375 C 19.476562 -41.007812 19.847656 -41.605469 20.347656 -41.878906 C 15 -32.859375 13.777344 -21.320312 15.035156 -10.898438 C 15.492188 -11.570312 15.644531 -12.347656 15.566406 -13.226562 C 15.160156 -19.132812 15.640625 -25.191406 16.882812 -30.941406 C 17.550781 -33.890625 18.527344 -36.734375 19.652344 -39.484375 C 19.960938 -40.25 20.371094 -41.242188 20.921875 -42.0625 L 21.3125 -42.027344 C 21.390625 -42.019531 21.542969 -41.925781 21.613281 -41.839844 C 21.878906 -41.261719 22.054688 -40.609375 22.238281 -40.039062 C 22.667969 -38.652344 23.007812 -37.191406 23.347656 -35.734375 C 23.484375 -34.613281 23.53125 -33.417969 23.660156 -32.21875 C 23.933594 -28.308594 23.796875 -24.28125 23.75 -20.320312 C 23.394531 -16.46875 22.5625 -12.582031 20.886719 -9.011719 Z M 20.886719 -9.011719 "/></g></g></g><g fill="#04080b" fill-opacity="1"><g transform="translate(71.282305, 118.72093)"><g><path d="M 33.824219 -44.503906 C 33.824219 -46.082031 33.652344 -47.972656 33.183594 -49.449219 C 32.714844 -50.925781 32.3125 -52.644531 31.15625 -53.695312 C 30.578125 -54.140625 29.707031 -54.175781 29.175781 -53.753906 C 27.636719 -54.546875 25.886719 -54.777344 24.09375 -54.292969 C 24.820312 -41.210938 24.4375 -28.234375 18.003906 -14.5625 C 17.996094 -14.71875 17.886719 -15.347656 17.804688 -15.421875 C 22.734375 -27.519531 24.351562 -41.109375 23.160156 -54.007812 C 23.027344 -55.03125 21.53125 -54.957031 21.582031 -53.929688 C 22.179688 -46.691406 21.832031 -39.324219 20.847656 -32.085938 C 20.070312 -27.070312 18.816406 -22.109375 17.316406 -17.292969 C 17.023438 -18.386719 14.382812 -30.1875 13.609375 -33.070312 C 12.609375 -37.289062 11.449219 -41.574219 10.136719 -45.699219 C 9.027344 -48.960938 6.804688 -52.40625 2.925781 -52.53125 C -1.976562 -52.605469 0.0898438 -45.992188 1.164062 -43.4375 L 0.378906 -44.898438 C 0.210938 -45.128906 -0.175781 -44.949219 -0.0820312 -44.640625 C 0.460938 -41.664062 1.476562 -38.710938 2.257812 -35.746094 C 3.035156 -32.785156 3.738281 -29.738281 4.441406 -26.769531 C 5.140625 -23.800781 5.761719 -20.828125 6.304688 -17.855469 C 6.4375 -16.753906 6.648438 -15.738281 6.859375 -14.640625 C 6.878906 -14.246094 6.902344 -13.773438 7.003906 -13.304688 C 7.085938 -13.230469 7.09375 -13.074219 7.097656 -12.996094 C 7.335938 -11.425781 7.492188 -9.851562 7.488281 -8.351562 C 7.554688 -7.011719 8.304688 -6.179688 9.351562 -5.835938 C 9.628906 -4.980469 9.910156 -4.125 10.265625 -3.273438 C 13.421875 4.550781 23.125 -6.914062 25.101562 -10.09375 C 25.753906 -11.234375 26.40625 -12.449219 26.980469 -13.585938 C 27.191406 -14.148438 27.476562 -14.714844 27.765625 -15.285156 C 27.757812 -15.441406 27.832031 -15.523438 27.902344 -15.6875 C 29.019531 -18.664062 30.210938 -21.726562 31.246094 -24.78125 C 32.277344 -27.832031 32.820312 -31.257812 33.292969 -34.441406 C 33.761719 -37.785156 33.992188 -41.113281 33.824219 -44.503906 Z M 33.824219 -44.503906 "/></g></g></g><g fill="#39ff14" fill-opacity="1"><g transform="translate(75.868884, 116.251607)"><g><path d="M 33.824219 -44.503906 C 33.824219 -46.082031 33.652344 -47.972656 33.183594 -49.449219 C 32.714844 -50.925781 32.3125 -52.644531 31.15625 -53.695312 C 30.578125 -54.140625 29.707031 -54.175781 29.175781 -53.753906 C 27.636719 -54.546875 25.886719 -54.777344 24.09375 -54.292969 C 24.820312 -41.210938 24.4375 -28.234375 18.003906 -14.5625 C 17.996094 -14.71875 17.886719 -15.347656 17.804688 -15.421875 C 22.734375 -27.519531 24.351562 -41.109375 23.160156 -54.007812 C 23.027344 -55.03125 21.53125 -54.957031 21.582031 -53.929688 C 22.179688 -46.691406 21.832031 -39.324219 20.847656 -32.085938 C 20.070312 -27.070312 18.816406 -22.109375 17.316406 -17.292969 C 17.023438 -18.386719 14.382812 -30.1875 13.609375 -33.070312 C 12.609375 -37.289062 11.449219 -41.574219 10.136719 -45.699219 C 9.027344 -48.960938 6.804688 -52.40625 2.925781 -52.53125 C -1.976562 -52.605469 0.0898438 -45.992188 1.164062 -43.4375 L 0.378906 -44.898438 C 0.210938 -45.128906 -0.175781 -44.949219 -0.0820312 -44.640625 C 0.460938 -41.664062 1.476562 -38.710938 2.257812 -35.746094 C 3.035156 -32.785156 3.738281 -29.738281 4.441406 -26.769531 C 5.140625 -23.800781 5.761719 -20.828125 6.304688 -17.855469 C 6.4375 -16.753906 6.648438 -15.738281 6.859375 -14.640625 C 6.878906 -14.246094 6.902344 -13.773438 7.003906 -13.304688 C 7.085938 -13.230469 7.09375 -13.074219 7.097656 -12.996094 C 7.335938 -11.425781 7.492188 -9.851562 7.488281 -8.351562 C 7.554688 -7.011719 8.304688 -6.179688 9.351562 -5.835938 C 9.628906 -4.980469 9.910156 -4.125 10.265625 -3.273438 C 13.421875 4.550781 23.125 -6.914062 25.101562 -10.09375 C 25.753906 -11.234375 26.40625 -12.449219 26.980469 -13.585938 C 27.191406 -14.148438 27.476562 -14.714844 27.765625 -15.285156 C 27.757812 -15.441406 27.832031 -15.523438 27.902344 -15.6875 C 29.019531 -18.664062 30.210938 -21.726562 31.246094 -24.78125 C 32.277344 -27.832031 32.820312 -31.257812 33.292969 -34.441406 C 33.761719 -37.785156 33.992188 -41.113281 33.824219 -44.503906 Z M 33.824219 -44.503906 "/></g></g></g><g fill="#04080b" fill-opacity="1"><g transform="translate(103.482472, 111.818409)"><g><path d="M 10.527344 -40.363281 C 10.339844 -40.242188 10.289062 -40.011719 10.425781 -39.902344 C 12.289062 -40.308594 14.136719 -40.636719 16.027344 -40.796875 C 21.503906 -41.476562 27 -41.507812 32.496094 -41.539062 C 35.652344 -41.585938 38.90625 -41.695312 42.082031 -41.820312 C 41.386719 -41.96875 40.691406 -42.121094 39.980469 -42.191406 C 36.613281 -42.671875 33.316406 -42.734375 30.019531 -42.796875 L 28.144531 -42.714844 C 22.273438 -42.441406 16.199219 -41.972656 10.527344 -40.363281 Z M 47.070312 0.34375 C 48.148438 -0.152344 48.996094 -1.101562 49.21875 -2.507812 C 49.855469 -6.972656 49.847656 -14.078125 43.640625 -14.121094 C 42.742188 -14.070312 41.886719 -13.851562 40.988281 -13.800781 L 37.777344 -13.519531 C 35.792969 -13.300781 33.792969 -13.003906 31.792969 -12.707031 C 30.550781 -12.570312 29.292969 -12.355469 28.039062 -12.140625 L 20.929688 -11.003906 C 19.085938 -10.675781 17.238281 -10.34375 15.375 -9.9375 L 15.109375 -9.832031 C 15.140625 -9.988281 15.160156 -10.0625 15.175781 -10.140625 L 15.789062 -15.257812 C 18.183594 -15.875 20.5 -16.507812 22.933594 -16.953125 C 26.894531 -17.714844 30.769531 -18.09375 34.6875 -18.300781 C 36.640625 -18.367188 38.652344 -18.339844 40.570312 -18.25 C 42.429688 -18.253906 44.109375 -17.8125 45.894531 -18.234375 C 47.433594 -18.632812 48.722656 -20.132812 48.730469 -21.664062 C 48.742188 -22.46875 48.445312 -23.339844 47.832031 -23.875 C 47.757812 -23.890625 47.757812 -23.890625 47.695312 -23.984375 C 47.683594 -24.308594 47.597656 -24.652344 47.507812 -24.992188 C 47.464844 -25.164062 47.4375 -25.414062 47.332031 -25.675781 C 46.648438 -27.761719 44.8125 -28.238281 42.867188 -28.574219 C 41.925781 -28.695312 41.058594 -28.800781 40.101562 -28.84375 L 39.046875 -28.828125 C 36.429688 -28.664062 33.734375 -28.515625 31.132812 -28.429688 C 26.386719 -27.753906 21.742188 -26.8125 17.023438 -25.890625 C 17.105469 -26.277344 17.242188 -29.152344 17.328125 -29.941406 L 17.515625 -30.0625 C 20.125 -30.550781 22.792969 -30.949219 25.445312 -31.265625 C 26.375 -31.46875 34.511719 -32.144531 38.679688 -32.378906 C 38.835938 -32.347656 39.007812 -32.390625 39.175781 -32.433594 C 41.050781 -32.515625 42.941406 -32.675781 44.757812 -32.851562 L 48.863281 -33.179688 C 49.503906 -34.65625 49.621094 -36.328125 49.425781 -38.0625 C 49.109375 -38.453125 48.726562 -38.941406 48.410156 -39.332031 L 47.273438 -40.058594 C 46.84375 -40.3125 46.320312 -40.507812 45.796875 -40.699219 C 41.550781 -40.480469 37.304688 -40.261719 33.015625 -40.214844 C 27.539062 -40.261719 22.042969 -40.230469 16.566406 -39.550781 C 14.832031 -39.359375 13 -39.105469 11.230469 -38.757812 C 11.105469 -38.542969 10.898438 -38.347656 10.789062 -38.207031 C 9.511719 -37.515625 8.566406 -36.507812 8.082031 -34.996094 C 7.644531 -33.71875 7.792969 -32.152344 8.503906 -30.949219 L 7.539062 -21.953125 L 6.476562 -12.492188 C 6.128906 -9.742188 5.6875 -6.933594 5.585938 -4.210938 C 4.460938 -2.351562 5.277344 0.246094 7.039062 1.429688 C 6.878906 1.800781 6.8125 2.109375 6.882812 2.527344 C 7.21875 3.972656 8.59375 4.347656 9.875 4.382812 C 10.183594 4.449219 10.664062 4.46875 10.664062 4.46875 C 10.570312 4.53125 15.25 4.164062 16.308594 3.746094 L 16.402344 3.683594 C 17.335938 3.480469 18.25 3.355469 19.183594 3.152344 C 19.351562 3.105469 19.601562 3.078125 19.773438 3.035156 L 19.847656 3.050781 C 22.628906 2.519531 25.449219 2.15625 28.273438 1.792969 C 34.167969 1.042969 40.191406 0.800781 46.132812 0.949219 C 46.613281 0.96875 46.910156 0.710938 47.070312 0.34375 Z M 31.910156 -20.027344 L 31.9375 -19.78125 C 31.441406 -19.726562 31.023438 -19.65625 30.511719 -19.523438 C 26.320312 -18.808594 21.992188 -18.203125 17.796875 -17.085938 C 18.53125 -17.492188 19.160156 -18.167969 19.496094 -18.980469 C 21.046875 -19.050781 22.609375 -19.199219 24.253906 -19.332031 C 26.8125 -19.589844 29.351562 -19.769531 31.910156 -20.027344 Z M 9.121094 3.007812 C 10.75 2.953125 12.347656 2.652344 13.929688 2.425781 C 15.496094 2.277344 17 2.035156 18.503906 1.792969 L 18.472656 1.949219 C 17.183594 2.316406 15.890625 2.6875 14.523438 3.039062 C 13.917969 3.230469 13.234375 3.40625 12.550781 3.582031 C 12.457031 3.644531 12.378906 3.628906 12.300781 3.609375 C 12.054688 3.636719 10.246094 3.410156 9.121094 3.007812 Z M 9.121094 3.007812 "/></g></g></g><g fill="#39ff14" fill-opacity="1"><g transform="translate(109.15802, 109.607327)"><g><path d="M 10.527344 -40.363281 C 10.339844 -40.242188 10.289062 -40.011719 10.425781 -39.902344 C 12.289062 -40.308594 14.136719 -40.636719 16.027344 -40.796875 C 21.503906 -41.476562 27 -41.507812 32.496094 -41.539062 C 35.652344 -41.585938 38.90625 -41.695312 42.082031 -41.820312 C 41.386719 -41.96875 40.691406 -42.121094 39.980469 -42.191406 C 36.613281 -42.671875 33.316406 -42.734375 30.019531 -42.796875 L 28.144531 -42.714844 C 22.273438 -42.441406 16.199219 -41.972656 10.527344 -40.363281 Z M 47.070312 0.34375 C 48.148438 -0.152344 48.996094 -1.101562 49.21875 -2.507812 C 49.855469 -6.972656 49.847656 -14.078125 43.640625 -14.121094 C 42.742188 -14.070312 41.886719 -13.851562 40.988281 -13.800781 L 37.777344 -13.519531 C 35.792969 -13.300781 33.792969 -13.003906 31.792969 -12.707031 C 30.550781 -12.570312 29.292969 -12.355469 28.039062 -12.140625 L 20.929688 -11.003906 C 19.085938 -10.675781 17.238281 -10.34375 15.375 -9.9375 L 15.109375 -9.832031 C 15.140625 -9.988281 15.160156 -10.0625 15.175781 -10.140625 L 15.789062 -15.257812 C 18.183594 -15.875 20.5 -16.507812 22.933594 -16.953125 C 26.894531 -17.714844 30.769531 -18.09375 34.6875 -18.300781 C 36.640625 -18.367188 38.652344 -18.339844 40.570312 -18.25 C 42.429688 -18.253906 44.109375 -17.8125 45.894531 -18.234375 C 47.433594 -18.632812 48.722656 -20.132812 48.730469 -21.664062 C 48.742188 -22.46875 48.445312 -23.339844 47.832031 -23.875 C 47.757812 -23.890625 47.757812 -23.890625 47.695312 -23.984375 C 47.683594 -24.308594 47.597656 -24.652344 47.507812 -24.992188 C 47.464844 -25.164062 47.4375 -25.414062 47.332031 -25.675781 C 46.648438 -27.761719 44.8125 -28.238281 42.867188 -28.574219 C 41.925781 -28.695312 41.058594 -28.800781 40.101562 -28.84375 L 39.046875 -28.828125 C 36.429688 -28.664062 33.734375 -28.515625 31.132812 -28.429688 C 26.386719 -27.753906 21.742188 -26.8125 17.023438 -25.890625 C 17.105469 -26.277344 17.242188 -29.152344 17.328125 -29.941406 L 17.515625 -30.0625 C 20.125 -30.550781 22.792969 -30.949219 25.445312 -31.265625 C 26.375 -31.46875 34.511719 -32.144531 38.679688 -32.378906 C 38.835938 -32.347656 39.007812 -32.390625 39.175781 -32.433594 C 41.050781 -32.515625 42.941406 -32.675781 44.757812 -32.851562 L 48.863281 -33.179688 C 49.503906 -34.65625 49.621094 -36.328125 49.425781 -38.0625 C 49.109375 -38.453125 48.726562 -38.941406 48.410156 -39.332031 L 47.273438 -40.058594 C 46.84375 -40.3125 46.320312 -40.507812 45.796875 -40.699219 C 41.550781 -40.480469 37.304688 -40.261719 33.015625 -40.214844 C 27.539062 -40.261719 22.042969 -40.230469 16.566406 -39.550781 C 14.832031 -39.359375 13 -39.105469 11.230469 -38.757812 C 11.105469 -38.542969 10.898438 -38.347656 10.789062 -38.207031 C 9.511719 -37.515625 8.566406 -36.507812 8.082031 -34.996094 C 7.644531 -33.71875 7.792969 -32.152344 8.503906 -30.949219 L 7.539062 -21.953125 L 6.476562 -12.492188 C 6.128906 -9.742188 5.6875 -6.933594 5.585938 -4.210938 C 4.460938 -2.351562 5.277344 0.246094 7.039062 1.429688 C 6.878906 1.800781 6.8125 2.109375 6.882812 2.527344 C 7.21875 3.972656 8.59375 4.347656 9.875 4.382812 C 10.183594 4.449219 10.664062 4.46875 10.664062 4.46875 C 10.570312 4.53125 15.25 4.164062 16.308594 3.746094 L 16.402344 3.683594 C 17.335938 3.480469 18.25 3.355469 19.183594 3.152344 C 19.351562 3.105469 19.601562 3.078125 19.773438 3.035156 L 19.847656 3.050781 C 22.628906 2.519531 25.449219 2.15625 28.273438 1.792969 C 34.167969 1.042969 40.191406 0.800781 46.132812 0.949219 C 46.613281 0.96875 46.910156 0.710938 47.070312 0.34375 Z M 31.910156 -20.027344 L 31.9375 -19.78125 C 31.441406 -19.726562 31.023438 -19.65625 30.511719 -19.523438 C 26.320312 -18.808594 21.992188 -18.203125 17.796875 -17.085938 C 18.53125 -17.492188 19.160156 -18.167969 19.496094 -18.980469 C 21.046875 -19.050781 22.609375 -19.199219 24.253906 -19.332031 C 26.8125 -19.589844 29.351562 -19.769531 31.910156 -20.027344 Z M 9.121094 3.007812 C 10.75 2.953125 12.347656 2.652344 13.929688 2.425781 C 15.496094 2.277344 17 2.035156 18.503906 1.792969 L 18.472656 1.949219 C 17.183594 2.316406 15.890625 2.6875 14.523438 3.039062 C 13.917969 3.230469 13.234375 3.40625 12.550781 3.582031 C 12.457031 3.644531 12.378906 3.628906 12.300781 3.609375 C 12.054688 3.636719 10.246094 3.410156 9.121094 3.007812 Z M 9.121094 3.007812 "/></g></g></g><g fill="#04080b" fill-opacity="1"><g transform="translate(157.383239, 115.368751)"><g><path d="M 34.253906 0.238281 C 35.753906 0.238281 37.015625 -0.710938 37.886719 -1.894531 C 37.253906 -11.601562 36.386719 -21.390625 34.808594 -31.019531 C 34.097656 -35.753906 33.308594 -40.570312 32.046875 -45.148438 C 31.652344 -46.648438 31.175781 -48.148438 30.859375 -49.644531 C 30.703125 -49.804688 30.546875 -49.960938 30.308594 -50.039062 C 28.96875 -50.988281 26.597656 -51.144531 25.652344 -49.410156 C 25.652344 -49.332031 25.574219 -49.332031 25.574219 -49.25 C 25.019531 -48.9375 24.546875 -48.382812 24.230469 -47.832031 C 23.363281 -46.253906 24.074219 -44.753906 24.46875 -43.253906 C 25.257812 -40.410156 25.730469 -37.570312 26.285156 -34.730469 C 26.992188 -30.703125 27.863281 -26.519531 28.257812 -22.574219 L 26.992188 -25.019531 C 26.992188 -25.257812 26.992188 -25.492188 26.835938 -25.808594 C 25.257812 -29.046875 23.601562 -32.203125 21.785156 -35.28125 C 19.652344 -39.148438 17.441406 -42.9375 14.757812 -46.488281 C 13.261719 -48.460938 8.761719 -53.117188 6.3125 -49.882812 C 5.917969 -49.332031 5.683594 -48.699219 5.683594 -48.066406 C 5.128906 -47.988281 4.578125 -47.671875 4.183594 -47.355469 C 3.945312 -43.964844 4.105469 -40.492188 4.183594 -37.015625 C 4.339844 -31.652344 4.421875 -26.203125 4.65625 -20.835938 C 4.894531 -14.207031 5.128906 -7.578125 5.523438 -0.945312 C 6.078125 -0.238281 6.789062 0.316406 7.734375 0.550781 C 9.472656 1.105469 11.285156 0.472656 12.234375 -1.105469 C 15.46875 -1.578125 14.601562 -6.15625 14.523438 -8.601562 C 14.445312 -11.761719 14.363281 -14.917969 14.207031 -18.074219 C 14.207031 -23.441406 14.285156 -28.808594 14.207031 -34.175781 C 14.601562 -33.625 14.996094 -32.992188 15.46875 -32.441406 L 29.203125 -7.894531 L 29.675781 -5.210938 C 30.070312 -3.15625 30.546875 -0.710938 32.675781 0.238281 C 33.148438 0.472656 33.78125 0.550781 34.253906 0.238281 Z M 38.675781 -2.683594 C 38.753906 -3.789062 38.675781 -5.523438 38.597656 -6.078125 C 38.675781 -20.046875 36.9375 -34.019531 34.097656 -47.75 C 33.9375 -48.542969 32.992188 -48.542969 32.597656 -48.066406 C 32.28125 -47.75 32.28125 -47.4375 32.359375 -47.199219 C 35.597656 -32.519531 37.332031 -17.523438 38.359375 -2.445312 C 38.4375 -2.605469 38.515625 -2.683594 38.675781 -2.683594 Z M 4.105469 -8.445312 C 4.421875 -5.050781 4.734375 -5.210938 4.734375 -5.210938 L 4.023438 -22.96875 C 3.867188 -28.492188 3.710938 -34.019531 3.628906 -39.464844 C 3.550781 -41.988281 3.472656 -44.515625 3.550781 -47.042969 C 3 -45.777344 2.839844 -44.277344 2.921875 -42.9375 C 3 -37.253906 3.078125 -31.570312 3.316406 -25.96875 C 3.550781 -20.285156 3.628906 -14.050781 4.105469 -8.445312 Z M 12.945312 -12.3125 C 13.023438 -11.367188 13.101562 -10.496094 13.101562 -9.550781 C 13.261719 -7.972656 13.339844 -6.394531 13.417969 -4.894531 C 13.496094 -4.183594 13.261719 -3 12.785156 -2.210938 C 13.261719 -4.183594 12.472656 -6 12.472656 -7.261719 L 12.550781 -11.996094 C 12.628906 -12.074219 12.707031 -12.074219 12.707031 -12.074219 Z M 12.945312 -12.3125 "/></g></g></g><g fill="#39ff14" fill-opacity="1"><g transform="translate(161.151316, 115.368751)"><g><path d="M 34.253906 0.238281 C 35.753906 0.238281 37.015625 -0.710938 37.886719 -1.894531 C 37.253906 -11.601562 36.386719 -21.390625 34.808594 -31.019531 C 34.097656 -35.753906 33.308594 -40.570312 32.046875 -45.148438 C 31.652344 -46.648438 31.175781 -48.148438 30.859375 -49.644531 C 30.703125 -49.804688 30.546875 -49.960938 30.308594 -50.039062 C 28.96875 -50.988281 26.597656 -51.144531 25.652344 -49.410156 C 25.652344 -49.332031 25.574219 -49.332031 25.574219 -49.25 C 25.019531 -48.9375 24.546875 -48.382812 24.230469 -47.832031 C 23.363281 -46.253906 24.074219 -44.753906 24.46875 -43.253906 C 25.257812 -40.410156 25.730469 -37.570312 26.285156 -34.730469 C 26.992188 -30.703125 27.863281 -26.519531 28.257812 -22.574219 L 26.992188 -25.019531 C 26.992188 -25.257812 26.992188 -25.492188 26.835938 -25.808594 C 25.257812 -29.046875 23.601562 -32.203125 21.785156 -35.28125 C 19.652344 -39.148438 17.441406 -42.9375 14.757812 -46.488281 C 13.261719 -48.460938 8.761719 -53.117188 6.3125 -49.882812 C 5.917969 -49.332031 5.683594 -48.699219 5.683594 -48.066406 C 5.128906 -47.988281 4.578125 -47.671875 4.183594 -47.355469 C 3.945312 -43.964844 4.105469 -40.492188 4.183594 -37.015625 C 4.339844 -31.652344 4.421875 -26.203125 4.65625 -20.835938 C 4.894531 -14.207031 5.128906 -7.578125 5.523438 -0.945312 C 6.078125 -0.238281 6.789062 0.316406 7.734375 0.550781 C 9.472656 1.105469 11.285156 0.472656 12.234375 -1.105469 C 15.46875 -1.578125 14.601562 -6.15625 14.523438 -8.601562 C 14.445312 -11.761719 14.363281 -14.917969 14.207031 -18.074219 C 14.207031 -23.441406 14.285156 -28.808594 14.207031 -34.175781 C 14.601562 -33.625 14.996094 -32.992188 15.46875 -32.441406 L 29.203125 -7.894531 L 29.675781 -5.210938 C 30.070312 -3.15625 30.546875 -0.710938 32.675781 0.238281 C 33.148438 0.472656 33.78125 0.550781 34.253906 0.238281 Z M 38.675781 -2.683594 C 38.753906 -3.789062 38.675781 -5.523438 38.597656 -6.078125 C 38.675781 -20.046875 36.9375 -34.019531 34.097656 -47.75 C 33.9375 -48.542969 32.992188 -48.542969 32.597656 -48.066406 C 32.28125 -47.75 32.28125 -47.4375 32.359375 -47.199219 C 35.597656 -32.519531 37.332031 -17.523438 38.359375 -2.445312 C 38.4375 -2.605469 38.515625 -2.683594 38.675781 -2.683594 Z M 4.105469 -8.445312 C 4.421875 -5.050781 4.734375 -5.210938 4.734375 -5.210938 L 4.023438 -22.96875 C 3.867188 -28.492188 3.710938 -34.019531 3.628906 -39.464844 C 3.550781 -41.988281 3.472656 -44.515625 3.550781 -47.042969 C 3 -45.777344 2.839844 -44.277344 2.921875 -42.9375 C 3 -37.253906 3.078125 -31.570312 3.316406 -25.96875 C 3.550781 -20.285156 3.628906 -14.050781 4.105469 -8.445312 Z M 12.945312 -12.3125 C 13.023438 -11.367188 13.101562 -10.496094 13.101562 -9.550781 C 13.261719 -7.972656 13.339844 -6.394531 13.417969 -4.894531 C 13.496094 -4.183594 13.261719 -3 12.785156 -2.210938 C 13.261719 -4.183594 12.472656 -6 12.472656 -7.261719 L 12.550781 -11.996094 C 12.628906 -12.074219 12.707031 -12.074219 12.707031 -12.074219 Z M 12.945312 -12.3125 "/></g></g></g><g fill="#04080b" fill-opacity="1"><g transform="translate(194.443654, 115.241062)"><g><path d="M 43.359375 -48.113281 C 45.226562 -48.96875 45.195312 -51.972656 43.34375 -52.929688 C 43.179688 -53.082031 43.019531 -53.15625 42.859375 -53.230469 C 43.015625 -53.3125 43.25 -53.320312 43.410156 -53.328125 C 44.191406 -53.515625 43.90625 -54.847656 43.199219 -54.742188 C 42.019531 -54.542969 40.839844 -54.417969 39.664062 -54.21875 C 39.1875 -54.28125 38.714844 -54.183594 38.320312 -54.167969 C 37.535156 -54.0625 36.75 -53.953125 35.886719 -53.765625 C 24.953125 -52.417969 13.917969 -51.78125 2.847656 -52.011719 C 2.609375 -52.082031 2.546875 -51.605469 2.78125 -51.613281 C 7.070312 -51.058594 11.347656 -50.738281 15.617188 -50.65625 C 15.621094 -50.578125 15.542969 -50.496094 15.546875 -50.417969 C 11.207031 -50.261719 6.933594 -50.421875 2.582031 -50.65625 C 0.839844 -50.75 -0.683594 -49.195312 -1.101562 -47.601562 C -1.503906 -45.6875 -0.488281 -43.828125 1.121094 -43.019531 C 1.640625 -41.773438 2.707031 -40.707031 3.757812 -40.035156 C 5.210938 -39.21875 6.953125 -39.042969 8.621094 -38.867188 C 10.675781 -38.785156 12.808594 -38.785156 14.941406 -38.859375 C 15.964844 -38.898438 16.992188 -38.9375 18.015625 -38.972656 L 18.109375 -36.449219 L 18.078125 -32.972656 C 18.070312 -28.863281 17.980469 -24.75 17.890625 -20.71875 C 17.878906 -16.6875 17.949219 -12.582031 18.332031 -8.566406 C 18.601562 -5.496094 19.445312 -1.894531 22.796875 -0.988281 C 24.46875 -0.574219 26.410156 -1.59375 26.898438 -3.347656 C 27.394531 -4.945312 27.390625 -7.160156 27.65625 -8.589844 L 27.765625 -5.59375 C 27.726562 -4.484375 27.765625 -3.378906 27.726562 -2.273438 L 27.734375 -2.117188 C 29.113281 -3.273438 29.359375 -5.175781 29.449219 -7.074219 C 29.269531 -9.835938 29.011719 -12.589844 28.832031 -15.347656 C 28.65625 -20.160156 28.402344 -24.972656 28.226562 -29.785156 C 28.101562 -33.257812 28.054688 -36.730469 27.925781 -40.203125 C 31.929688 -40.902344 35.851562 -41.753906 39.84375 -42.691406 C 40.082031 -42.699219 40.234375 -42.863281 40.386719 -43.027344 C 40.777344 -43.121094 41.246094 -43.292969 41.550781 -43.542969 C 42.78125 -44.457031 43.046875 -45.886719 43.074219 -47.3125 C 43.222656 -47.554688 43.292969 -47.792969 43.359375 -48.113281 Z M 8.550781 -40.761719 C 6.652344 -40.773438 4.582031 -41.25 3.277344 -42.386719 C 6.386719 -41.550781 9.566406 -41.113281 12.730469 -40.914062 C 11.316406 -40.785156 9.894531 -40.730469 8.550781 -40.761719 Z M 8.550781 -40.761719 "/></g></g></g><g fill="#39ff14" fill-opacity="1"><g transform="translate(200.119202, 116.971482)"><g><path d="M 43.359375 -48.113281 C 45.226562 -48.96875 45.195312 -51.972656 43.34375 -52.929688 C 43.179688 -53.082031 43.019531 -53.15625 42.859375 -53.230469 C 43.015625 -53.3125 43.25 -53.320312 43.410156 -53.328125 C 44.191406 -53.515625 43.90625 -54.847656 43.199219 -54.742188 C 42.019531 -54.542969 40.839844 -54.417969 39.664062 -54.21875 C 39.1875 -54.28125 38.714844 -54.183594 38.320312 -54.167969 C 37.535156 -54.0625 36.75 -53.953125 35.886719 -53.765625 C 24.953125 -52.417969 13.917969 -51.78125 2.847656 -52.011719 C 2.609375 -52.082031 2.546875 -51.605469 2.78125 -51.613281 C 7.070312 -51.058594 11.347656 -50.738281 15.617188 -50.65625 C 15.621094 -50.578125 15.542969 -50.496094 15.546875 -50.417969 C 11.207031 -50.261719 6.933594 -50.421875 2.582031 -50.65625 C 0.839844 -50.75 -0.683594 -49.195312 -1.101562 -47.601562 C -1.503906 -45.6875 -0.488281 -43.828125 1.121094 -43.019531 C 1.640625 -41.773438 2.707031 -40.707031 3.757812 -40.035156 C 5.210938 -39.21875 6.953125 -39.042969 8.621094 -38.867188 C 10.675781 -38.785156 12.808594 -38.785156 14.941406 -38.859375 C 15.964844 -38.898438 16.992188 -38.9375 18.015625 -38.972656 L 18.109375 -36.449219 L 18.078125 -32.972656 C 18.070312 -28.863281 17.980469 -24.75 17.890625 -20.71875 C 17.878906 -16.6875 17.949219 -12.582031 18.332031 -8.566406 C 18.601562 -5.496094 19.445312 -1.894531 22.796875 -0.988281 C 24.46875 -0.574219 26.410156 -1.59375 26.898438 -3.347656 C 27.394531 -4.945312 27.390625 -7.160156 27.65625 -8.589844 L 27.765625 -5.59375 C 27.726562 -4.484375 27.765625 -3.378906 27.726562 -2.273438 L 27.734375 -2.117188 C 29.113281 -3.273438 29.359375 -5.175781 29.449219 -7.074219 C 29.269531 -9.835938 29.011719 -12.589844 28.832031 -15.347656 C 28.65625 -20.160156 28.402344 -24.972656 28.226562 -29.785156 C 28.101562 -33.257812 28.054688 -36.730469 27.925781 -40.203125 C 31.929688 -40.902344 35.851562 -41.753906 39.84375 -42.691406 C 40.082031 -42.699219 40.234375 -42.863281 40.386719 -43.027344 C 40.777344 -43.121094 41.246094 -43.292969 41.550781 -43.542969 C 42.78125 -44.457031 43.046875 -45.886719 43.074219 -47.3125 C 43.222656 -47.554688 43.292969 -47.792969 43.359375 -48.113281 Z M 8.550781 -40.761719 C 6.652344 -40.773438 4.582031 -41.25 3.277344 -42.386719 C 6.386719 -41.550781 9.566406 -41.113281 12.730469 -40.914062 C 11.316406 -40.785156 9.894531 -40.730469 8.550781 -40.761719 Z M 8.550781 -40.761719 "/></g></g></g><g fill="#04080b" fill-opacity="1"><g transform="translate(274.281378, 115.632763)"><g><path d="M 43.585938 -32.058594 C 43.742188 -33.804688 43.207031 -35.203125 41.902344 -36.09375 C 40.84375 -36.835938 39.699219 -37.652344 38.558594 -38.390625 C 38.375 -39.015625 38.03125 -39.628906 37.378906 -40.074219 C 29.417969 -44.929688 21.371094 -49.941406 12.574219 -52.308594 C 12.496094 -52.304688 12.414062 -52.382812 12.335938 -52.378906 C 11.773438 -52.589844 11.214844 -52.722656 10.652344 -52.933594 C 10.488281 -53.085938 10.242188 -53.230469 9.925781 -53.21875 C 7.304688 -53.574219 2.527344 -54.382812 1.160156 -51.398438 C 0.375 -49.546875 1.34375 -47.378906 2.898438 -46.1875 C 2.457031 -45.453125 1.929688 -44.878906 1.320312 -44.375 C 2.070312 -41.722656 2.746094 -38.988281 3.417969 -36.335938 C 2.945312 -36.3125 2.472656 -36.292969 2.003906 -36.191406 C -0.359375 -36.085938 -1.128906 -32.101562 1.140625 -30.78125 C 1.871094 -30.339844 2.761719 -29.90625 3.5625 -29.625 L 1.761719 -29.308594 C 2.644531 -29.03125 3.523438 -28.753906 4.402344 -28.558594 C 4.722656 -28.492188 4.890625 -28.265625 4.898438 -28.027344 C 5.058594 -28.035156 5.214844 -28.042969 5.371094 -28.046875 L 5.96875 -25.3125 C 6.769531 -21.632812 7.566406 -17.957031 8.363281 -14.28125 L 9.304688 -9.109375 C 9.542969 -7.382812 9.46875 -5.480469 9.9375 -3.84375 C 9.976562 -2.976562 10.789062 -2.460938 11.414062 -2.648438 C 11.515625 -2.175781 11.691406 -1.789062 11.945312 -1.40625 C 12.941406 -0.34375 14.511719 -0.496094 15.5 -1.410156 C 16.257812 -2.074219 16.773438 -2.886719 17.207031 -3.855469 C 17.1875 -4.25 17.167969 -4.722656 17.066406 -5.191406 C 17.128906 -9.066406 16.554688 -13.070312 16.144531 -16.921875 C 15.824219 -20.539062 15.34375 -24.152344 14.789062 -27.683594 C 16.84375 -27.695312 18.980469 -27.632812 21.03125 -27.648438 C 21.457031 -26.957031 21.96875 -26.1875 22.472656 -25.5 L 22.476562 -25.421875 C 22.984375 -24.65625 23.414062 -23.882812 23.847656 -23.035156 C 25.476562 -20.183594 27.839844 -15.078125 28.796875 -13.066406 C 30.539062 -9.511719 32.28125 -5.878906 33.867188 -2.234375 C 34.191406 -2.09375 34.65625 -2.269531 34.882812 -2.519531 C 34.886719 -2.441406 34.964844 -2.441406 35.042969 -2.445312 C 35.765625 -2.164062 36.476562 -2.195312 37.183594 -2.304688 C 38.546875 -1.816406 40.34375 -2.289062 40.5 -4.035156 C 40.902344 -9.1875 37.917969 -14.03125 35.585938 -18.429688 C 33.78125 -21.742188 31.742188 -24.890625 29.472656 -27.949219 C 33.191406 -27.800781 36.910156 -27.652344 40.625 -27.582031 C 41.894531 -27.480469 43.332031 -28.890625 43.421875 -30.394531 Z M 11.035156 -42.679688 L 10.742188 -43.933594 C 17.589844 -42.660156 24.050781 -39.554688 30.308594 -35.648438 L 22.621094 -36.25 C 20.738281 -37.667969 18.042969 -39.679688 15.742188 -38.074219 C 15.363281 -37.742188 15.148438 -37.257812 15.085938 -36.859375 C 14.691406 -36.921875 14.21875 -36.898438 13.820312 -36.960938 C 13.429688 -38.601562 12.960938 -40.238281 12.492188 -41.878906 C 12.382812 -42.582031 11.59375 -42.546875 11.214844 -42.136719 C 11.128906 -42.289062 11.121094 -42.527344 11.035156 -42.679688 Z M 18.230469 -7.457031 C 18.457031 -9.363281 19.054688 -10.179688 18.691406 -13.007812 C 18.082031 -17.71875 17.476562 -22.433594 16.480469 -26.96875 L 15.851562 -26.941406 C 17.085938 -20.519531 17.617188 -13.984375 18.230469 -7.457031 Z M 18.230469 -7.457031 "/></g></g></g><g fill="#39ff14" fill-opacity="1"><g transform="translate(279.298681, 115.478304)"><g><path d="M 43.585938 -32.058594 C 43.742188 -33.804688 43.207031 -35.203125 41.902344 -36.09375 C 40.84375 -36.835938 39.699219 -37.652344 38.558594 -38.390625 C 38.375 -39.015625 38.03125 -39.628906 37.378906 -40.074219 C 29.417969 -44.929688 21.371094 -49.941406 12.574219 -52.308594 C 12.496094 -52.304688 12.414062 -52.382812 12.335938 -52.378906 C 11.773438 -52.589844 11.214844 -52.722656 10.652344 -52.933594 C 10.488281 -53.085938 10.242188 -53.230469 9.925781 -53.21875 C 7.304688 -53.574219 2.527344 -54.382812 1.160156 -51.398438 C 0.375 -49.546875 1.34375 -47.378906 2.898438 -46.1875 C 2.457031 -45.453125 1.929688 -44.878906 1.320312 -44.375 C 2.070312 -41.722656 2.746094 -38.988281 3.417969 -36.335938 C 2.945312 -36.3125 2.472656 -36.292969 2.003906 -36.191406 C -0.359375 -36.085938 -1.128906 -32.101562 1.140625 -30.78125 C 1.871094 -30.339844 2.761719 -29.90625 3.5625 -29.625 L 1.761719 -29.308594 C 2.644531 -29.03125 3.523438 -28.753906 4.402344 -28.558594 C 4.722656 -28.492188 4.890625 -28.265625 4.898438 -28.027344 C 5.058594 -28.035156 5.214844 -28.042969 5.371094 -28.046875 L 5.96875 -25.3125 C 6.769531 -21.632812 7.566406 -17.957031 8.363281 -14.28125 L 9.304688 -9.109375 C 9.542969 -7.382812 9.46875 -5.480469 9.9375 -3.84375 C 9.976562 -2.976562 10.789062 -2.460938 11.414062 -2.648438 C 11.515625 -2.175781 11.691406 -1.789062 11.945312 -1.40625 C 12.941406 -0.34375 14.511719 -0.496094 15.5 -1.410156 C 16.257812 -2.074219 16.773438 -2.886719 17.207031 -3.855469 C 17.1875 -4.25 17.167969 -4.722656 17.066406 -5.191406 C 17.128906 -9.066406 16.554688 -13.070312 16.144531 -16.921875 C 15.824219 -20.539062 15.34375 -24.152344 14.789062 -27.683594 C 16.84375 -27.695312 18.980469 -27.632812 21.03125 -27.648438 C 21.457031 -26.957031 21.96875 -26.1875 22.472656 -25.5 L 22.476562 -25.421875 C 22.984375 -24.65625 23.414062 -23.882812 23.847656 -23.035156 C 25.476562 -20.183594 27.839844 -15.078125 28.796875 -13.066406 C 30.539062 -9.511719 32.28125 -5.878906 33.867188 -2.234375 C 34.191406 -2.09375 34.65625 -2.269531 34.882812 -2.519531 C 34.886719 -2.441406 34.964844 -2.441406 35.042969 -2.445312 C 35.765625 -2.164062 36.476562 -2.195312 37.183594 -2.304688 C 38.546875 -1.816406 40.34375 -2.289062 40.5 -4.035156 C 40.902344 -9.1875 37.917969 -14.03125 35.585938 -18.429688 C 33.78125 -21.742188 31.742188 -24.890625 29.472656 -27.949219 C 33.191406 -27.800781 36.910156 -27.652344 40.625 -27.582031 C 41.894531 -27.480469 43.332031 -28.890625 43.421875 -30.394531 Z M 11.035156 -42.679688 L 10.742188 -43.933594 C 17.589844 -42.660156 24.050781 -39.554688 30.308594 -35.648438 L 22.621094 -36.25 C 20.738281 -37.667969 18.042969 -39.679688 15.742188 -38.074219 C 15.363281 -37.742188 15.148438 -37.257812 15.085938 -36.859375 C 14.691406 -36.921875 14.21875 -36.898438 13.820312 -36.960938 C 13.429688 -38.601562 12.960938 -40.238281 12.492188 -41.878906 C 12.382812 -42.582031 11.59375 -42.546875 11.214844 -42.136719 C 11.128906 -42.289062 11.121094 -42.527344 11.035156 -42.679688 Z M 18.230469 -7.457031 C 18.457031 -9.363281 19.054688 -10.179688 18.691406 -13.007812 C 18.082031 -17.71875 17.476562 -22.433594 16.480469 -26.96875 L 15.851562 -26.941406 C 17.085938 -20.519531 17.617188 -13.984375 18.230469 -7.457031 Z M 18.230469 -7.457031 "/></g></g></g><g fill="#04080b" fill-opacity="1"><g transform="translate(318.611114, 117.828619)"><g><path d="M 45.457031 -45.296875 C 45.691406 -45.613281 45.691406 -46.007812 45.613281 -46.324219 C 46.640625 -47.980469 46.480469 -50.113281 45.0625 -51.53125 C 43.957031 -52.636719 41.984375 -53.109375 40.484375 -52.480469 C 40.167969 -52.558594 39.851562 -52.480469 39.539062 -52.164062 C 36.695312 -49.796875 34.800781 -46.5625 32.75 -43.484375 C 32.59375 -43.324219 29.199219 -37.960938 29.121094 -37.878906 C 29.121094 -37.878906 28.566406 -38.355469 28.488281 -38.273438 C 28.488281 -38.273438 28.488281 -38.355469 28.566406 -38.355469 C 28.882812 -38.984375 29.199219 -39.617188 29.59375 -40.167969 C 31.960938 -43.957031 34.488281 -47.585938 37.089844 -51.21875 C 37.5625 -51.769531 37.011719 -52.402344 36.378906 -52.480469 C 36.300781 -52.796875 35.75 -52.953125 35.511719 -52.714844 C 34.09375 -51.375 32.988281 -49.480469 31.960938 -47.902344 C 30.777344 -46.085938 29.671875 -44.351562 28.488281 -42.535156 L 26.59375 -39.457031 C 22.886719 -41.90625 18.941406 -44.035156 14.914062 -46.007812 C 12.390625 -47.269531 9.707031 -48.375 7.023438 -49.480469 C 5.761719 -50.113281 4.339844 -50.742188 3 -50.742188 L 2.445312 -50.742188 C 2.210938 -50.742188 1.894531 -50.664062 1.578125 -50.585938 C 0.078125 -50.191406 -0.945312 -47.113281 0.316406 -46.085938 C 0.15625 -45.851562 0.078125 -45.535156 0 -45.140625 C -0.394531 -42.613281 2.445312 -40.957031 4.183594 -39.773438 C 4.261719 -39.695312 4.417969 -39.617188 4.5 -39.617188 L 4.734375 -39.144531 C 5.445312 -38.828125 6.15625 -38.511719 6.785156 -38.117188 C 7.496094 -37.722656 8.207031 -37.328125 8.996094 -37.011719 C 9.234375 -36.933594 9.46875 -36.773438 9.707031 -36.617188 C 12.707031 -34.960938 15.546875 -32.988281 18.546875 -31.25 C 18.941406 -31.015625 20.125 -30.304688 21.386719 -29.671875 C 20.203125 -27.542969 19.097656 -25.488281 17.992188 -23.359375 C 17.992188 -23.28125 17.914062 -23.203125 17.835938 -23.042969 L 16.019531 -20.28125 C 15.625 -19.648438 15.390625 -18.859375 15.46875 -18.152344 C 13.96875 -14.914062 12.546875 -11.679688 11.128906 -8.363281 C 11.046875 -7.261719 10.890625 -6.15625 10.890625 -5.050781 C 11.835938 -7.339844 12.863281 -9.628906 13.96875 -11.917969 C 14.601562 -13.335938 15.308594 -14.757812 16.019531 -16.097656 C 16.097656 -15.863281 16.257812 -15.703125 16.414062 -15.46875 C 15.703125 -14.046875 15.074219 -12.546875 14.363281 -11.128906 C 13.414062 -8.996094 12.3125 -6.785156 11.601562 -4.578125 C 10.574219 -1.183594 14.441406 0.789062 16.886719 -0.394531 C 16.886719 -0.238281 17.046875 -0.078125 17.28125 -0.078125 C 18.859375 -0.238281 19.808594 -1.339844 20.597656 -2.605469 C 21.859375 -4.5 22.808594 -6.707031 23.832031 -8.679688 C 25.882812 -12.863281 28.09375 -17.046875 30.382812 -21.070312 L 32.355469 -24.621094 C 33.617188 -24.542969 34.722656 -24.78125 35.589844 -25.570312 C 35.90625 -25.882812 36.066406 -26.28125 36.144531 -26.753906 C 36.222656 -26.832031 36.378906 -26.832031 36.460938 -26.910156 C 38.117188 -28.253906 37.722656 -30.460938 36.933594 -32.199219 C 37.089844 -32.515625 37.328125 -32.828125 37.5625 -33.144531 C 40.089844 -37.25 43.089844 -41.117188 45.457031 -45.296875 Z M 45.457031 -45.296875 "/></g></g></g><g fill="#39ff14" fill-opacity="1"><g transform="translate(323.628449, 117.144783)"><g><path d="M 45.457031 -45.296875 C 45.691406 -45.613281 45.691406 -46.007812 45.613281 -46.324219 C 46.640625 -47.980469 46.480469 -50.113281 45.0625 -51.53125 C 43.957031 -52.636719 41.984375 -53.109375 40.484375 -52.480469 C 40.167969 -52.558594 39.851562 -52.480469 39.539062 -52.164062 C 36.695312 -49.796875 34.800781 -46.5625 32.75 -43.484375 C 32.59375 -43.324219 29.199219 -37.960938 29.121094 -37.878906 C 29.121094 -37.878906 28.566406 -38.355469 28.488281 -38.273438 C 28.488281 -38.273438 28.488281 -38.355469 28.566406 -38.355469 C 28.882812 -38.984375 29.199219 -39.617188 29.59375 -40.167969 C 31.960938 -43.957031 34.488281 -47.585938 37.089844 -51.21875 C 37.5625 -51.769531 37.011719 -52.402344 36.378906 -52.480469 C 36.300781 -52.796875 35.75 -52.953125 35.511719 -52.714844 C 34.09375 -51.375 32.988281 -49.480469 31.960938 -47.902344 C 30.777344 -46.085938 29.671875 -44.351562 28.488281 -42.535156 L 26.59375 -39.457031 C 22.886719 -41.90625 18.941406 -44.035156 14.914062 -46.007812 C 12.390625 -47.269531 9.707031 -48.375 7.023438 -49.480469 C 5.761719 -50.113281 4.339844 -50.742188 3 -50.742188 L 2.445312 -50.742188 C 2.210938 -50.742188 1.894531 -50.664062 1.578125 -50.585938 C 0.078125 -50.191406 -0.945312 -47.113281 0.316406 -46.085938 C 0.15625 -45.851562 0.078125 -45.535156 0 -45.140625 C -0.394531 -42.613281 2.445312 -40.957031 4.183594 -39.773438 C 4.261719 -39.695312 4.417969 -39.617188 4.5 -39.617188 L 4.734375 -39.144531 C 5.445312 -38.828125 6.15625 -38.511719 6.785156 -38.117188 C 7.496094 -37.722656 8.207031 -37.328125 8.996094 -37.011719 C 9.234375 -36.933594 9.46875 -36.773438 9.707031 -36.617188 C 12.707031 -34.960938 15.546875 -32.988281 18.546875 -31.25 C 18.941406 -31.015625 20.125 -30.304688 21.386719 -29.671875 C 20.203125 -27.542969 19.097656 -25.488281 17.992188 -23.359375 C 17.992188 -23.28125 17.914062 -23.203125 17.835938 -23.042969 L 16.019531 -20.28125 C 15.625 -19.648438 15.390625 -18.859375 15.46875 -18.152344 C 13.96875 -14.914062 12.546875 -11.679688 11.128906 -8.363281 C 11.046875 -7.261719 10.890625 -6.15625 10.890625 -5.050781 C 11.835938 -7.339844 12.863281 -9.628906 13.96875 -11.917969 C 14.601562 -13.335938 15.308594 -14.757812 16.019531 -16.097656 C 16.097656 -15.863281 16.257812 -15.703125 16.414062 -15.46875 C 15.703125 -14.046875 15.074219 -12.546875 14.363281 -11.128906 C 13.414062 -8.996094 12.3125 -6.785156 11.601562 -4.578125 C 10.574219 -1.183594 14.441406 0.789062 16.886719 -0.394531 C 16.886719 -0.238281 17.046875 -0.078125 17.28125 -0.078125 C 18.859375 -0.238281 19.808594 -1.339844 20.597656 -2.605469 C 21.859375 -4.5 22.808594 -6.707031 23.832031 -8.679688 C 25.882812 -12.863281 28.09375 -17.046875 30.382812 -21.070312 L 32.355469 -24.621094 C 33.617188 -24.542969 34.722656 -24.78125 35.589844 -25.570312 C 35.90625 -25.882812 36.066406 -26.28125 36.144531 -26.753906 C 36.222656 -26.832031 36.378906 -26.832031 36.460938 -26.910156 C 38.117188 -28.253906 37.722656 -30.460938 36.933594 -32.199219 C 37.089844 -32.515625 37.328125 -32.828125 37.5625 -33.144531 C 40.089844 -37.25 43.089844 -41.117188 45.457031 -45.296875 Z M 45.457031 -45.296875 "/></g></g></g></svg>