<svg xmlns="http://www.w3.org/2000/svg" xmlns:xlink="http://www.w3.org/1999/xlink" width="250" zoomAndPan="magnify" viewBox="0 0 187.5 187.499992" height="250" preserveAspectRatio="xMidYMid meet" version="1.0"><defs><g/></defs><g fill="#04080b" fill-opacity="1"><g transform="translate(89.196342, 112.683215)"><g><path d="M 9.976562 -38.253906 C 9.796875 -38.136719 9.75 -37.917969 9.882812 -37.8125 C 11.648438 -38.199219 13.398438 -38.511719 15.191406 -38.664062 C 20.378906 -39.308594 25.585938 -39.335938 30.792969 -39.367188 C 33.789062 -39.410156 36.871094 -39.515625 39.878906 -39.632812 C 39.222656 -39.773438 38.5625 -39.917969 37.890625 -39.984375 C 34.699219 -40.441406 31.574219 -40.5 28.449219 -40.558594 L 26.671875 -40.480469 C 21.109375 -40.222656 15.351562 -39.777344 9.976562 -38.253906 Z M 44.609375 0.324219 C 45.628906 -0.144531 46.433594 -1.042969 46.644531 -2.375 C 47.246094 -6.605469 47.238281 -13.339844 41.355469 -13.378906 C 40.503906 -13.335938 39.695312 -13.125 38.84375 -13.078125 L 35.804688 -12.8125 C 33.921875 -12.605469 32.027344 -12.324219 30.128906 -12.042969 C 28.953125 -11.914062 27.761719 -11.710938 26.570312 -11.507812 L 19.835938 -10.429688 C 18.085938 -10.117188 16.335938 -9.804688 14.570312 -9.417969 L 14.320312 -9.320312 C 14.351562 -9.464844 14.367188 -9.539062 14.382812 -9.609375 L 14.964844 -14.460938 C 17.230469 -15.042969 19.425781 -15.644531 21.734375 -16.066406 C 25.488281 -16.789062 29.160156 -17.148438 32.875 -17.34375 C 34.722656 -17.40625 36.628906 -17.378906 38.449219 -17.296875 C 40.210938 -17.300781 41.800781 -16.882812 43.496094 -17.28125 C 44.953125 -17.65625 46.175781 -19.078125 46.183594 -20.53125 C 46.191406 -21.292969 45.910156 -22.117188 45.332031 -22.625 C 45.257812 -22.640625 45.257812 -22.640625 45.199219 -22.730469 C 45.191406 -23.039062 45.105469 -23.363281 45.023438 -23.6875 C 44.980469 -23.847656 44.957031 -24.082031 44.855469 -24.335938 C 44.210938 -26.308594 42.46875 -26.757812 40.625 -27.078125 C 39.734375 -27.195312 38.914062 -27.292969 38.003906 -27.335938 L 37.007812 -27.320312 C 34.523438 -27.164062 31.96875 -27.027344 29.503906 -26.945312 C 25.003906 -26.304688 20.605469 -25.410156 16.132812 -24.535156 C 16.210938 -24.902344 16.339844 -27.628906 16.421875 -28.375 L 16.601562 -28.492188 C 19.070312 -28.953125 21.601562 -29.328125 24.113281 -29.632812 C 24.996094 -29.824219 32.707031 -30.464844 36.65625 -30.6875 C 36.804688 -30.65625 36.964844 -30.695312 37.128906 -30.738281 C 38.902344 -30.816406 40.695312 -30.964844 42.414062 -31.132812 L 46.308594 -31.445312 C 46.914062 -32.84375 47.023438 -34.425781 46.84375 -36.074219 C 46.539062 -36.445312 46.179688 -36.902344 45.875 -37.273438 L 44.800781 -37.964844 C 44.394531 -38.207031 43.898438 -38.386719 43.402344 -38.570312 C 39.378906 -38.363281 35.355469 -38.15625 31.289062 -38.113281 C 26.097656 -38.15625 20.890625 -38.128906 15.699219 -37.480469 C 14.054688 -37.300781 12.320312 -37.0625 10.644531 -36.730469 C 10.523438 -36.527344 10.328125 -36.339844 10.226562 -36.210938 C 9.011719 -35.550781 8.121094 -34.597656 7.660156 -33.164062 C 7.246094 -31.953125 7.386719 -30.46875 8.058594 -29.332031 L 7.144531 -20.804688 L 6.140625 -11.839844 C 5.808594 -9.234375 5.390625 -6.570312 5.292969 -3.988281 C 4.226562 -2.230469 5 0.230469 6.671875 1.355469 C 6.519531 1.707031 6.457031 2 6.523438 2.394531 C 6.84375 3.765625 8.144531 4.121094 9.359375 4.152344 C 9.652344 4.214844 10.105469 4.238281 10.105469 4.238281 C 10.019531 4.292969 14.453125 3.945312 15.457031 3.550781 L 15.546875 3.492188 C 16.429688 3.300781 17.296875 3.179688 18.179688 2.988281 C 18.339844 2.945312 18.578125 2.917969 18.738281 2.878906 L 18.8125 2.894531 C 21.445312 2.386719 24.121094 2.042969 26.792969 1.699219 C 32.378906 0.988281 38.089844 0.761719 43.722656 0.898438 C 44.175781 0.917969 44.457031 0.675781 44.609375 0.324219 Z M 30.242188 -18.980469 L 30.269531 -18.746094 C 29.796875 -18.695312 29.402344 -18.625 28.914062 -18.5 C 24.945312 -17.824219 20.84375 -17.25 16.867188 -16.191406 C 17.5625 -16.578125 18.15625 -17.214844 18.476562 -17.988281 C 19.945312 -18.054688 21.429688 -18.195312 22.984375 -18.320312 C 25.410156 -18.566406 27.816406 -18.738281 30.242188 -18.980469 Z M 8.644531 2.851562 C 10.1875 2.800781 11.703125 2.511719 13.199219 2.300781 C 14.683594 2.160156 16.109375 1.929688 17.539062 1.699219 L 17.503906 1.847656 C 16.28125 2.195312 15.058594 2.546875 13.765625 2.878906 C 13.191406 3.0625 12.542969 3.230469 11.894531 3.394531 C 11.804688 3.453125 11.730469 3.4375 11.660156 3.421875 C 11.425781 3.449219 9.710938 3.234375 8.644531 2.851562 Z M 8.644531 2.851562 "/></g></g></g><g fill="#39ff14" fill-opacity="1"><g transform="translate(91.396552, 111.826052)"><g><path d="M 9.976562 -38.253906 C 9.796875 -38.136719 9.75 -37.917969 9.882812 -37.8125 C 11.648438 -38.199219 13.398438 -38.511719 15.191406 -38.664062 C 20.378906 -39.308594 25.585938 -39.335938 30.792969 -39.367188 C 33.789062 -39.410156 36.871094 -39.515625 39.878906 -39.632812 C 39.222656 -39.773438 38.5625 -39.917969 37.890625 -39.984375 C 34.699219 -40.441406 31.574219 -40.5 28.449219 -40.558594 L 26.671875 -40.480469 C 21.109375 -40.222656 15.351562 -39.777344 9.976562 -38.253906 Z M 44.609375 0.324219 C 45.628906 -0.144531 46.433594 -1.042969 46.644531 -2.375 C 47.246094 -6.605469 47.238281 -13.339844 41.355469 -13.378906 C 40.503906 -13.335938 39.695312 -13.125 38.84375 -13.078125 L 35.804688 -12.8125 C 33.921875 -12.605469 32.027344 -12.324219 30.128906 -12.042969 C 28.953125 -11.914062 27.761719 -11.710938 26.570312 -11.507812 L 19.835938 -10.429688 C 18.085938 -10.117188 16.335938 -9.804688 14.570312 -9.417969 L 14.320312 -9.320312 C 14.351562 -9.464844 14.367188 -9.539062 14.382812 -9.609375 L 14.964844 -14.460938 C 17.230469 -15.042969 19.425781 -15.644531 21.734375 -16.066406 C 25.488281 -16.789062 29.160156 -17.148438 32.875 -17.34375 C 34.722656 -17.40625 36.628906 -17.378906 38.449219 -17.296875 C 40.210938 -17.300781 41.800781 -16.882812 43.496094 -17.28125 C 44.953125 -17.65625 46.175781 -19.078125 46.183594 -20.53125 C 46.191406 -21.292969 45.910156 -22.117188 45.332031 -22.625 C 45.257812 -22.640625 45.257812 -22.640625 45.199219 -22.730469 C 45.191406 -23.039062 45.105469 -23.363281 45.023438 -23.6875 C 44.980469 -23.847656 44.957031 -24.082031 44.855469 -24.335938 C 44.210938 -26.308594 42.46875 -26.757812 40.625 -27.078125 C 39.734375 -27.195312 38.914062 -27.292969 38.003906 -27.335938 L 37.007812 -27.320312 C 34.523438 -27.164062 31.96875 -27.027344 29.503906 -26.945312 C 25.003906 -26.304688 20.605469 -25.410156 16.132812 -24.535156 C 16.210938 -24.902344 16.339844 -27.628906 16.421875 -28.375 L 16.601562 -28.492188 C 19.070312 -28.953125 21.601562 -29.328125 24.113281 -29.632812 C 24.996094 -29.824219 32.707031 -30.464844 36.65625 -30.6875 C 36.804688 -30.65625 36.964844 -30.695312 37.128906 -30.738281 C 38.902344 -30.816406 40.695312 -30.964844 42.414062 -31.132812 L 46.308594 -31.445312 C 46.914062 -32.84375 47.023438 -34.425781 46.84375 -36.074219 C 46.539062 -36.445312 46.179688 -36.902344 45.875 -37.273438 L 44.800781 -37.964844 C 44.394531 -38.207031 43.898438 -38.386719 43.402344 -38.570312 C 39.378906 -38.363281 35.355469 -38.15625 31.289062 -38.113281 C 26.097656 -38.15625 20.890625 -38.128906 15.699219 -37.480469 C 14.054688 -37.300781 12.320312 -37.0625 10.644531 -36.730469 C 10.523438 -36.527344 10.328125 -36.339844 10.226562 -36.210938 C 9.011719 -35.550781 8.121094 -34.597656 7.660156 -33.164062 C 7.246094 -31.953125 7.386719 -30.46875 8.058594 -29.332031 L 7.144531 -20.804688 L 6.140625 -11.839844 C 5.808594 -9.234375 5.390625 -6.570312 5.292969 -3.988281 C 4.226562 -2.230469 5 0.230469 6.671875 1.355469 C 6.519531 1.707031 6.457031 2 6.523438 2.394531 C 6.84375 3.765625 8.144531 4.121094 9.359375 4.152344 C 9.652344 4.214844 10.105469 4.238281 10.105469 4.238281 C 10.019531 4.292969 14.453125 3.945312 15.457031 3.550781 L 15.546875 3.492188 C 16.429688 3.300781 17.296875 3.179688 18.179688 2.988281 C 18.339844 2.945312 18.578125 2.917969 18.738281 2.878906 L 18.8125 2.894531 C 21.445312 2.386719 24.121094 2.042969 26.792969 1.699219 C 32.378906 0.988281 38.089844 0.761719 43.722656 0.898438 C 44.175781 0.917969 44.457031 0.675781 44.609375 0.324219 Z M 30.242188 -18.980469 L 30.269531 -18.746094 C 29.796875 -18.695312 29.402344 -18.625 28.914062 -18.5 C 24.945312 -17.824219 20.84375 -17.25 16.867188 -16.191406 C 17.5625 -16.578125 18.15625 -17.214844 18.476562 -17.988281 C 19.945312 -18.054688 21.429688 -18.195312 22.984375 -18.320312 C 25.410156 -18.566406 27.816406 -18.738281 30.242188 -18.980469 Z M 8.644531 2.851562 C 10.1875 2.800781 11.703125 2.511719 13.199219 2.300781 C 14.683594 2.160156 16.109375 1.929688 17.539062 1.699219 L 17.503906 1.847656 C 16.28125 2.195312 15.058594 2.546875 13.765625 2.878906 C 13.191406 3.0625 12.542969 3.230469 11.894531 3.394531 C 11.804688 3.453125 11.730469 3.4375 11.660156 3.421875 C 11.425781 3.449219 9.710938 3.234375 8.644531 2.851562 Z M 8.644531 2.851562 "/></g></g></g><g fill="#04080b" fill-opacity="1"><g transform="translate(45.107077, 114.144327)"><g><path d="M 45.589844 -2.753906 C 45.597656 -4.933594 45.308594 -7.148438 45.097656 -9.351562 C 44.839844 -11.863281 44.652344 -14.289062 44.472656 -16.792969 C 44.359375 -17.859375 44.257812 -18.996094 44.082031 -20.144531 C 44.066406 -21.425781 43.988281 -22.789062 43.902344 -24.078125 C 43.667969 -27.488281 43.433594 -30.898438 42.976562 -34.332031 C 42.5625 -37.460938 41.621094 -40.574219 39.5625 -43.128906 C 38.777344 -44.191406 37.140625 -44.367188 36.011719 -43.660156 C 35.175781 -44.277344 34.074219 -44.546875 32.769531 -44.3125 C 31.9375 -44.25 31.039062 -43.597656 30.808594 -42.867188 C 29.21875 -36.496094 26.890625 -30.277344 24.789062 -24.03125 C 23.371094 -19.972656 22.03125 -15.902344 20.613281 -11.84375 C 19.714844 -19.539062 19.015625 -28.417969 18.578125 -36.214844 C 18.484375 -38.105469 18.3125 -40.003906 18.355469 -41.804688 C 18.363281 -42.558594 18.144531 -43.332031 17.753906 -43.902344 C 17.378906 -45.296875 16.367188 -46.382812 14.984375 -46.832031 C 13.835938 -47.335938 12.480469 -47.328125 11.210938 -46.714844 C 10.261719 -46.289062 9.8125 -45.585938 9.730469 -44.84375 C 8.910156 -43.503906 8.804688 -41.859375 8.71875 -40.363281 C 8.527344 -38.578125 8.417969 -36.859375 8.226562 -35.074219 L 8.039062 -33.363281 C 7.890625 -33.378906 7.992188 -35.023438 7.84375 -35.039062 C 8.117188 -38.246094 8.410156 -41.675781 8.285156 -44.699219 C 8.25 -45.078125 7.507812 -45.160156 7.394531 -44.792969 C 6.117188 -40.644531 5.933594 -36.148438 5.550781 -31.902344 C 5.078125 -27.515625 4.667969 -23.042969 4.34375 -18.640625 C 3.953125 -14.320312 3.800781 -10.121094 3.929688 -5.746094 C 3.960938 -3.9375 3.867188 -1.6875 5.0625 -0.207031 C 5.660156 0.535156 6.683594 0.796875 7.609375 0.59375 C 7.667969 0.753906 7.734375 0.835938 7.800781 0.917969 C 8.058594 1.320312 8.578125 1.378906 9.050781 1.203125 C 11.542969 0.417969 11.613281 -2.359375 11.773438 -4.523438 C 12.300781 -10.785156 12.78125 -17.355469 13.160156 -23.632812 C 13.234375 -22.949219 13.394531 -22.328125 13.554688 -21.710938 C 13.882812 -19.191406 14.28125 -16.589844 14.683594 -14.0625 L 16.652344 -2.339844 C 16.824219 -1.117188 17 0.03125 17.558594 1.144531 C 17.671875 1.457031 17.964844 1.5625 18.203125 1.4375 C 18.476562 1.691406 18.839844 1.808594 19.210938 1.847656 C 19.417969 2.019531 19.789062 2.0625 20.171875 2.027344 C 21.390625 1.859375 21.925781 1.085938 22.410156 0.0859375 C 22.714844 -0.632812 22.933594 -1.285156 23.164062 -2.015625 C 23.148438 -1.863281 23.363281 -1.765625 23.46875 -2.054688 C 24.402344 -5.117188 25.941406 -9.613281 27.347656 -13.601562 C 28.839844 -17.652344 31.398438 -23.921875 33.742188 -28.933594 C 34.074219 -25.738281 34.40625 -22.542969 34.816406 -19.339844 C 35.753906 -12.691406 35.929688 -6.65625 35.371094 -0.09375 C 35.179688 1.691406 36.355469 3.324219 38.027344 3.878906 C 39.683594 5.9375 42.566406 5.046875 43.890625 3.234375 C 45.132812 1.484375 45.511719 -0.65625 45.589844 -2.753906 Z M 16.910156 -26.3125 C 16.925781 -26.460938 16.867188 -26.617188 16.800781 -26.699219 C 16.332031 -31.414062 15.773438 -35.992188 15.144531 -40.648438 C 15.238281 -40.789062 15.246094 -40.863281 15.253906 -40.9375 C 15.632812 -40.972656 16.019531 -41.078125 16.339844 -41.269531 C 16.511719 -40.046875 16.539062 -38.917969 16.566406 -37.785156 C 16.828125 -33.921875 17.207031 -28.386719 17.542969 -24.515625 C 17.144531 -25.007812 17.125 -25.535156 16.910156 -26.3125 Z M 26.992188 -13.789062 L 26.917969 -13.796875 C 26.84375 -13.804688 26.769531 -13.8125 26.703125 -13.894531 C 27.046875 -14.988281 27.390625 -16.078125 27.660156 -17.175781 C 29.394531 -22.105469 31.273438 -26.945312 33.4375 -31.675781 C 33.53125 -31.140625 33.546875 -30.609375 33.648438 -30.148438 C 31.1875 -24.773438 28.941406 -19.296875 26.992188 -13.789062 Z M 26.992188 -13.789062 "/></g></g></g><g fill="#39ff14" fill-opacity="1"><g transform="translate(47.338493, 114.144327)"><g><path d="M 45.589844 -2.753906 C 45.597656 -4.933594 45.308594 -7.148438 45.097656 -9.351562 C 44.839844 -11.863281 44.652344 -14.289062 44.472656 -16.792969 C 44.359375 -17.859375 44.257812 -18.996094 44.082031 -20.144531 C 44.066406 -21.425781 43.988281 -22.789062 43.902344 -24.078125 C 43.667969 -27.488281 43.433594 -30.898438 42.976562 -34.332031 C 42.5625 -37.460938 41.621094 -40.574219 39.5625 -43.128906 C 38.777344 -44.191406 37.140625 -44.367188 36.011719 -43.660156 C 35.175781 -44.277344 34.074219 -44.546875 32.769531 -44.3125 C 31.9375 -44.25 31.039062 -43.597656 30.808594 -42.867188 C 29.21875 -36.496094 26.890625 -30.277344 24.789062 -24.03125 C 23.371094 -19.972656 22.03125 -15.902344 20.613281 -11.84375 C 19.714844 -19.539062 19.015625 -28.417969 18.578125 -36.214844 C 18.484375 -38.105469 18.3125 -40.003906 18.355469 -41.804688 C 18.363281 -42.558594 18.144531 -43.332031 17.753906 -43.902344 C 17.378906 -45.296875 16.367188 -46.382812 14.984375 -46.832031 C 13.835938 -47.335938 12.480469 -47.328125 11.210938 -46.714844 C 10.261719 -46.289062 9.8125 -45.585938 9.730469 -44.84375 C 8.910156 -43.503906 8.804688 -41.859375 8.71875 -40.363281 C 8.527344 -38.578125 8.417969 -36.859375 8.226562 -35.074219 L 8.039062 -33.363281 C 7.890625 -33.378906 7.992188 -35.023438 7.84375 -35.039062 C 8.117188 -38.246094 8.410156 -41.675781 8.285156 -44.699219 C 8.25 -45.078125 7.507812 -45.160156 7.394531 -44.792969 C 6.117188 -40.644531 5.933594 -36.148438 5.550781 -31.902344 C 5.078125 -27.515625 4.667969 -23.042969 4.34375 -18.640625 C 3.953125 -14.320312 3.800781 -10.121094 3.929688 -5.746094 C 3.960938 -3.9375 3.867188 -1.6875 5.0625 -0.207031 C 5.660156 0.535156 6.683594 0.796875 7.609375 0.59375 C 7.667969 0.753906 7.734375 0.835938 7.800781 0.917969 C 8.058594 1.320312 8.578125 1.378906 9.050781 1.203125 C 11.542969 0.417969 11.613281 -2.359375 11.773438 -4.523438 C 12.300781 -10.785156 12.78125 -17.355469 13.160156 -23.632812 C 13.234375 -22.949219 13.394531 -22.328125 13.554688 -21.710938 C 13.882812 -19.191406 14.28125 -16.589844 14.683594 -14.0625 L 16.652344 -2.339844 C 16.824219 -1.117188 17 0.03125 17.558594 1.144531 C 17.671875 1.457031 17.964844 1.5625 18.203125 1.4375 C 18.476562 1.691406 18.839844 1.808594 19.210938 1.847656 C 19.417969 2.019531 19.789062 2.0625 20.171875 2.027344 C 21.390625 1.859375 21.925781 1.085938 22.410156 0.0859375 C 22.714844 -0.632812 22.933594 -1.285156 23.164062 -2.015625 C 23.148438 -1.863281 23.363281 -1.765625 23.46875 -2.054688 C 24.402344 -5.117188 25.941406 -9.613281 27.347656 -13.601562 C 28.839844 -17.652344 31.398438 -23.921875 33.742188 -28.933594 C 34.074219 -25.738281 34.40625 -22.542969 34.816406 -19.339844 C 35.753906 -12.691406 35.929688 -6.65625 35.371094 -0.09375 C 35.179688 1.691406 36.355469 3.324219 38.027344 3.878906 C 39.683594 5.9375 42.566406 5.046875 43.890625 3.234375 C 45.132812 1.484375 45.511719 -0.65625 45.589844 -2.753906 Z M 16.910156 -26.3125 C 16.925781 -26.460938 16.867188 -26.617188 16.800781 -26.699219 C 16.332031 -31.414062 15.773438 -35.992188 15.144531 -40.648438 C 15.238281 -40.789062 15.246094 -40.863281 15.253906 -40.9375 C 15.632812 -40.972656 16.019531 -41.078125 16.339844 -41.269531 C 16.511719 -40.046875 16.539062 -38.917969 16.566406 -37.785156 C 16.828125 -33.921875 17.207031 -28.386719 17.542969 -24.515625 C 17.144531 -25.007812 17.125 -25.535156 16.910156 -26.3125 Z M 26.992188 -13.789062 L 26.917969 -13.796875 C 26.84375 -13.804688 26.769531 -13.8125 26.703125 -13.894531 C 27.046875 -14.988281 27.390625 -16.078125 27.660156 -17.175781 C 29.394531 -22.105469 31.273438 -26.945312 33.4375 -31.675781 C 33.53125 -31.140625 33.546875 -30.609375 33.648438 -30.148438 C 31.1875 -24.773438 28.941406 -19.296875 26.992188 -13.789062 Z M 26.992188 -13.789062 "/></g></g></g></svg>