<svg xmlns="http://www.w3.org/2000/svg" xmlns:xlink="http://www.w3.org/1999/xlink" width="300" zoomAndPan="magnify" viewBox="0 0 224.87999 187.499995" height="250" preserveAspectRatio="xMidYMid meet" version="1.0"><defs><g/></defs><g fill="#04080b" fill-opacity="1"><g transform="translate(12.381634, 119.506849)"><g><path d="M 41.082031 -45.582031 C 42.847656 -46.394531 42.820312 -49.238281 41.0625 -50.148438 C 40.910156 -50.289062 40.757812 -50.359375 40.605469 -50.429688 C 40.75 -50.507812 40.976562 -50.519531 41.125 -50.523438 C 41.867188 -50.699219 41.597656 -51.960938 40.925781 -51.863281 C 39.8125 -51.671875 38.691406 -51.558594 37.578125 -51.367188 C 37.125 -51.425781 36.679688 -51.335938 36.304688 -51.320312 C 35.5625 -51.21875 34.816406 -51.117188 34 -50.9375 C 23.640625 -49.664062 13.183594 -49.058594 2.699219 -49.273438 C 2.472656 -49.339844 2.414062 -48.890625 2.636719 -48.898438 C 6.699219 -48.371094 10.75 -48.070312 14.796875 -47.992188 C 14.796875 -47.917969 14.726562 -47.839844 14.730469 -47.765625 C 10.617188 -47.617188 6.570312 -47.769531 2.445312 -47.992188 C 0.796875 -48.082031 -0.648438 -46.609375 -1.042969 -45.097656 C -1.425781 -43.285156 -0.464844 -41.523438 1.0625 -40.757812 C 1.554688 -39.578125 2.5625 -38.566406 3.558594 -37.929688 C 4.933594 -37.15625 6.589844 -36.992188 8.164062 -36.824219 C 10.113281 -36.746094 12.136719 -36.742188 14.152344 -36.816406 C 15.125 -36.851562 16.097656 -36.886719 17.070312 -36.921875 L 17.15625 -34.53125 L 17.125 -31.238281 C 17.117188 -27.34375 17.035156 -23.449219 16.949219 -19.628906 C 16.941406 -15.8125 17.007812 -11.921875 17.371094 -8.117188 C 17.625 -5.207031 18.421875 -1.792969 21.597656 -0.9375 C 23.183594 -0.542969 25.019531 -1.507812 25.484375 -3.171875 C 25.953125 -4.6875 25.949219 -6.78125 26.199219 -8.140625 L 26.304688 -5.296875 C 26.265625 -4.25 26.304688 -3.203125 26.269531 -2.152344 L 26.273438 -2.003906 C 27.582031 -3.097656 27.816406 -4.90625 27.898438 -6.703125 C 27.730469 -9.316406 27.484375 -11.929688 27.316406 -14.542969 C 27.148438 -19.101562 26.910156 -23.660156 26.742188 -28.21875 C 26.621094 -31.507812 26.578125 -34.800781 26.457031 -38.089844 C 30.25 -38.75 33.964844 -39.558594 37.75 -40.445312 C 37.972656 -40.453125 38.117188 -40.609375 38.261719 -40.761719 C 38.632812 -40.851562 39.074219 -41.019531 39.367188 -41.253906 C 40.53125 -42.117188 40.78125 -43.476562 40.808594 -44.824219 C 40.949219 -45.054688 41.015625 -45.28125 41.082031 -45.582031 Z M 8.101562 -38.617188 C 6.304688 -38.628906 4.339844 -39.078125 3.105469 -40.15625 C 6.050781 -39.367188 9.0625 -38.953125 12.0625 -38.761719 C 10.71875 -38.636719 9.375 -38.589844 8.101562 -38.617188 Z M 8.101562 -38.617188 "/></g></g></g><g fill="#39ff14" fill-opacity="1"><g transform="translate(14.581853, 120.177672)"><g><path d="M 41.082031 -45.582031 C 42.847656 -46.394531 42.820312 -49.238281 41.0625 -50.148438 C 40.910156 -50.289062 40.757812 -50.359375 40.605469 -50.429688 C 40.75 -50.507812 40.976562 -50.519531 41.125 -50.523438 C 41.867188 -50.699219 41.597656 -51.960938 40.925781 -51.863281 C 39.8125 -51.671875 38.691406 -51.558594 37.578125 -51.367188 C 37.125 -51.425781 36.679688 -51.335938 36.304688 -51.320312 C 35.5625 -51.21875 34.816406 -51.117188 34 -50.9375 C 23.640625 -49.664062 13.183594 -49.058594 2.699219 -49.273438 C 2.472656 -49.339844 2.414062 -48.890625 2.636719 -48.898438 C 6.699219 -48.371094 10.75 -48.070312 14.796875 -47.992188 C 14.796875 -47.917969 14.726562 -47.839844 14.730469 -47.765625 C 10.617188 -47.617188 6.570312 -47.769531 2.445312 -47.992188 C 0.796875 -48.082031 -0.648438 -46.609375 -1.042969 -45.097656 C -1.425781 -43.285156 -0.464844 -41.523438 1.0625 -40.757812 C 1.554688 -39.578125 2.5625 -38.566406 3.558594 -37.929688 C 4.933594 -37.15625 6.589844 -36.992188 8.164062 -36.824219 C 10.113281 -36.746094 12.136719 -36.742188 14.152344 -36.816406 C 15.125 -36.851562 16.097656 -36.886719 17.070312 -36.921875 L 17.15625 -34.53125 L 17.125 -31.238281 C 17.117188 -27.34375 17.035156 -23.449219 16.949219 -19.628906 C 16.941406 -15.8125 17.007812 -11.921875 17.371094 -8.117188 C 17.625 -5.207031 18.421875 -1.792969 21.597656 -0.9375 C 23.183594 -0.542969 25.019531 -1.507812 25.484375 -3.171875 C 25.953125 -4.6875 25.949219 -6.78125 26.199219 -8.140625 L 26.304688 -5.296875 C 26.265625 -4.25 26.304688 -3.203125 26.269531 -2.152344 L 26.273438 -2.003906 C 27.582031 -3.097656 27.816406 -4.90625 27.898438 -6.703125 C 27.730469 -9.316406 27.484375 -11.929688 27.316406 -14.542969 C 27.148438 -19.101562 26.910156 -23.660156 26.742188 -28.21875 C 26.621094 -31.507812 26.578125 -34.800781 26.457031 -38.089844 C 30.25 -38.75 33.964844 -39.558594 37.75 -40.445312 C 37.972656 -40.453125 38.117188 -40.609375 38.261719 -40.761719 C 38.632812 -40.851562 39.074219 -41.019531 39.367188 -41.253906 C 40.53125 -42.117188 40.78125 -43.476562 40.808594 -44.824219 C 40.949219 -45.054688 41.015625 -45.28125 41.082031 -45.582031 Z M 8.101562 -38.617188 C 6.304688 -38.628906 4.339844 -39.078125 3.105469 -40.15625 C 6.050781 -39.367188 9.0625 -38.953125 12.0625 -38.761719 C 10.71875 -38.636719 9.375 -38.589844 8.101562 -38.617188 Z M 8.101562 -38.617188 "/></g></g></g><g fill="#04080b" fill-opacity="1"><g transform="translate(87.328443, 109.814054)"><g><path d="M 9.976562 -38.253906 C 9.796875 -38.136719 9.75 -37.917969 9.882812 -37.8125 C 11.648438 -38.199219 13.398438 -38.511719 15.191406 -38.664062 C 20.378906 -39.308594 25.585938 -39.335938 30.792969 -39.367188 C 33.789062 -39.410156 36.871094 -39.515625 39.878906 -39.632812 C 39.222656 -39.773438 38.5625 -39.917969 37.890625 -39.984375 C 34.699219 -40.441406 31.574219 -40.5 28.449219 -40.558594 L 26.671875 -40.480469 C 21.109375 -40.222656 15.351562 -39.777344 9.976562 -38.253906 Z M 44.609375 0.324219 C 45.628906 -0.144531 46.433594 -1.042969 46.644531 -2.375 C 47.246094 -6.605469 47.238281 -13.339844 41.355469 -13.378906 C 40.503906 -13.335938 39.695312 -13.125 38.84375 -13.078125 L 35.804688 -12.8125 C 33.921875 -12.605469 32.027344 -12.324219 30.128906 -12.042969 C 28.953125 -11.914062 27.761719 -11.710938 26.570312 -11.507812 L 19.835938 -10.429688 C 18.085938 -10.117188 16.335938 -9.804688 14.570312 -9.417969 L 14.320312 -9.320312 C 14.351562 -9.464844 14.367188 -9.539062 14.382812 -9.609375 L 14.964844 -14.460938 C 17.230469 -15.042969 19.425781 -15.644531 21.734375 -16.066406 C 25.488281 -16.789062 29.160156 -17.148438 32.875 -17.34375 C 34.722656 -17.40625 36.628906 -17.378906 38.449219 -17.296875 C 40.210938 -17.300781 41.800781 -16.882812 43.496094 -17.28125 C 44.953125 -17.65625 46.175781 -19.078125 46.183594 -20.53125 C 46.191406 -21.292969 45.910156 -22.117188 45.332031 -22.625 C 45.257812 -22.640625 45.257812 -22.640625 45.199219 -22.730469 C 45.191406 -23.039062 45.105469 -23.363281 45.023438 -23.6875 C 44.980469 -23.847656 44.957031 -24.082031 44.855469 -24.335938 C 44.210938 -26.308594 42.46875 -26.757812 40.625 -27.078125 C 39.734375 -27.195312 38.914062 -27.292969 38.003906 -27.335938 L 37.007812 -27.320312 C 34.523438 -27.164062 31.96875 -27.027344 29.503906 -26.945312 C 25.003906 -26.304688 20.605469 -25.410156 16.132812 -24.535156 C 16.210938 -24.902344 16.339844 -27.628906 16.421875 -28.375 L 16.601562 -28.492188 C 19.070312 -28.953125 21.601562 -29.328125 24.113281 -29.632812 C 24.996094 -29.824219 32.707031 -30.464844 36.65625 -30.6875 C 36.804688 -30.65625 36.964844 -30.695312 37.128906 -30.738281 C 38.902344 -30.816406 40.695312 -30.964844 42.414062 -31.132812 L 46.308594 -31.445312 C 46.914062 -32.84375 47.023438 -34.425781 46.84375 -36.074219 C 46.539062 -36.445312 46.179688 -36.902344 45.875 -37.273438 L 44.800781 -37.964844 C 44.394531 -38.207031 43.898438 -38.386719 43.402344 -38.570312 C 39.378906 -38.363281 35.355469 -38.15625 31.289062 -38.113281 C 26.097656 -38.15625 20.890625 -38.128906 15.699219 -37.480469 C 14.054688 -37.300781 12.320312 -37.0625 10.644531 -36.730469 C 10.523438 -36.527344 10.328125 -36.339844 10.226562 -36.210938 C 9.011719 -35.550781 8.121094 -34.597656 7.660156 -33.164062 C 7.246094 -31.953125 7.386719 -30.46875 8.058594 -29.332031 L 7.144531 -20.804688 L 6.140625 -11.839844 C 5.808594 -9.234375 5.390625 -6.570312 5.292969 -3.988281 C 4.226562 -2.230469 5 0.230469 6.671875 1.355469 C 6.519531 1.707031 6.457031 2 6.523438 2.394531 C 6.84375 3.765625 8.144531 4.121094 9.359375 4.152344 C 9.652344 4.214844 10.105469 4.238281 10.105469 4.238281 C 10.019531 4.292969 14.453125 3.945312 15.457031 3.550781 L 15.546875 3.492188 C 16.429688 3.300781 17.296875 3.179688 18.179688 2.988281 C 18.339844 2.945312 18.578125 2.917969 18.738281 2.878906 L 18.8125 2.894531 C 21.445312 2.386719 24.121094 2.042969 26.792969 1.699219 C 32.378906 0.988281 38.089844 0.761719 43.722656 0.898438 C 44.175781 0.917969 44.457031 0.675781 44.609375 0.324219 Z M 30.242188 -18.980469 L 30.269531 -18.746094 C 29.796875 -18.695312 29.402344 -18.625 28.914062 -18.5 C 24.945312 -17.824219 20.84375 -17.25 16.867188 -16.191406 C 17.5625 -16.578125 18.15625 -17.214844 18.476562 -17.988281 C 19.945312 -18.054688 21.429688 -18.195312 22.984375 -18.320312 C 25.410156 -18.566406 27.816406 -18.738281 30.242188 -18.980469 Z M 8.644531 2.851562 C 10.1875 2.800781 11.703125 2.511719 13.199219 2.300781 C 14.683594 2.160156 16.109375 1.929688 17.539062 1.699219 L 17.503906 1.847656 C 16.28125 2.195312 15.058594 2.546875 13.765625 2.878906 C 13.191406 3.0625 12.542969 3.230469 11.894531 3.394531 C 11.804688 3.453125 11.730469 3.4375 11.660156 3.421875 C 11.425781 3.449219 9.710938 3.234375 8.644531 2.851562 Z M 8.644531 2.851562 "/></g></g></g><g fill="#39ff14" fill-opacity="1"><g transform="translate(89.528668, 108.956894)"><g><path d="M 9.976562 -38.253906 C 9.796875 -38.136719 9.75 -37.917969 9.882812 -37.8125 C 11.648438 -38.199219 13.398438 -38.511719 15.191406 -38.664062 C 20.378906 -39.308594 25.585938 -39.335938 30.792969 -39.367188 C 33.789062 -39.410156 36.871094 -39.515625 39.878906 -39.632812 C 39.222656 -39.773438 38.5625 -39.917969 37.890625 -39.984375 C 34.699219 -40.441406 31.574219 -40.5 28.449219 -40.558594 L 26.671875 -40.480469 C 21.109375 -40.222656 15.351562 -39.777344 9.976562 -38.253906 Z M 44.609375 0.324219 C 45.628906 -0.144531 46.433594 -1.042969 46.644531 -2.375 C 47.246094 -6.605469 47.238281 -13.339844 41.355469 -13.378906 C 40.503906 -13.335938 39.695312 -13.125 38.84375 -13.078125 L 35.804688 -12.8125 C 33.921875 -12.605469 32.027344 -12.324219 30.128906 -12.042969 C 28.953125 -11.914062 27.761719 -11.710938 26.570312 -11.507812 L 19.835938 -10.429688 C 18.085938 -10.117188 16.335938 -9.804688 14.570312 -9.417969 L 14.320312 -9.320312 C 14.351562 -9.464844 14.367188 -9.539062 14.382812 -9.609375 L 14.964844 -14.460938 C 17.230469 -15.042969 19.425781 -15.644531 21.734375 -16.066406 C 25.488281 -16.789062 29.160156 -17.148438 32.875 -17.34375 C 34.722656 -17.40625 36.628906 -17.378906 38.449219 -17.296875 C 40.210938 -17.300781 41.800781 -16.882812 43.496094 -17.28125 C 44.953125 -17.65625 46.175781 -19.078125 46.183594 -20.53125 C 46.191406 -21.292969 45.910156 -22.117188 45.332031 -22.625 C 45.257812 -22.640625 45.257812 -22.640625 45.199219 -22.730469 C 45.191406 -23.039062 45.105469 -23.363281 45.023438 -23.6875 C 44.980469 -23.847656 44.957031 -24.082031 44.855469 -24.335938 C 44.210938 -26.308594 42.46875 -26.757812 40.625 -27.078125 C 39.734375 -27.195312 38.914062 -27.292969 38.003906 -27.335938 L 37.007812 -27.320312 C 34.523438 -27.164062 31.96875 -27.027344 29.503906 -26.945312 C 25.003906 -26.304688 20.605469 -25.410156 16.132812 -24.535156 C 16.210938 -24.902344 16.339844 -27.628906 16.421875 -28.375 L 16.601562 -28.492188 C 19.070312 -28.953125 21.601562 -29.328125 24.113281 -29.632812 C 24.996094 -29.824219 32.707031 -30.464844 36.65625 -30.6875 C 36.804688 -30.65625 36.964844 -30.695312 37.128906 -30.738281 C 38.902344 -30.816406 40.695312 -30.964844 42.414062 -31.132812 L 46.308594 -31.445312 C 46.914062 -32.84375 47.023438 -34.425781 46.84375 -36.074219 C 46.539062 -36.445312 46.179688 -36.902344 45.875 -37.273438 L 44.800781 -37.964844 C 44.394531 -38.207031 43.898438 -38.386719 43.402344 -38.570312 C 39.378906 -38.363281 35.355469 -38.15625 31.289062 -38.113281 C 26.097656 -38.15625 20.890625 -38.128906 15.699219 -37.480469 C 14.054688 -37.300781 12.320312 -37.0625 10.644531 -36.730469 C 10.523438 -36.527344 10.328125 -36.339844 10.226562 -36.210938 C 9.011719 -35.550781 8.121094 -34.597656 7.660156 -33.164062 C 7.246094 -31.953125 7.386719 -30.46875 8.058594 -29.332031 L 7.144531 -20.804688 L 6.140625 -11.839844 C 5.808594 -9.234375 5.390625 -6.570312 5.292969 -3.988281 C 4.226562 -2.230469 5 0.230469 6.671875 1.355469 C 6.519531 1.707031 6.457031 2 6.523438 2.394531 C 6.84375 3.765625 8.144531 4.121094 9.359375 4.152344 C 9.652344 4.214844 10.105469 4.238281 10.105469 4.238281 C 10.019531 4.292969 14.453125 3.945312 15.457031 3.550781 L 15.546875 3.492188 C 16.429688 3.300781 17.296875 3.179688 18.179688 2.988281 C 18.339844 2.945312 18.578125 2.917969 18.738281 2.878906 L 18.8125 2.894531 C 21.445312 2.386719 24.121094 2.042969 26.792969 1.699219 C 32.378906 0.988281 38.089844 0.761719 43.722656 0.898438 C 44.175781 0.917969 44.457031 0.675781 44.609375 0.324219 Z M 30.242188 -18.980469 L 30.269531 -18.746094 C 29.796875 -18.695312 29.402344 -18.625 28.914062 -18.5 C 24.945312 -17.824219 20.84375 -17.25 16.867188 -16.191406 C 17.5625 -16.578125 18.15625 -17.214844 18.476562 -17.988281 C 19.945312 -18.054688 21.429688 -18.195312 22.984375 -18.320312 C 25.410156 -18.566406 27.816406 -18.738281 30.242188 -18.980469 Z M 8.644531 2.851562 C 10.1875 2.800781 11.703125 2.511719 13.199219 2.300781 C 14.683594 2.160156 16.109375 1.929688 17.539062 1.699219 L 17.503906 1.847656 C 16.28125 2.195312 15.058594 2.546875 13.765625 2.878906 C 13.191406 3.0625 12.542969 3.230469 11.894531 3.394531 C 11.804688 3.453125 11.730469 3.4375 11.660156 3.421875 C 11.425781 3.449219 9.710938 3.234375 8.644531 2.851562 Z M 8.644531 2.851562 "/></g></g></g><g fill="#04080b" fill-opacity="1"><g transform="translate(50.39937, 115.314196)"><g><path d="M 39.78125 -20.738281 C 41.789062 -22.621094 41.765625 -26.519531 38.925781 -27.695312 C 38.261719 -27.894531 37.683594 -28.160156 37.089844 -28.277344 L 37.207031 -29.917969 C 37.40625 -31.703125 37.535156 -33.492188 37.578125 -35.214844 C 37.597656 -35.4375 37.6875 -35.65625 37.628906 -35.886719 C 37.664062 -38.507812 38.191406 -41.769531 36.9375 -44.183594 C 35.625 -46.824219 32.496094 -47.121094 30.152344 -45.789062 C 27.496094 -44.25 27.730469 -41.234375 27.996094 -38.589844 C 27.929688 -35.523438 27.929688 -32.371094 27.863281 -29.300781 C 27.039062 -29.285156 26.28125 -29.1875 25.457031 -29.171875 C 22.828125 -29.132812 20.199219 -29.09375 17.5625 -28.90625 L 17.414062 -28.914062 C 17.425781 -32.289062 17.445312 -35.738281 17.464844 -39.183594 L 17.492188 -42.78125 C 17.464844 -43.460938 17.265625 -44.898438 16.542969 -45.25 C 16.253906 -45.417969 16.035156 -45.507812 15.738281 -45.53125 L 15.746094 -45.679688 C 15.792969 -47.402344 14.011719 -48.726562 12.429688 -48.613281 C 10.773438 -48.503906 9.394531 -47.027344 9.496094 -45.296875 C 9.84375 -39.574219 9.582031 -33.742188 9.25 -27.992188 L 9.101562 -28.003906 C 9.027344 -28.007812 8.941406 -27.863281 8.859375 -27.792969 C 8.832031 -30.570312 8.738281 -33.503906 8.636719 -36.285156 C 8.519531 -39.964844 8.558594 -43.710938 8.066406 -47.347656 C 8.078125 -47.496094 7.855469 -47.511719 7.84375 -47.363281 C 7.445312 -43.867188 7.492188 -40.265625 7.320312 -36.75 C 7.253906 -33.683594 7.109375 -30.617188 6.976562 -27.628906 C 5.828125 -27.332031 4.816406 -26.804688 4.152344 -25.878906 C 3.675781 -25.535156 3.199219 -25.121094 2.867188 -24.691406 C 0.902344 -22.355469 3.300781 -19.113281 5.910156 -19.980469 L 6.675781 -20.226562 C 6.511719 -14.6875 6.191406 -9.085938 6.25 -3.53125 C 6.210938 -3.011719 6.710938 -2.675781 7.160156 -2.644531 C 7.285156 -2.261719 7.40625 -1.875 7.605469 -1.488281 C 8.835938 1.222656 11.617188 1.121094 13.621094 -0.6875 C 14.585938 -1.59375 14.929688 -3.296875 15.167969 -4.554688 C 15.285156 -5.144531 15.332031 -5.816406 15.449219 -6.40625 L 15.464844 -6.632812 C 16.082031 -8.988281 16.1875 -11.53125 16.359375 -13.992188 C 16.511719 -16.15625 16.589844 -18.324219 16.667969 -20.496094 C 19.515625 -20.441406 22.429688 -20.3125 25.265625 -20.113281 C 25.789062 -20.074219 26.234375 -20.042969 26.757812 -20.007812 L 26.5625 -17.246094 C 26.363281 -14.410156 26.230469 -11.496094 26.179688 -8.648438 C 26.050781 -5.734375 26 -2.886719 26.019531 0.0390625 C 26.023438 1.011719 26.082031 2.292969 26.703125 3.085938 C 27.449219 4.1875 28.761719 4.730469 30.160156 4.003906 C 30.550781 3.804688 30.945312 3.535156 31.191406 3.25 C 31.265625 3.257812 31.265625 3.257812 31.269531 3.183594 C 32.898438 2.398438 33.378906 -0.117188 33.71875 -1.742188 C 34.066406 -3.519531 34.34375 -5.300781 34.625 -7.152344 C 35.105469 -10.792969 35.59375 -14.507812 36 -18.15625 C 37.625 -17.816406 39.417969 -18.738281 39.765625 -20.511719 Z M 19.511719 -22.542969 C 21.984375 -22.519531 24.441406 -22.269531 26.898438 -22.023438 L 26.875 -21.648438 C 26.425781 -21.679688 25.902344 -21.71875 25.386719 -21.828125 C 22.550781 -22.027344 19.632812 -22.085938 16.699219 -21.992188 L 16.722656 -22.289062 C 16.875 -22.355469 16.960938 -22.5 17.046875 -22.640625 C 17.867188 -22.585938 18.691406 -22.601562 19.511719 -22.542969 Z M 19.511719 -22.542969 "/></g></g></g><g fill="#39ff14" fill-opacity="1"><g transform="translate(51.664552, 115.029227)"><g><path d="M 39.78125 -20.738281 C 41.789062 -22.621094 41.765625 -26.519531 38.925781 -27.695312 C 38.261719 -27.894531 37.683594 -28.160156 37.089844 -28.277344 L 37.207031 -29.917969 C 37.40625 -31.703125 37.535156 -33.492188 37.578125 -35.214844 C 37.597656 -35.4375 37.6875 -35.65625 37.628906 -35.886719 C 37.664062 -38.507812 38.191406 -41.769531 36.9375 -44.183594 C 35.625 -46.824219 32.496094 -47.121094 30.152344 -45.789062 C 27.496094 -44.25 27.730469 -41.234375 27.996094 -38.589844 C 27.929688 -35.523438 27.929688 -32.371094 27.863281 -29.300781 C 27.039062 -29.285156 26.28125 -29.1875 25.457031 -29.171875 C 22.828125 -29.132812 20.199219 -29.09375 17.5625 -28.90625 L 17.414062 -28.914062 C 17.425781 -32.289062 17.445312 -35.738281 17.464844 -39.183594 L 17.492188 -42.78125 C 17.464844 -43.460938 17.265625 -44.898438 16.542969 -45.25 C 16.253906 -45.417969 16.035156 -45.507812 15.738281 -45.53125 L 15.746094 -45.679688 C 15.792969 -47.402344 14.011719 -48.726562 12.429688 -48.613281 C 10.773438 -48.503906 9.394531 -47.027344 9.496094 -45.296875 C 9.84375 -39.574219 9.582031 -33.742188 9.25 -27.992188 L 9.101562 -28.003906 C 9.027344 -28.007812 8.941406 -27.863281 8.859375 -27.792969 C 8.832031 -30.570312 8.738281 -33.503906 8.636719 -36.285156 C 8.519531 -39.964844 8.558594 -43.710938 8.066406 -47.347656 C 8.078125 -47.496094 7.855469 -47.511719 7.84375 -47.363281 C 7.445312 -43.867188 7.492188 -40.265625 7.320312 -36.75 C 7.253906 -33.683594 7.109375 -30.617188 6.976562 -27.628906 C 5.828125 -27.332031 4.816406 -26.804688 4.152344 -25.878906 C 3.675781 -25.535156 3.199219 -25.121094 2.867188 -24.691406 C 0.902344 -22.355469 3.300781 -19.113281 5.910156 -19.980469 L 6.675781 -20.226562 C 6.511719 -14.6875 6.191406 -9.085938 6.25 -3.53125 C 6.210938 -3.011719 6.710938 -2.675781 7.160156 -2.644531 C 7.285156 -2.261719 7.40625 -1.875 7.605469 -1.488281 C 8.835938 1.222656 11.617188 1.121094 13.621094 -0.6875 C 14.585938 -1.59375 14.929688 -3.296875 15.167969 -4.554688 C 15.285156 -5.144531 15.332031 -5.816406 15.449219 -6.40625 L 15.464844 -6.632812 C 16.082031 -8.988281 16.1875 -11.53125 16.359375 -13.992188 C 16.511719 -16.15625 16.589844 -18.324219 16.667969 -20.496094 C 19.515625 -20.441406 22.429688 -20.3125 25.265625 -20.113281 C 25.789062 -20.074219 26.234375 -20.042969 26.757812 -20.007812 L 26.5625 -17.246094 C 26.363281 -14.410156 26.230469 -11.496094 26.179688 -8.648438 C 26.050781 -5.734375 26 -2.886719 26.019531 0.0390625 C 26.023438 1.011719 26.082031 2.292969 26.703125 3.085938 C 27.449219 4.1875 28.761719 4.730469 30.160156 4.003906 C 30.550781 3.804688 30.945312 3.535156 31.191406 3.25 C 31.265625 3.257812 31.265625 3.257812 31.269531 3.183594 C 32.898438 2.398438 33.378906 -0.117188 33.71875 -1.742188 C 34.066406 -3.519531 34.34375 -5.300781 34.625 -7.152344 C 35.105469 -10.792969 35.59375 -14.507812 36 -18.15625 C 37.625 -17.816406 39.417969 -18.738281 39.765625 -20.511719 Z M 19.511719 -22.542969 C 21.984375 -22.519531 24.441406 -22.269531 26.898438 -22.023438 L 26.875 -21.648438 C 26.425781 -21.679688 25.902344 -21.71875 25.386719 -21.828125 C 22.550781 -22.027344 19.632812 -22.085938 16.699219 -21.992188 L 16.722656 -22.289062 C 16.875 -22.355469 16.960938 -22.5 17.046875 -22.640625 C 17.867188 -22.585938 18.691406 -22.601562 19.511719 -22.542969 Z M 19.511719 -22.542969 "/></g></g></g><g fill="#04080b" fill-opacity="1"><g transform="translate(135.040152, 116.733238)"><g><path d="M 33.660156 -34.484375 C 35.980469 -34.558594 38 -36.203125 38.296875 -38.597656 C 39.121094 -40.914062 37.773438 -43.757812 35.53125 -44.730469 L 35.457031 -44.804688 C 34.035156 -45.253906 32.386719 -45.105469 30.894531 -45.179688 C 29.097656 -45.328125 27.226562 -45.402344 25.433594 -45.628906 C 21.839844 -46.003906 18.324219 -46.527344 14.734375 -47.199219 C 14.511719 -47.273438 14.363281 -47.125 14.210938 -46.898438 C 11.292969 -47.574219 8.378906 -48.246094 5.460938 -49.070312 C 3.890625 -50.492188 1.046875 -49.519531 0.671875 -47.574219 C 0.148438 -45.253906 0.746094 -43.460938 2.019531 -42.113281 C 1.796875 -41.515625 1.796875 -40.765625 2.019531 -40.09375 C 2.992188 -36.875 3.664062 -33.585938 4.261719 -30.21875 C 3.441406 -29.84375 2.691406 -29.246094 2.242188 -28.425781 C 0.972656 -26.253906 1.796875 -23.710938 3.816406 -22.367188 C 4.414062 -21.992188 4.9375 -21.765625 5.535156 -21.617188 C 5.835938 -19.074219 6.132812 -16.53125 6.359375 -13.914062 C 6.507812 -12.492188 6.730469 -11.070312 6.882812 -9.574219 C 6.957031 -8.828125 7.03125 -7.777344 7.332031 -6.882812 C 7.253906 -5.3125 7.40625 -3.738281 7.855469 -2.09375 C 8.378906 -0.148438 10.472656 0.375 12.117188 -0.375 C 16.082031 -2.09375 15.707031 -7.03125 15.632812 -10.621094 C 15.558594 -14.363281 14.960938 -18.101562 14.363281 -21.765625 C 15.632812 -21.839844 16.90625 -21.839844 18.175781 -21.839844 C 22.890625 -21.917969 27.601562 -21.617188 32.238281 -20.945312 C 35.457031 -20.570312 37.625 -24.386719 36.875 -27.078125 C 36.277344 -29.246094 34.035156 -30.667969 31.863281 -30.667969 C 27.601562 -31.117188 23.335938 -31.265625 19.074219 -31.191406 C 16.832031 -31.117188 14.660156 -31.042969 12.417969 -30.816406 L 12.34375 -30.816406 C 12.191406 -31.640625 10.847656 -36.503906 10.546875 -38 C 12.042969 -37.625 13.464844 -37.324219 14.660156 -37.101562 C 17.878906 -36.503906 21.167969 -36.128906 24.386719 -35.828125 L 29.097656 -35.378906 C 29.398438 -35.378906 29.621094 -35.378906 29.921875 -35.304688 L 30.144531 -35.304688 C 31.265625 -34.707031 32.3125 -34.410156 33.660156 -34.484375 Z M 6.65625 -46.898438 C 6.433594 -47.273438 6.058594 -47.945312 5.757812 -48.246094 C 8.527344 -47.199219 12.492188 -46.601562 15.335938 -45.851562 L 14.136719 -45.851562 C 13.464844 -46.003906 8.453125 -46.152344 6.65625 -46.898438 Z M 6.65625 -46.898438 "/></g></g></g><g fill="#39ff14" fill-opacity="1"><g transform="translate(137.69633, 116.733238)"><g><path d="M 33.660156 -34.484375 C 35.980469 -34.558594 38 -36.203125 38.296875 -38.597656 C 39.121094 -40.914062 37.773438 -43.757812 35.53125 -44.730469 L 35.457031 -44.804688 C 34.035156 -45.253906 32.386719 -45.105469 30.894531 -45.179688 C 29.097656 -45.328125 27.226562 -45.402344 25.433594 -45.628906 C 21.839844 -46.003906 18.324219 -46.527344 14.734375 -47.199219 C 14.511719 -47.273438 14.363281 -47.125 14.210938 -46.898438 C 11.292969 -47.574219 8.378906 -48.246094 5.460938 -49.070312 C 3.890625 -50.492188 1.046875 -49.519531 0.671875 -47.574219 C 0.148438 -45.253906 0.746094 -43.460938 2.019531 -42.113281 C 1.796875 -41.515625 1.796875 -40.765625 2.019531 -40.09375 C 2.992188 -36.875 3.664062 -33.585938 4.261719 -30.21875 C 3.441406 -29.84375 2.691406 -29.246094 2.242188 -28.425781 C 0.972656 -26.253906 1.796875 -23.710938 3.816406 -22.367188 C 4.414062 -21.992188 4.9375 -21.765625 5.535156 -21.617188 C 5.835938 -19.074219 6.132812 -16.53125 6.359375 -13.914062 C 6.507812 -12.492188 6.730469 -11.070312 6.882812 -9.574219 C 6.957031 -8.828125 7.03125 -7.777344 7.332031 -6.882812 C 7.253906 -5.3125 7.40625 -3.738281 7.855469 -2.09375 C 8.378906 -0.148438 10.472656 0.375 12.117188 -0.375 C 16.082031 -2.09375 15.707031 -7.03125 15.632812 -10.621094 C 15.558594 -14.363281 14.960938 -18.101562 14.363281 -21.765625 C 15.632812 -21.839844 16.90625 -21.839844 18.175781 -21.839844 C 22.890625 -21.917969 27.601562 -21.617188 32.238281 -20.945312 C 35.457031 -20.570312 37.625 -24.386719 36.875 -27.078125 C 36.277344 -29.246094 34.035156 -30.667969 31.863281 -30.667969 C 27.601562 -31.117188 23.335938 -31.265625 19.074219 -31.191406 C 16.832031 -31.117188 14.660156 -31.042969 12.417969 -30.816406 L 12.34375 -30.816406 C 12.191406 -31.640625 10.847656 -36.503906 10.546875 -38 C 12.042969 -37.625 13.464844 -37.324219 14.660156 -37.101562 C 17.878906 -36.503906 21.167969 -36.128906 24.386719 -35.828125 L 29.097656 -35.378906 C 29.398438 -35.378906 29.621094 -35.378906 29.921875 -35.304688 L 30.144531 -35.304688 C 31.265625 -34.707031 32.3125 -34.410156 33.660156 -34.484375 Z M 6.65625 -46.898438 C 6.433594 -47.273438 6.058594 -47.945312 5.757812 -48.246094 C 8.527344 -47.199219 12.492188 -46.601562 15.335938 -45.851562 L 14.136719 -45.851562 C 13.464844 -46.003906 8.453125 -46.152344 6.65625 -46.898438 Z M 6.65625 -46.898438 "/></g></g></g><g fill="#04080b" fill-opacity="1"><g transform="translate(174.519329, 120.177672)"><g><path d="M 41.082031 -45.582031 C 42.847656 -46.394531 42.820312 -49.238281 41.0625 -50.148438 C 40.910156 -50.289062 40.757812 -50.359375 40.605469 -50.429688 C 40.75 -50.507812 40.976562 -50.519531 41.125 -50.523438 C 41.867188 -50.699219 41.597656 -51.960938 40.925781 -51.863281 C 39.8125 -51.671875 38.691406 -51.558594 37.578125 -51.367188 C 37.125 -51.425781 36.679688 -51.335938 36.304688 -51.320312 C 35.5625 -51.21875 34.816406 -51.117188 34 -50.9375 C 23.640625 -49.664062 13.183594 -49.058594 2.699219 -49.273438 C 2.472656 -49.339844 2.414062 -48.890625 2.636719 -48.898438 C 6.699219 -48.371094 10.75 -48.070312 14.796875 -47.992188 C 14.796875 -47.917969 14.726562 -47.839844 14.730469 -47.765625 C 10.617188 -47.617188 6.570312 -47.769531 2.445312 -47.992188 C 0.796875 -48.082031 -0.648438 -46.609375 -1.042969 -45.097656 C -1.425781 -43.285156 -0.464844 -41.523438 1.0625 -40.757812 C 1.554688 -39.578125 2.5625 -38.566406 3.558594 -37.929688 C 4.933594 -37.15625 6.589844 -36.992188 8.164062 -36.824219 C 10.113281 -36.746094 12.136719 -36.742188 14.152344 -36.816406 C 15.125 -36.851562 16.097656 -36.886719 17.070312 -36.921875 L 17.15625 -34.53125 L 17.125 -31.238281 C 17.117188 -27.34375 17.035156 -23.449219 16.949219 -19.628906 C 16.941406 -15.8125 17.007812 -11.921875 17.371094 -8.117188 C 17.625 -5.207031 18.421875 -1.792969 21.597656 -0.9375 C 23.183594 -0.542969 25.019531 -1.507812 25.484375 -3.171875 C 25.953125 -4.6875 25.949219 -6.78125 26.199219 -8.140625 L 26.304688 -5.296875 C 26.265625 -4.25 26.304688 -3.203125 26.269531 -2.152344 L 26.273438 -2.003906 C 27.582031 -3.097656 27.816406 -4.90625 27.898438 -6.703125 C 27.730469 -9.316406 27.484375 -11.929688 27.316406 -14.542969 C 27.148438 -19.101562 26.910156 -23.660156 26.742188 -28.21875 C 26.621094 -31.507812 26.578125 -34.800781 26.457031 -38.089844 C 30.25 -38.75 33.964844 -39.558594 37.75 -40.445312 C 37.972656 -40.453125 38.117188 -40.609375 38.261719 -40.761719 C 38.632812 -40.851562 39.074219 -41.019531 39.367188 -41.253906 C 40.53125 -42.117188 40.78125 -43.476562 40.808594 -44.824219 C 40.949219 -45.054688 41.015625 -45.28125 41.082031 -45.582031 Z M 8.101562 -38.617188 C 6.304688 -38.628906 4.339844 -39.078125 3.105469 -40.15625 C 6.050781 -39.367188 9.0625 -38.953125 12.0625 -38.761719 C 10.71875 -38.636719 9.375 -38.589844 8.101562 -38.617188 Z M 8.101562 -38.617188 "/></g></g></g><g fill="#39ff14" fill-opacity="1"><g transform="translate(176.719547, 120.848502)"><g><path d="M 41.082031 -45.582031 C 42.847656 -46.394531 42.820312 -49.238281 41.0625 -50.148438 C 40.910156 -50.289062 40.757812 -50.359375 40.605469 -50.429688 C 40.75 -50.507812 40.976562 -50.519531 41.125 -50.523438 C 41.867188 -50.699219 41.597656 -51.960938 40.925781 -51.863281 C 39.8125 -51.671875 38.691406 -51.558594 37.578125 -51.367188 C 37.125 -51.425781 36.679688 -51.335938 36.304688 -51.320312 C 35.5625 -51.21875 34.816406 -51.117188 34 -50.9375 C 23.640625 -49.664062 13.183594 -49.058594 2.699219 -49.273438 C 2.472656 -49.339844 2.414062 -48.890625 2.636719 -48.898438 C 6.699219 -48.371094 10.75 -48.070312 14.796875 -47.992188 C 14.796875 -47.917969 14.726562 -47.839844 14.730469 -47.765625 C 10.617188 -47.617188 6.570312 -47.769531 2.445312 -47.992188 C 0.796875 -48.082031 -0.648438 -46.609375 -1.042969 -45.097656 C -1.425781 -43.285156 -0.464844 -41.523438 1.0625 -40.757812 C 1.554688 -39.578125 2.5625 -38.566406 3.558594 -37.929688 C 4.933594 -37.15625 6.589844 -36.992188 8.164062 -36.824219 C 10.113281 -36.746094 12.136719 -36.742188 14.152344 -36.816406 C 15.125 -36.851562 16.097656 -36.886719 17.070312 -36.921875 L 17.15625 -34.53125 L 17.125 -31.238281 C 17.117188 -27.34375 17.035156 -23.449219 16.949219 -19.628906 C 16.941406 -15.8125 17.007812 -11.921875 17.371094 -8.117188 C 17.625 -5.207031 18.421875 -1.792969 21.597656 -0.9375 C 23.183594 -0.542969 25.019531 -1.507812 25.484375 -3.171875 C 25.953125 -4.6875 25.949219 -6.78125 26.199219 -8.140625 L 26.304688 -5.296875 C 26.265625 -4.25 26.304688 -3.203125 26.269531 -2.152344 L 26.273438 -2.003906 C 27.582031 -3.097656 27.816406 -4.90625 27.898438 -6.703125 C 27.730469 -9.316406 27.484375 -11.929688 27.316406 -14.542969 C 27.148438 -19.101562 26.910156 -23.660156 26.742188 -28.21875 C 26.621094 -31.507812 26.578125 -34.800781 26.457031 -38.089844 C 30.25 -38.75 33.964844 -39.558594 37.75 -40.445312 C 37.972656 -40.453125 38.117188 -40.609375 38.261719 -40.761719 C 38.632812 -40.851562 39.074219 -41.019531 39.367188 -41.253906 C 40.53125 -42.117188 40.78125 -43.476562 40.808594 -44.824219 C 40.949219 -45.054688 41.015625 -45.28125 41.082031 -45.582031 Z M 8.101562 -38.617188 C 6.304688 -38.628906 4.339844 -39.078125 3.105469 -40.15625 C 6.050781 -39.367188 9.0625 -38.953125 12.0625 -38.761719 C 10.71875 -38.636719 9.375 -38.589844 8.101562 -38.617188 Z M 8.101562 -38.617188 "/></g></g></g></svg>