<svg xmlns="http://www.w3.org/2000/svg" xmlns:xlink="http://www.w3.org/1999/xlink" width="300" zoomAndPan="magnify" viewBox="0 0 224.87999 187.499995" height="250" preserveAspectRatio="xMidYMid meet" version="1.0"><defs><g/></defs><g fill="#04080b" fill-opacity="1"><g transform="translate(19.209492, 116.202905)"><g><path d="M 33.855469 -44.542969 C 33.855469 -46.125 33.679688 -48.015625 33.210938 -49.496094 C 32.742188 -50.972656 32.34375 -52.695312 31.183594 -53.742188 C 30.605469 -54.191406 29.734375 -54.226562 29.203125 -53.804688 C 27.660156 -54.597656 25.910156 -54.828125 24.113281 -54.34375 C 24.84375 -41.25 24.460938 -28.261719 18.019531 -14.574219 C 18.011719 -14.734375 17.902344 -15.359375 17.820312 -15.4375 C 22.753906 -27.542969 24.375 -41.148438 23.179688 -54.058594 C 23.050781 -55.082031 21.550781 -55.007812 21.601562 -53.980469 C 22.199219 -46.734375 21.851562 -39.363281 20.867188 -32.117188 C 20.089844 -27.09375 18.832031 -22.128906 17.332031 -17.308594 C 17.039062 -18.402344 14.398438 -30.214844 13.621094 -33.101562 C 12.621094 -37.320312 11.460938 -41.613281 10.148438 -45.742188 C 9.035156 -49.007812 6.808594 -52.457031 2.929688 -52.578125 C -1.980469 -52.652344 0.0898438 -46.03125 1.164062 -43.476562 L 0.378906 -44.941406 C 0.210938 -45.167969 -0.175781 -44.992188 -0.0820312 -44.679688 C 0.460938 -41.703125 1.480469 -38.746094 2.257812 -35.78125 C 3.039062 -32.8125 3.742188 -29.765625 4.445312 -26.792969 C 5.144531 -23.824219 5.765625 -20.847656 6.308594 -17.871094 C 6.445312 -16.769531 6.652344 -15.75 6.867188 -14.65625 C 6.886719 -14.261719 6.910156 -13.789062 7.011719 -13.316406 C 7.09375 -13.242188 7.101562 -13.085938 7.105469 -13.007812 C 7.339844 -11.4375 7.5 -9.863281 7.492188 -8.359375 C 7.558594 -7.019531 8.3125 -6.1875 9.359375 -5.84375 C 9.636719 -4.984375 9.917969 -4.128906 10.277344 -3.277344 C 13.433594 4.554688 23.144531 -6.921875 25.121094 -10.105469 C 25.777344 -11.242188 26.429688 -12.460938 27.003906 -13.597656 C 27.214844 -14.160156 27.503906 -14.730469 27.792969 -15.296875 C 27.785156 -15.457031 27.859375 -15.539062 27.929688 -15.699219 C 29.046875 -18.683594 30.238281 -21.746094 31.273438 -24.804688 C 32.308594 -27.859375 32.851562 -31.285156 33.324219 -34.472656 C 33.792969 -37.820312 34.023438 -41.152344 33.855469 -44.542969 Z M 33.855469 -44.542969 "/></g></g></g><g fill="#39ff14" fill-opacity="1"><g transform="translate(22.964904, 114.18107)"><g><path d="M 33.855469 -44.542969 C 33.855469 -46.125 33.679688 -48.015625 33.210938 -49.496094 C 32.742188 -50.972656 32.34375 -52.695312 31.183594 -53.742188 C 30.605469 -54.191406 29.734375 -54.226562 29.203125 -53.804688 C 27.660156 -54.597656 25.910156 -54.828125 24.113281 -54.34375 C 24.84375 -41.25 24.460938 -28.261719 18.019531 -14.574219 C 18.011719 -14.734375 17.902344 -15.359375 17.820312 -15.4375 C 22.753906 -27.542969 24.375 -41.148438 23.179688 -54.058594 C 23.050781 -55.082031 21.550781 -55.007812 21.601562 -53.980469 C 22.199219 -46.734375 21.851562 -39.363281 20.867188 -32.117188 C 20.089844 -27.09375 18.832031 -22.128906 17.332031 -17.308594 C 17.039062 -18.402344 14.398438 -30.214844 13.621094 -33.101562 C 12.621094 -37.320312 11.460938 -41.613281 10.148438 -45.742188 C 9.035156 -49.007812 6.808594 -52.457031 2.929688 -52.578125 C -1.980469 -52.652344 0.0898438 -46.03125 1.164062 -43.476562 L 0.378906 -44.941406 C 0.210938 -45.167969 -0.175781 -44.992188 -0.0820312 -44.679688 C 0.460938 -41.703125 1.480469 -38.746094 2.257812 -35.78125 C 3.039062 -32.8125 3.742188 -29.765625 4.445312 -26.792969 C 5.144531 -23.824219 5.765625 -20.847656 6.308594 -17.871094 C 6.445312 -16.769531 6.652344 -15.75 6.867188 -14.65625 C 6.886719 -14.261719 6.910156 -13.789062 7.011719 -13.316406 C 7.09375 -13.242188 7.101562 -13.085938 7.105469 -13.007812 C 7.339844 -11.4375 7.5 -9.863281 7.492188 -8.359375 C 7.558594 -7.019531 8.3125 -6.1875 9.359375 -5.84375 C 9.636719 -4.984375 9.917969 -4.128906 10.277344 -3.277344 C 13.433594 4.554688 23.144531 -6.921875 25.121094 -10.105469 C 25.777344 -11.242188 26.429688 -12.460938 27.003906 -13.597656 C 27.214844 -14.160156 27.503906 -14.730469 27.792969 -15.296875 C 27.785156 -15.457031 27.859375 -15.539062 27.929688 -15.699219 C 29.046875 -18.683594 30.238281 -21.746094 31.273438 -24.804688 C 32.308594 -27.859375 32.851562 -31.285156 33.324219 -34.472656 C 33.792969 -37.820312 34.023438 -41.152344 33.855469 -44.542969 Z M 33.855469 -44.542969 "/></g></g></g><g fill="#04080b" fill-opacity="1"><g transform="translate(90.600183, 115.940816)"><g><path d="M 38.074219 -15.246094 C 39.890625 -21.5625 40.207031 -28.199219 39.890625 -34.753906 L 39.890625 -37.914062 C 39.890625 -39.8125 39.574219 -41.707031 39.414062 -43.601562 C 39.179688 -46.523438 38.863281 -50.316406 35.308594 -50.710938 C 34.4375 -50.789062 33.726562 -49.921875 33.726562 -49.132812 L 33.726562 -48.339844 C 31.753906 -49.449219 28.910156 -47.867188 28.988281 -45.496094 C 29.066406 -38.390625 29.148438 -31.359375 28.671875 -24.328125 C 28.515625 -21.644531 28.671875 -16.667969 26.855469 -13.980469 C 25.75 -13.035156 24.40625 -12.402344 22.90625 -12.085938 C 21.484375 -12.164062 20.300781 -12.796875 19.195312 -13.664062 C 17.0625 -19.351562 15.640625 -25.277344 15.246094 -31.359375 C 15.085938 -34.28125 15.085938 -37.28125 15.324219 -40.285156 C 15.480469 -42.734375 16.746094 -45.65625 15.875 -48.027344 C 15.164062 -49.761719 13.507812 -51.105469 11.613281 -51.34375 C 6.871094 -52.054688 4.421875 -47.234375 3.554688 -43.285156 C 1.183594 -33.097656 1.578125 -22.039062 5.449219 -12.242188 C 5.925781 -11.058594 7.03125 -10.664062 7.976562 -10.742188 C 8.847656 -8.925781 9.953125 -7.1875 11.296875 -5.609375 C 15.246094 -1.027344 22.589844 1.894531 28.042969 -1.578125 C 29.382812 -2.210938 30.804688 -3.476562 31.515625 -4.265625 C 31.675781 -4.421875 31.832031 -4.582031 32.070312 -4.738281 C 35.070312 -7.503906 36.886719 -11.375 38.074219 -15.246094 Z M 15.007812 -43.050781 C 13.824219 -36.097656 13.902344 -28.988281 15.164062 -22.039062 C 15.085938 -22.117188 15.007812 -22.117188 14.929688 -22.117188 C 14.691406 -23.066406 14.453125 -24.089844 14.296875 -25.117188 C 13.269531 -30.332031 13.269531 -35.78125 13.902344 -41.152344 C 14.21875 -41.785156 14.375 -42.496094 14.535156 -43.207031 C 14.613281 -43.050781 14.851562 -42.96875 15.007812 -43.050781 Z M 15.007812 -43.050781 "/></g></g></g><g fill="#39ff14" fill-opacity="1"><g transform="translate(93.648382, 115.940816)"><g><path d="M 38.074219 -15.246094 C 39.890625 -21.5625 40.207031 -28.199219 39.890625 -34.753906 L 39.890625 -37.914062 C 39.890625 -39.8125 39.574219 -41.707031 39.414062 -43.601562 C 39.179688 -46.523438 38.863281 -50.316406 35.308594 -50.710938 C 34.4375 -50.789062 33.726562 -49.921875 33.726562 -49.132812 L 33.726562 -48.339844 C 31.753906 -49.449219 28.910156 -47.867188 28.988281 -45.496094 C 29.066406 -38.390625 29.148438 -31.359375 28.671875 -24.328125 C 28.515625 -21.644531 28.671875 -16.667969 26.855469 -13.980469 C 25.75 -13.035156 24.40625 -12.402344 22.90625 -12.085938 C 21.484375 -12.164062 20.300781 -12.796875 19.195312 -13.664062 C 17.0625 -19.351562 15.640625 -25.277344 15.246094 -31.359375 C 15.085938 -34.28125 15.085938 -37.28125 15.324219 -40.285156 C 15.480469 -42.734375 16.746094 -45.65625 15.875 -48.027344 C 15.164062 -49.761719 13.507812 -51.105469 11.613281 -51.34375 C 6.871094 -52.054688 4.421875 -47.234375 3.554688 -43.285156 C 1.183594 -33.097656 1.578125 -22.039062 5.449219 -12.242188 C 5.925781 -11.058594 7.03125 -10.664062 7.976562 -10.742188 C 8.847656 -8.925781 9.953125 -7.1875 11.296875 -5.609375 C 15.246094 -1.027344 22.589844 1.894531 28.042969 -1.578125 C 29.382812 -2.210938 30.804688 -3.476562 31.515625 -4.265625 C 31.675781 -4.421875 31.832031 -4.582031 32.070312 -4.738281 C 35.070312 -7.503906 36.886719 -11.375 38.074219 -15.246094 Z M 15.007812 -43.050781 C 13.824219 -36.097656 13.902344 -28.988281 15.164062 -22.039062 C 15.085938 -22.117188 15.007812 -22.117188 14.929688 -22.117188 C 14.691406 -23.066406 14.453125 -24.089844 14.296875 -25.117188 C 13.269531 -30.332031 13.269531 -35.78125 13.902344 -41.152344 C 14.21875 -41.785156 14.375 -42.496094 14.535156 -43.207031 C 14.613281 -43.050781 14.851562 -42.96875 15.007812 -43.050781 Z M 15.007812 -43.050781 "/></g></g></g><g fill="#04080b" fill-opacity="1"><g transform="translate(51.671096, 114.792672)"><g><path d="M 29.007812 0.00390625 C 30.351562 5.820312 36.191406 6.144531 35.90625 -1.011719 C 35.664062 -5.789062 34.851562 -12.273438 34.207031 -17.003906 C 38.765625 -19.402344 38.480469 -26.558594 32.554688 -27.761719 C 32.394531 -32.527344 32.898438 -44.453125 32.753906 -43.675781 C 32.226562 -41.101562 31.839844 -38.359375 31.542969 -35.6875 C 31.464844 -35.695312 31.464844 -35.695312 31.390625 -35.78125 C 31.328125 -38.878906 31.28125 -42.128906 31.300781 -45.300781 C 31.273438 -47.835938 29.75 -49.546875 27.480469 -49.894531 C 26.953125 -51.203125 25.457031 -52.277344 24.109375 -52.308594 C 20.089844 -52.558594 18.113281 -47.808594 16.445312 -44.855469 C 13.996094 -40.140625 12.316406 -35.128906 10.789062 -30.023438 C 1.304688 -29.375 0.597656 -20.796875 5.535156 -19.121094 C 5.59375 -18.878906 5.488281 -18.570312 5.398438 -18.417969 C 6.027344 -18.367188 6.820312 -18.382812 7.535156 -18.402344 C 5.980469 -13.933594 4.816406 -9.433594 3.804688 -4.839844 C 2.175781 2.476562 11.84375 4.382812 13.0625 -2.730469 L 13.828125 -6.234375 C 13.828125 -6.234375 15.824219 -14.15625 17.164062 -17.929688 L 17.875 -17.871094 C 15.996094 -13.347656 14.894531 -8.605469 14.113281 -3.914062 C 13.957031 -2.976562 15.292969 -2.863281 15.371094 -3.808594 C 16.160156 -8.578125 17.40625 -13.152344 18.976562 -17.78125 L 25.121094 -17.355469 C 25.519531 -14.46875 27.554688 -0.667969 29.007812 0.00390625 Z M 19.582031 -28.03125 C 20.59375 -31.675781 21.796875 -34.746094 23.417969 -39.050781 C 23.90625 -35.367188 23.863281 -29.980469 24.015625 -27.984375 C 22.90625 -27.996094 20.695312 -28.101562 19.582031 -28.03125 Z M 19.582031 -28.03125 "/></g></g></g><g fill="#39ff14" fill-opacity="1"><g transform="translate(55.465455, 114.642968)"><g><path d="M 29.007812 0.00390625 C 30.351562 5.820312 36.191406 6.144531 35.90625 -1.011719 C 35.664062 -5.789062 34.851562 -12.273438 34.207031 -17.003906 C 38.765625 -19.402344 38.480469 -26.558594 32.554688 -27.761719 C 32.394531 -32.527344 32.898438 -44.453125 32.753906 -43.675781 C 32.226562 -41.101562 31.839844 -38.359375 31.542969 -35.6875 C 31.464844 -35.695312 31.464844 -35.695312 31.390625 -35.78125 C 31.328125 -38.878906 31.28125 -42.128906 31.300781 -45.300781 C 31.273438 -47.835938 29.75 -49.546875 27.480469 -49.894531 C 26.953125 -51.203125 25.457031 -52.277344 24.109375 -52.308594 C 20.089844 -52.558594 18.113281 -47.808594 16.445312 -44.855469 C 13.996094 -40.140625 12.316406 -35.128906 10.789062 -30.023438 C 1.304688 -29.375 0.597656 -20.796875 5.535156 -19.121094 C 5.59375 -18.878906 5.488281 -18.570312 5.398438 -18.417969 C 6.027344 -18.367188 6.820312 -18.382812 7.535156 -18.402344 C 5.980469 -13.933594 4.816406 -9.433594 3.804688 -4.839844 C 2.175781 2.476562 11.84375 4.382812 13.0625 -2.730469 L 13.828125 -6.234375 C 13.828125 -6.234375 15.824219 -14.15625 17.164062 -17.929688 L 17.875 -17.871094 C 15.996094 -13.347656 14.894531 -8.605469 14.113281 -3.914062 C 13.957031 -2.976562 15.292969 -2.863281 15.371094 -3.808594 C 16.160156 -8.578125 17.40625 -13.152344 18.976562 -17.78125 L 25.121094 -17.355469 C 25.519531 -14.46875 27.554688 -0.667969 29.007812 0.00390625 Z M 19.582031 -28.03125 C 20.59375 -31.675781 21.796875 -34.746094 23.417969 -39.050781 C 23.90625 -35.367188 23.863281 -29.980469 24.015625 -27.984375 C 22.90625 -27.996094 20.695312 -28.101562 19.582031 -28.03125 Z M 19.582031 -28.03125 "/></g></g></g><g fill="#04080b" fill-opacity="1"><g transform="translate(154.597222, 117.832539)"><g><path d="M 43.382812 -48.132812 C 45.246094 -48.992188 45.214844 -51.996094 43.363281 -52.953125 C 43.199219 -53.105469 43.039062 -53.179688 42.878906 -53.253906 C 43.035156 -53.339844 43.269531 -53.347656 43.429688 -53.351562 C 44.210938 -53.539062 43.925781 -54.871094 43.21875 -54.769531 C 42.039062 -54.566406 40.859375 -54.445312 39.679688 -54.242188 C 39.203125 -54.304688 38.734375 -54.210938 38.339844 -54.195312 C 37.550781 -54.085938 36.765625 -53.980469 35.902344 -53.789062 C 24.964844 -52.445312 13.921875 -51.804688 2.847656 -52.035156 C 2.609375 -52.105469 2.546875 -51.628906 2.785156 -51.636719 C 7.074219 -51.082031 11.351562 -50.761719 15.625 -50.679688 C 15.625 -50.601562 15.550781 -50.519531 15.554688 -50.441406 C 11.210938 -50.285156 6.9375 -50.445312 2.582031 -50.679688 C 0.839844 -50.773438 -0.683594 -49.21875 -1.101562 -47.621094 C -1.503906 -45.710938 -0.488281 -43.851562 1.121094 -43.039062 C 1.640625 -41.792969 2.707031 -40.726562 3.757812 -40.054688 C 5.210938 -39.234375 6.957031 -39.0625 8.625 -38.886719 C 10.679688 -38.804688 12.816406 -38.800781 14.945312 -38.878906 C 15.972656 -38.917969 17 -38.953125 18.023438 -38.992188 L 18.117188 -36.464844 L 18.085938 -32.984375 C 18.078125 -28.875 17.988281 -24.761719 17.898438 -20.726562 C 17.886719 -16.695312 17.957031 -12.589844 18.34375 -8.570312 C 18.613281 -5.5 19.453125 -1.894531 22.808594 -0.988281 C 24.480469 -0.574219 26.421875 -1.59375 26.910156 -3.351562 C 27.40625 -4.949219 27.402344 -7.164062 27.667969 -8.59375 L 27.777344 -5.59375 C 27.738281 -4.488281 27.777344 -3.382812 27.738281 -2.273438 L 27.746094 -2.117188 C 29.125 -3.273438 29.375 -5.179688 29.460938 -7.078125 C 29.28125 -9.839844 29.023438 -12.597656 28.84375 -15.355469 C 28.667969 -20.171875 28.414062 -24.984375 28.238281 -29.796875 C 28.113281 -33.273438 28.066406 -36.75 27.941406 -40.222656 C 31.945312 -40.921875 35.867188 -41.773438 39.863281 -42.710938 C 40.101562 -42.71875 40.253906 -42.882812 40.40625 -43.046875 C 40.796875 -43.140625 41.265625 -43.316406 41.570312 -43.5625 C 42.804688 -44.476562 43.066406 -45.910156 43.09375 -47.332031 C 43.242188 -47.574219 43.3125 -47.816406 43.382812 -48.132812 Z M 8.554688 -40.78125 C 6.65625 -40.789062 4.585938 -41.269531 3.277344 -42.40625 C 6.390625 -41.570312 9.570312 -41.132812 12.738281 -40.933594 C 11.320312 -40.800781 9.898438 -40.75 8.554688 -40.78125 Z M 8.554688 -40.78125 "/></g></g></g><g fill="#39ff14" fill-opacity="1"><g transform="translate(157.424478, 117.832539)"><g><path d="M 43.382812 -48.132812 C 45.246094 -48.992188 45.214844 -51.996094 43.363281 -52.953125 C 43.199219 -53.105469 43.039062 -53.179688 42.878906 -53.253906 C 43.035156 -53.339844 43.269531 -53.347656 43.429688 -53.351562 C 44.210938 -53.539062 43.925781 -54.871094 43.21875 -54.769531 C 42.039062 -54.566406 40.859375 -54.445312 39.679688 -54.242188 C 39.203125 -54.304688 38.734375 -54.210938 38.339844 -54.195312 C 37.550781 -54.085938 36.765625 -53.980469 35.902344 -53.789062 C 24.964844 -52.445312 13.921875 -51.804688 2.847656 -52.035156 C 2.609375 -52.105469 2.546875 -51.628906 2.785156 -51.636719 C 7.074219 -51.082031 11.351562 -50.761719 15.625 -50.679688 C 15.625 -50.601562 15.550781 -50.519531 15.554688 -50.441406 C 11.210938 -50.285156 6.9375 -50.445312 2.582031 -50.679688 C 0.839844 -50.773438 -0.683594 -49.21875 -1.101562 -47.621094 C -1.503906 -45.710938 -0.488281 -43.851562 1.121094 -43.039062 C 1.640625 -41.792969 2.707031 -40.726562 3.757812 -40.054688 C 5.210938 -39.234375 6.957031 -39.0625 8.625 -38.886719 C 10.679688 -38.804688 12.816406 -38.800781 14.945312 -38.878906 C 15.972656 -38.917969 17 -38.953125 18.023438 -38.992188 L 18.117188 -36.464844 L 18.085938 -32.984375 C 18.078125 -28.875 17.988281 -24.761719 17.898438 -20.726562 C 17.886719 -16.695312 17.957031 -12.589844 18.34375 -8.570312 C 18.613281 -5.5 19.453125 -1.894531 22.808594 -0.988281 C 24.480469 -0.574219 26.421875 -1.59375 26.910156 -3.351562 C 27.40625 -4.949219 27.402344 -7.164062 27.667969 -8.59375 L 27.777344 -5.59375 C 27.738281 -4.488281 27.777344 -3.382812 27.738281 -2.273438 L 27.746094 -2.117188 C 29.125 -3.273438 29.375 -5.179688 29.460938 -7.078125 C 29.28125 -9.839844 29.023438 -12.597656 28.84375 -15.355469 C 28.667969 -20.171875 28.414062 -24.984375 28.238281 -29.796875 C 28.113281 -33.273438 28.066406 -36.75 27.941406 -40.222656 C 31.945312 -40.921875 35.867188 -41.773438 39.863281 -42.710938 C 40.101562 -42.71875 40.253906 -42.882812 40.40625 -43.046875 C 40.796875 -43.140625 41.265625 -43.316406 41.570312 -43.5625 C 42.804688 -44.476562 43.066406 -45.910156 43.09375 -47.332031 C 43.242188 -47.574219 43.3125 -47.816406 43.382812 -48.132812 Z M 8.554688 -40.78125 C 6.65625 -40.789062 4.585938 -41.269531 3.277344 -42.40625 C 6.390625 -41.570312 9.570312 -41.132812 12.738281 -40.933594 C 11.320312 -40.800781 9.898438 -40.75 8.554688 -40.78125 Z M 8.554688 -40.78125 "/></g></g></g><g fill="#04080b" fill-opacity="1"><g transform="translate(129.798916, 114.178504)"><g><path d="M 35.113281 1.503906 C 37.367188 1.988281 39.171875 -0.753906 38.277344 -2.757812 C 38.015625 -3.265625 37.742188 -3.691406 37.472656 -4.117188 C 37.59375 -4.503906 37.722656 -4.964844 37.765625 -5.359375 C 37.894531 -6.535156 37.121094 -7.492188 36.328125 -8.214844 C 35.460938 -9.023438 34.144531 -9.324219 32.972656 -9.53125 C 31.492188 -9.773438 29.910156 -9.863281 28.339844 -10.035156 C 24.484375 -10.375 20.507812 -10.328125 16.714844 -9.785156 C 16.730469 -9.945312 16.816406 -10.015625 16.84375 -10.25 L 16.859375 -10.40625 C 16.773438 -10.335938 16.695312 -10.34375 16.695312 -10.34375 L 16.894531 -14.375 C 17.1875 -18.554688 17.40625 -22.742188 17.542969 -26.9375 C 17.652344 -30.898438 17.773438 -34.9375 17.816406 -38.984375 C 17.78125 -42.324219 18.113281 -46.105469 16.289062 -49.082031 C 16.238281 -49.328125 15.90625 -49.203125 15.957031 -48.960938 C 16.652344 -47.296875 16.699219 -45.542969 16.589844 -43.804688 C 16.523438 -42.460938 16.367188 -39.539062 16.082031 -37.664062 L 15.9375 -39.984375 C 15.851562 -42.851562 15.6875 -45.730469 15.445312 -48.617188 C 14.867188 -49.15625 14.1875 -49.46875 13.496094 -49.703125 C 12.902344 -50.085938 12.152344 -50.484375 11.375 -50.648438 C 8.984375 -51.304688 6.550781 -50.140625 6.507812 -47.523438 C 6.175781 -40.089844 6.160156 -32.621094 6.058594 -25.085938 C 6.050781 -21.351562 6.035156 -17.539062 6.105469 -13.796875 C 5.695312 -10.742188 5.363281 -7.679688 4.871094 -4.636719 C 4.789062 -3.851562 4.632812 -3.152344 4.546875 -2.367188 C 4.167969 -0.34375 6.207031 1.386719 8.140625 1.121094 C 17.113281 -0.289062 26.230469 -0.09375 35.113281 1.503906 Z M 7.867188 -44.671875 C 7.949219 -46.171875 7.429688 -48.691406 9.3125 -49.203125 C 9.722656 -49.320312 10.199219 -49.347656 10.515625 -49.3125 C 10.332031 -49.09375 10.140625 -48.796875 10.035156 -48.570312 L 9.511719 -45.925781 C 8.660156 -43.949219 8.757812 -41.160156 8.628906 -39.265625 C 8.292969 -35.410156 7.953125 -31.554688 7.613281 -27.699219 L 7.144531 -23.378906 C 7.355469 -28.996094 7.648438 -34.605469 7.789062 -40.3125 C 7.785156 -41.742188 7.871094 -43.242188 7.867188 -44.671875 Z M 33.429688 4.582031 C 34.441406 4.769531 34.628906 3.042969 33.617188 2.851562 C 29.148438 2.289062 24.65625 1.960938 20.136719 1.867188 C 18.15625 1.8125 16.167969 1.832031 14.101562 1.847656 C 12.023438 1.941406 9.652344 1.839844 7.753906 2.507812 C 7.664062 2.578125 7.65625 2.65625 7.734375 2.667969 C 9.75 3.125 12.097656 2.742188 14.15625 2.808594 C 16.300781 2.800781 18.4375 2.875 20.566406 3.027344 C 24.914062 3.257812 29.144531 3.796875 33.429688 4.582031 Z M 33.429688 4.582031 "/></g></g></g><g fill="#39ff14" fill-opacity="1"><g transform="translate(132.560743, 114.178504)"><g><path d="M 35.113281 1.503906 C 37.367188 1.988281 39.171875 -0.753906 38.277344 -2.757812 C 38.015625 -3.265625 37.742188 -3.691406 37.472656 -4.117188 C 37.59375 -4.503906 37.722656 -4.964844 37.765625 -5.359375 C 37.894531 -6.535156 37.121094 -7.492188 36.328125 -8.214844 C 35.460938 -9.023438 34.144531 -9.324219 32.972656 -9.53125 C 31.492188 -9.773438 29.910156 -9.863281 28.339844 -10.035156 C 24.484375 -10.375 20.507812 -10.328125 16.714844 -9.785156 C 16.730469 -9.945312 16.816406 -10.015625 16.84375 -10.25 L 16.859375 -10.40625 C 16.773438 -10.335938 16.695312 -10.34375 16.695312 -10.34375 L 16.894531 -14.375 C 17.1875 -18.554688 17.40625 -22.742188 17.542969 -26.9375 C 17.652344 -30.898438 17.773438 -34.9375 17.816406 -38.984375 C 17.78125 -42.324219 18.113281 -46.105469 16.289062 -49.082031 C 16.238281 -49.328125 15.90625 -49.203125 15.957031 -48.960938 C 16.652344 -47.296875 16.699219 -45.542969 16.589844 -43.804688 C 16.523438 -42.460938 16.367188 -39.539062 16.082031 -37.664062 L 15.9375 -39.984375 C 15.851562 -42.851562 15.6875 -45.730469 15.445312 -48.617188 C 14.867188 -49.15625 14.1875 -49.46875 13.496094 -49.703125 C 12.902344 -50.085938 12.152344 -50.484375 11.375 -50.648438 C 8.984375 -51.304688 6.550781 -50.140625 6.507812 -47.523438 C 6.175781 -40.089844 6.160156 -32.621094 6.058594 -25.085938 C 6.050781 -21.351562 6.035156 -17.539062 6.105469 -13.796875 C 5.695312 -10.742188 5.363281 -7.679688 4.871094 -4.636719 C 4.789062 -3.851562 4.632812 -3.152344 4.546875 -2.367188 C 4.167969 -0.34375 6.207031 1.386719 8.140625 1.121094 C 17.113281 -0.289062 26.230469 -0.09375 35.113281 1.503906 Z M 7.867188 -44.671875 C 7.949219 -46.171875 7.429688 -48.691406 9.3125 -49.203125 C 9.722656 -49.320312 10.199219 -49.347656 10.515625 -49.3125 C 10.332031 -49.09375 10.140625 -48.796875 10.035156 -48.570312 L 9.511719 -45.925781 C 8.660156 -43.949219 8.757812 -41.160156 8.628906 -39.265625 C 8.292969 -35.410156 7.953125 -31.554688 7.613281 -27.699219 L 7.144531 -23.378906 C 7.355469 -28.996094 7.648438 -34.605469 7.789062 -40.3125 C 7.785156 -41.742188 7.871094 -43.242188 7.867188 -44.671875 Z M 33.429688 4.582031 C 34.441406 4.769531 34.628906 3.042969 33.617188 2.851562 C 29.148438 2.289062 24.65625 1.960938 20.136719 1.867188 C 18.15625 1.8125 16.167969 1.832031 14.101562 1.847656 C 12.023438 1.941406 9.652344 1.839844 7.753906 2.507812 C 7.664062 2.578125 7.65625 2.65625 7.734375 2.667969 C 9.75 3.125 12.097656 2.742188 14.15625 2.808594 C 16.300781 2.800781 18.4375 2.875 20.566406 3.027344 C 24.914062 3.257812 29.144531 3.796875 33.429688 4.582031 Z M 33.429688 4.582031 "/></g></g></g></svg>