<svg xmlns="http://www.w3.org/2000/svg" xmlns:xlink="http://www.w3.org/1999/xlink" width="300" zoomAndPan="magnify" viewBox="0 0 224.87999 187.499995" height="250" preserveAspectRatio="xMidYMid meet" version="1.0"><defs><g/><clipPath id="0eb6a399b9"><path d="M 170 61 L 224.519531 61 L 224.519531 121 L 170 121 Z M 170 61 " clip-rule="nonzero"/></clipPath></defs><g fill="#04080b" fill-opacity="1"><g transform="translate(6.200944, 115.947578)"><g><path d="M 32.882812 -38.835938 C 35.320312 -39.085938 37.324219 -40.972656 37.460938 -43.515625 C 38.15625 -46.019531 36.523438 -48.910156 34.089844 -49.769531 L 34.003906 -49.84375 C 32.472656 -50.207031 30.75 -49.929688 29.167969 -49.894531 C 27.265625 -49.917969 25.292969 -49.859375 23.382812 -49.960938 C 19.574219 -50.085938 15.832031 -50.375 12 -50.816406 C 11.757812 -50.878906 11.613281 -50.710938 11.472656 -50.464844 C 8.347656 -50.953125 5.222656 -51.445312 2.089844 -52.09375 C 0.328125 -53.476562 -2.59375 -52.238281 -2.839844 -50.160156 C -3.21875 -47.679688 -2.453125 -45.832031 -1.015625 -44.511719 C -1.207031 -43.863281 -1.152344 -43.074219 -0.863281 -42.382812 C 0.398438 -39.066406 1.355469 -35.652344 2.234375 -32.148438 C 1.398438 -31.695312 0.652344 -31.007812 0.242188 -30.109375 C -0.933594 -27.730469 0.121094 -25.109375 2.347656 -23.84375 C 3.007812 -23.492188 3.574219 -23.296875 4.21875 -23.183594 C 4.722656 -20.527344 5.226562 -17.871094 5.660156 -15.128906 C 5.921875 -13.644531 6.265625 -12.164062 6.535156 -10.597656 C 6.667969 -9.816406 6.824219 -8.71875 7.207031 -7.796875 C 7.246094 -6.136719 7.519531 -4.492188 8.117188 -2.792969 C 8.8125 -0.78125 11.058594 -0.386719 12.738281 -1.296875 C 16.785156 -3.40625 16.023438 -8.578125 15.675781 -12.355469 C 15.316406 -16.289062 14.40625 -20.183594 13.503906 -24 C 14.835938 -24.171875 16.175781 -24.269531 17.515625 -24.363281 C 22.476562 -24.792969 27.460938 -24.832031 32.394531 -24.46875 C 35.8125 -24.3125 37.8125 -28.492188 36.824219 -31.273438 C 36.03125 -33.515625 33.5625 -34.84375 31.277344 -34.683594 C 26.753906 -34.835938 22.25 -34.675781 17.765625 -34.28125 C 15.40625 -34.035156 13.125 -33.792969 10.78125 -33.390625 L 10.699219 -33.382812 C 10.480469 -34.238281 8.699219 -39.261719 8.273438 -40.8125 C 9.878906 -40.53125 11.398438 -40.320312 12.675781 -40.175781 C 16.105469 -39.785156 19.601562 -39.636719 23.011719 -39.5625 L 28.011719 -39.441406 C 28.324219 -39.460938 28.5625 -39.480469 28.882812 -39.421875 L 29.117188 -39.4375 C 30.34375 -38.894531 31.46875 -38.65625 32.882812 -38.835938 Z M 3.511719 -49.898438 C 3.25 -50.277344 2.804688 -50.957031 2.464844 -51.25 C 5.460938 -50.355469 9.679688 -50.019531 12.730469 -49.445312 L 11.46875 -49.355469 C 10.75 -49.460938 5.460938 -49.246094 3.511719 -49.898438 Z M 3.511719 -49.898438 "/></g></g></g><g fill="#39ff14" fill-opacity="1"><g transform="translate(10.445227, 117.307188)"><g><path d="M 32.882812 -38.835938 C 35.320312 -39.085938 37.324219 -40.972656 37.460938 -43.515625 C 38.15625 -46.019531 36.523438 -48.910156 34.089844 -49.769531 L 34.003906 -49.84375 C 32.472656 -50.207031 30.75 -49.929688 29.167969 -49.894531 C 27.265625 -49.917969 25.292969 -49.859375 23.382812 -49.960938 C 19.574219 -50.085938 15.832031 -50.375 12 -50.816406 C 11.757812 -50.878906 11.613281 -50.710938 11.472656 -50.464844 C 8.347656 -50.953125 5.222656 -51.445312 2.089844 -52.09375 C 0.328125 -53.476562 -2.59375 -52.238281 -2.839844 -50.160156 C -3.21875 -47.679688 -2.453125 -45.832031 -1.015625 -44.511719 C -1.207031 -43.863281 -1.152344 -43.074219 -0.863281 -42.382812 C 0.398438 -39.066406 1.355469 -35.652344 2.234375 -32.148438 C 1.398438 -31.695312 0.652344 -31.007812 0.242188 -30.109375 C -0.933594 -27.730469 0.121094 -25.109375 2.347656 -23.84375 C 3.007812 -23.492188 3.574219 -23.296875 4.21875 -23.183594 C 4.722656 -20.527344 5.226562 -17.871094 5.660156 -15.128906 C 5.921875 -13.644531 6.265625 -12.164062 6.535156 -10.597656 C 6.667969 -9.816406 6.824219 -8.71875 7.207031 -7.796875 C 7.246094 -6.136719 7.519531 -4.492188 8.117188 -2.792969 C 8.8125 -0.78125 11.058594 -0.386719 12.738281 -1.296875 C 16.785156 -3.40625 16.023438 -8.578125 15.675781 -12.355469 C 15.316406 -16.289062 14.40625 -20.183594 13.503906 -24 C 14.835938 -24.171875 16.175781 -24.269531 17.515625 -24.363281 C 22.476562 -24.792969 27.460938 -24.832031 32.394531 -24.46875 C 35.8125 -24.3125 37.8125 -28.492188 36.824219 -31.273438 C 36.03125 -33.515625 33.5625 -34.84375 31.277344 -34.683594 C 26.753906 -34.835938 22.25 -34.675781 17.765625 -34.28125 C 15.40625 -34.035156 13.125 -33.792969 10.78125 -33.390625 L 10.699219 -33.382812 C 10.480469 -34.238281 8.699219 -39.261719 8.273438 -40.8125 C 9.878906 -40.53125 11.398438 -40.320312 12.675781 -40.175781 C 16.105469 -39.785156 19.601562 -39.636719 23.011719 -39.5625 L 28.011719 -39.441406 C 28.324219 -39.460938 28.5625 -39.480469 28.882812 -39.421875 L 29.117188 -39.4375 C 30.34375 -38.894531 31.46875 -38.65625 32.882812 -38.835938 Z M 3.511719 -49.898438 C 3.25 -50.277344 2.804688 -50.957031 2.464844 -51.25 C 5.460938 -50.355469 9.679688 -50.019531 12.730469 -49.445312 L 11.46875 -49.355469 C 10.75 -49.460938 5.460938 -49.246094 3.511719 -49.898438 Z M 3.511719 -49.898438 "/></g></g></g><g fill="#04080b" fill-opacity="1"><g transform="translate(46.861282, 114.278066)"><g><path d="M 30.765625 -33.066406 C 30.433594 -35.445312 30.027344 -37.90625 29.378906 -40.292969 C 28.652344 -42.605469 27.609375 -44.84375 26.558594 -47.007812 C 26.183594 -47.730469 25.398438 -47.90625 24.761719 -47.6875 C 24.234375 -48.730469 23.484375 -50.09375 22.472656 -50.753906 C 21.539062 -51.332031 20.199219 -51.367188 19.085938 -51.160156 C 18.0625 -51.265625 17.027344 -50.980469 15.988281 -50.613281 C 13.449219 -50.128906 11.488281 -47.730469 10.066406 -44.847656 C 9.90625 -44.851562 9.671875 -44.9375 9.433594 -44.863281 C 9.773438 -45.722656 10.113281 -46.582031 10.53125 -47.441406 C 10.867188 -48.222656 11.363281 -49 11.859375 -49.777344 C 11.941406 -49.933594 11.785156 -50.015625 11.703125 -49.859375 C 10.3125 -48.160156 9.234375 -46.292969 8.390625 -44.261719 C 8.308594 -44.183594 8.308594 -44.105469 8.226562 -44.105469 C 2.699219 -35.40625 0.996094 -25.023438 2.300781 -14.871094 C 2.960938 -10.191406 4.414062 -5.410156 8.039062 -2.152344 C 10.125 -0.359375 13.019531 0.667969 15.636719 0.265625 C 16.503906 0.367188 17.375 0.390625 18.242188 0.335938 C 20.464844 0.0820312 22.308594 -0.898438 23.847656 -2.355469 C 24.980469 -3.273438 25.957031 -4.355469 26.859375 -5.515625 C 29.5625 -9.15625 30.40625 -13.953125 30.917969 -18.285156 C 31.605469 -23.242188 31.421875 -28.148438 30.765625 -33.066406 Z M 20.273438 -10.355469 C 20.007812 -9.414062 19.589844 -8.554688 19.09375 -7.699219 C 18.597656 -6.84375 17.867188 -6.152344 16.910156 -5.863281 C 13.488281 -4.929688 10.8125 -8.242188 9.617188 -10.882812 C 10.394531 -10.386719 11.414062 -10.121094 12.371094 -10.332031 C 12.6875 -10.402344 13.007812 -10.550781 13.25 -10.703125 C 12.203125 -15.867188 11.71875 -21.253906 12.101562 -26.617188 C 12.308594 -28.429688 12.515625 -30.242188 12.878906 -32.046875 C 12.960938 -32.125 12.960938 -32.203125 13.046875 -32.359375 C 13.765625 -35.582031 14.878906 -38.789062 16.457031 -41.671875 C 16.789062 -42.214844 17.121094 -42.839844 17.605469 -43.140625 C 12.847656 -33.789062 12.375 -22.183594 14.308594 -11.859375 C 14.722656 -12.558594 14.820312 -13.347656 14.6875 -14.21875 C 13.898438 -20.089844 13.984375 -26.171875 14.851562 -31.996094 C 15.328125 -34.984375 16.121094 -37.886719 17.066406 -40.707031 C 17.324219 -41.488281 17.667969 -42.507812 18.164062 -43.363281 L 18.558594 -43.351562 C 18.636719 -43.351562 18.792969 -43.265625 18.871094 -43.1875 C 19.171875 -42.625 19.390625 -41.988281 19.613281 -41.425781 C 20.128906 -40.070312 20.566406 -38.636719 21 -37.203125 C 21.207031 -36.089844 21.332031 -34.902344 21.539062 -33.710938 C 22.0625 -29.824219 22.191406 -25.789062 22.402344 -21.835938 C 22.296875 -17.964844 21.714844 -14.03125 20.273438 -10.355469 Z M 20.273438 -10.355469 "/></g></g></g><g fill="#39ff14" fill-opacity="1"><g transform="translate(50.193551, 114.278066)"><g><path d="M 30.765625 -33.066406 C 30.433594 -35.445312 30.027344 -37.90625 29.378906 -40.292969 C 28.652344 -42.605469 27.609375 -44.84375 26.558594 -47.007812 C 26.183594 -47.730469 25.398438 -47.90625 24.761719 -47.6875 C 24.234375 -48.730469 23.484375 -50.09375 22.472656 -50.753906 C 21.539062 -51.332031 20.199219 -51.367188 19.085938 -51.160156 C 18.0625 -51.265625 17.027344 -50.980469 15.988281 -50.613281 C 13.449219 -50.128906 11.488281 -47.730469 10.066406 -44.847656 C 9.90625 -44.851562 9.671875 -44.9375 9.433594 -44.863281 C 9.773438 -45.722656 10.113281 -46.582031 10.53125 -47.441406 C 10.867188 -48.222656 11.363281 -49 11.859375 -49.777344 C 11.941406 -49.933594 11.785156 -50.015625 11.703125 -49.859375 C 10.3125 -48.160156 9.234375 -46.292969 8.390625 -44.261719 C 8.308594 -44.183594 8.308594 -44.105469 8.226562 -44.105469 C 2.699219 -35.40625 0.996094 -25.023438 2.300781 -14.871094 C 2.960938 -10.191406 4.414062 -5.410156 8.039062 -2.152344 C 10.125 -0.359375 13.019531 0.667969 15.636719 0.265625 C 16.503906 0.367188 17.375 0.390625 18.242188 0.335938 C 20.464844 0.0820312 22.308594 -0.898438 23.847656 -2.355469 C 24.980469 -3.273438 25.957031 -4.355469 26.859375 -5.515625 C 29.5625 -9.15625 30.40625 -13.953125 30.917969 -18.285156 C 31.605469 -23.242188 31.421875 -28.148438 30.765625 -33.066406 Z M 20.273438 -10.355469 C 20.007812 -9.414062 19.589844 -8.554688 19.09375 -7.699219 C 18.597656 -6.84375 17.867188 -6.152344 16.910156 -5.863281 C 13.488281 -4.929688 10.8125 -8.242188 9.617188 -10.882812 C 10.394531 -10.386719 11.414062 -10.121094 12.371094 -10.332031 C 12.6875 -10.402344 13.007812 -10.550781 13.25 -10.703125 C 12.203125 -15.867188 11.71875 -21.253906 12.101562 -26.617188 C 12.308594 -28.429688 12.515625 -30.242188 12.878906 -32.046875 C 12.960938 -32.125 12.960938 -32.203125 13.046875 -32.359375 C 13.765625 -35.582031 14.878906 -38.789062 16.457031 -41.671875 C 16.789062 -42.214844 17.121094 -42.839844 17.605469 -43.140625 C 12.847656 -33.789062 12.375 -22.183594 14.308594 -11.859375 C 14.722656 -12.558594 14.820312 -13.347656 14.6875 -14.21875 C 13.898438 -20.089844 13.984375 -26.171875 14.851562 -31.996094 C 15.328125 -34.984375 16.121094 -37.886719 17.066406 -40.707031 C 17.324219 -41.488281 17.667969 -42.507812 18.164062 -43.363281 L 18.558594 -43.351562 C 18.636719 -43.351562 18.792969 -43.265625 18.871094 -43.1875 C 19.171875 -42.625 19.390625 -41.988281 19.613281 -41.425781 C 20.128906 -40.070312 20.566406 -38.636719 21 -37.203125 C 21.207031 -36.089844 21.332031 -34.902344 21.539062 -33.710938 C 22.0625 -29.824219 22.191406 -25.789062 22.402344 -21.835938 C 22.296875 -17.964844 21.714844 -14.03125 20.273438 -10.355469 Z M 20.273438 -10.355469 "/></g></g></g><g fill="#04080b" fill-opacity="1"><g transform="translate(80.535739, 115.070249)"><g><path d="M 45.023438 -30.09375 C 45.261719 -31.832031 44.785156 -33.253906 43.523438 -34.203125 C 42.496094 -34.992188 41.390625 -35.859375 40.285156 -36.652344 C 40.125 -37.28125 39.8125 -37.914062 39.179688 -38.390625 C 31.4375 -43.601562 23.617188 -48.972656 14.929688 -51.738281 C 14.851562 -51.738281 14.769531 -51.816406 14.691406 -51.816406 C 14.140625 -52.054688 13.585938 -52.210938 13.035156 -52.449219 C 12.875 -52.605469 12.636719 -52.765625 12.324219 -52.765625 C 9.714844 -53.238281 4.976562 -54.265625 3.476562 -51.34375 C 2.605469 -49.527344 3.476562 -47.316406 4.976562 -46.050781 C 4.503906 -45.339844 3.949219 -44.785156 3.316406 -44.3125 C 3.949219 -41.628906 4.503906 -38.863281 5.054688 -36.175781 C 4.582031 -36.175781 4.109375 -36.175781 3.632812 -36.097656 C 1.265625 -36.097656 0.316406 -32.148438 2.527344 -30.726562 C 3.238281 -30.253906 4.109375 -29.777344 4.898438 -29.464844 L 3.082031 -29.226562 C 3.949219 -28.910156 4.816406 -28.59375 5.6875 -28.355469 C 6.003906 -28.277344 6.160156 -28.042969 6.160156 -27.804688 C 6.320312 -27.804688 6.476562 -27.804688 6.636719 -27.804688 L 7.109375 -25.039062 C 7.742188 -21.328125 8.371094 -17.613281 9.003906 -13.902344 L 9.714844 -8.6875 C 9.875 -6.949219 9.714844 -5.054688 10.109375 -3.398438 C 10.109375 -2.527344 10.902344 -1.976562 11.53125 -2.132812 C 11.613281 -1.660156 11.769531 -1.265625 12.007812 -0.867188 C 12.953125 0.238281 14.535156 0.15625 15.5625 -0.710938 C 16.351562 -1.34375 16.902344 -2.132812 17.378906 -3.082031 C 17.378906 -3.476562 17.378906 -3.949219 17.296875 -4.421875 C 17.535156 -8.292969 17.140625 -12.324219 16.902344 -16.191406 C 16.746094 -19.828125 16.429688 -23.460938 16.035156 -27.015625 C 18.089844 -26.933594 20.222656 -26.777344 22.273438 -26.699219 C 22.671875 -25.988281 23.144531 -25.199219 23.617188 -24.488281 L 23.617188 -24.40625 C 24.089844 -23.617188 24.488281 -22.828125 24.882812 -21.960938 C 26.382812 -19.035156 28.515625 -13.824219 29.382812 -11.769531 C 30.964844 -8.136719 32.542969 -4.421875 33.964844 -0.710938 C 34.28125 -0.554688 34.753906 -0.710938 34.992188 -0.949219 C 34.992188 -0.867188 35.070312 -0.867188 35.148438 -0.867188 C 35.859375 -0.554688 36.570312 -0.554688 37.28125 -0.632812 C 38.625 -0.078125 40.441406 -0.472656 40.679688 -2.210938 C 41.3125 -7.347656 38.546875 -12.324219 36.414062 -16.824219 C 34.753906 -20.222656 32.859375 -23.460938 30.726562 -26.621094 C 34.4375 -26.304688 38.152344 -25.988281 41.863281 -25.75 C 43.128906 -25.59375 44.628906 -26.933594 44.785156 -28.4375 Z M 12.953125 -42.179688 L 12.71875 -43.445312 C 19.511719 -41.863281 25.828125 -38.46875 31.910156 -34.28125 L 24.25 -35.230469 C 22.433594 -36.730469 19.828125 -38.863281 17.457031 -37.363281 C 17.0625 -37.046875 16.824219 -36.570312 16.746094 -36.175781 C 16.351562 -36.257812 15.875 -36.257812 15.480469 -36.335938 C 15.164062 -37.992188 14.769531 -39.652344 14.375 -41.3125 C 14.296875 -42.023438 13.507812 -42.023438 13.113281 -41.628906 C 13.035156 -41.785156 13.035156 -42.023438 12.953125 -42.179688 Z M 18.5625 -6.636719 C 18.878906 -8.53125 19.511719 -9.320312 19.273438 -12.164062 C 18.878906 -16.902344 18.484375 -21.644531 17.695312 -26.222656 L 17.0625 -26.222656 C 18.007812 -19.746094 18.246094 -13.191406 18.5625 -6.636719 Z M 18.5625 -6.636719 "/></g></g></g><g fill="#39ff14" fill-opacity="1"><g transform="translate(83.940982, 114.400941)"><g><path d="M 45.023438 -30.09375 C 45.261719 -31.832031 44.785156 -33.253906 43.523438 -34.203125 C 42.496094 -34.992188 41.390625 -35.859375 40.285156 -36.652344 C 40.125 -37.28125 39.8125 -37.914062 39.179688 -38.390625 C 31.4375 -43.601562 23.617188 -48.972656 14.929688 -51.738281 C 14.851562 -51.738281 14.769531 -51.816406 14.691406 -51.816406 C 14.140625 -52.054688 13.585938 -52.210938 13.035156 -52.449219 C 12.875 -52.605469 12.636719 -52.765625 12.324219 -52.765625 C 9.714844 -53.238281 4.976562 -54.265625 3.476562 -51.34375 C 2.605469 -49.527344 3.476562 -47.316406 4.976562 -46.050781 C 4.503906 -45.339844 3.949219 -44.785156 3.316406 -44.3125 C 3.949219 -41.628906 4.503906 -38.863281 5.054688 -36.175781 C 4.582031 -36.175781 4.109375 -36.175781 3.632812 -36.097656 C 1.265625 -36.097656 0.316406 -32.148438 2.527344 -30.726562 C 3.238281 -30.253906 4.109375 -29.777344 4.898438 -29.464844 L 3.082031 -29.226562 C 3.949219 -28.910156 4.816406 -28.59375 5.6875 -28.355469 C 6.003906 -28.277344 6.160156 -28.042969 6.160156 -27.804688 C 6.320312 -27.804688 6.476562 -27.804688 6.636719 -27.804688 L 7.109375 -25.039062 C 7.742188 -21.328125 8.371094 -17.613281 9.003906 -13.902344 L 9.714844 -8.6875 C 9.875 -6.949219 9.714844 -5.054688 10.109375 -3.398438 C 10.109375 -2.527344 10.902344 -1.976562 11.53125 -2.132812 C 11.613281 -1.660156 11.769531 -1.265625 12.007812 -0.867188 C 12.953125 0.238281 14.535156 0.15625 15.5625 -0.710938 C 16.351562 -1.34375 16.902344 -2.132812 17.378906 -3.082031 C 17.378906 -3.476562 17.378906 -3.949219 17.296875 -4.421875 C 17.535156 -8.292969 17.140625 -12.324219 16.902344 -16.191406 C 16.746094 -19.828125 16.429688 -23.460938 16.035156 -27.015625 C 18.089844 -26.933594 20.222656 -26.777344 22.273438 -26.699219 C 22.671875 -25.988281 23.144531 -25.199219 23.617188 -24.488281 L 23.617188 -24.40625 C 24.089844 -23.617188 24.488281 -22.828125 24.882812 -21.960938 C 26.382812 -19.035156 28.515625 -13.824219 29.382812 -11.769531 C 30.964844 -8.136719 32.542969 -4.421875 33.964844 -0.710938 C 34.28125 -0.554688 34.753906 -0.710938 34.992188 -0.949219 C 34.992188 -0.867188 35.070312 -0.867188 35.148438 -0.867188 C 35.859375 -0.554688 36.570312 -0.554688 37.28125 -0.632812 C 38.625 -0.078125 40.441406 -0.472656 40.679688 -2.210938 C 41.3125 -7.347656 38.546875 -12.324219 36.414062 -16.824219 C 34.753906 -20.222656 32.859375 -23.460938 30.726562 -26.621094 C 34.4375 -26.304688 38.152344 -25.988281 41.863281 -25.75 C 43.128906 -25.59375 44.628906 -26.933594 44.785156 -28.4375 Z M 12.953125 -42.179688 L 12.71875 -43.445312 C 19.511719 -41.863281 25.828125 -38.46875 31.910156 -34.28125 L 24.25 -35.230469 C 22.433594 -36.730469 19.828125 -38.863281 17.457031 -37.363281 C 17.0625 -37.046875 16.824219 -36.570312 16.746094 -36.175781 C 16.351562 -36.257812 15.875 -36.257812 15.480469 -36.335938 C 15.164062 -37.992188 14.769531 -39.652344 14.375 -41.3125 C 14.296875 -42.023438 13.507812 -42.023438 13.113281 -41.628906 C 13.035156 -41.785156 13.035156 -42.023438 12.953125 -42.179688 Z M 18.5625 -6.636719 C 18.878906 -8.53125 19.511719 -9.320312 19.273438 -12.164062 C 18.878906 -16.902344 18.484375 -21.644531 17.695312 -26.222656 L 17.0625 -26.222656 C 18.007812 -19.746094 18.246094 -13.191406 18.5625 -6.636719 Z M 18.5625 -6.636719 "/></g></g></g><g fill="#04080b" fill-opacity="1"><g transform="translate(125.592407, 120.682418)"><g><path d="M 43.917969 -31.992188 C 44.390625 -33.253906 44.628906 -34.753906 44.234375 -36.097656 C 43.679688 -37.992188 41.707031 -39.019531 39.8125 -38.785156 C 36.097656 -38.308594 32.464844 -37.28125 28.832031 -36.414062 C 25.199219 -35.546875 21.5625 -34.597656 18.007812 -33.570312 C 17.851562 -33.492188 17.695312 -33.492188 17.613281 -33.414062 C 16.035156 -33.015625 15.480469 -31.675781 15.640625 -30.410156 L 15.164062 -30.175781 C 12.085938 -28.515625 14.21875 -23.695312 17.535156 -24.566406 C 21.089844 -25.511719 24.566406 -26.621094 28.121094 -27.410156 C 29.859375 -27.804688 31.597656 -28.121094 33.332031 -28.515625 L 33.648438 -28.515625 C 32.9375 -27.25 32.226562 -25.988281 31.4375 -24.722656 C 29.777344 -22.039062 27.882812 -19.589844 25.59375 -17.378906 C 23.617188 -15.480469 21.167969 -13.824219 18.640625 -12.71875 C 18.167969 -12.558594 17.613281 -12.324219 17.0625 -12.164062 C 15.164062 -11.691406 13.269531 -11.53125 11.375 -11.847656 L 10.347656 -12.085938 C 8.453125 -13.269531 7.742188 -15.796875 7.820312 -18.167969 C 7.820312 -21.011719 8.769531 -23.933594 9.953125 -26.460938 C 12.324219 -31.515625 16.351562 -35.78125 21.25 -38.46875 C 24.089844 -39.96875 27.25 -40.996094 30.410156 -41.46875 C 31.992188 -41.707031 33.570312 -41.785156 35.148438 -41.785156 C 36.96875 -41.707031 38.703125 -41.863281 40.441406 -41.785156 C 40.996094 -41.785156 41.3125 -42.339844 41.152344 -42.8125 C 42.023438 -42.96875 42.8125 -43.207031 43.128906 -44.074219 C 44.074219 -46.917969 40.441406 -47.789062 38.46875 -48.183594 C 32.621094 -49.367188 26.382812 -48.421875 20.695312 -46.917969 C 20.0625 -46.761719 19.746094 -46.367188 19.667969 -45.894531 C 14.375 -44.234375 9.636719 -40.757812 6.003906 -36.570312 C 1.976562 -31.910156 -1.027344 -25.828125 -0.078125 -19.511719 C 0.316406 -16.429688 1.660156 -13.664062 3.632812 -11.53125 C 4.660156 -9.636719 6.082031 -8.058594 7.820312 -7.03125 C 9.242188 -6.160156 10.820312 -5.84375 12.402344 -5.765625 C 12.480469 -5.054688 13.664062 -4.816406 14.296875 -4.738281 C 16.429688 -4.738281 18.484375 -4.976562 20.539062 -5.449219 C 24.800781 -6.476562 28.59375 -8.609375 31.992188 -11.214844 C 35.78125 -14.21875 38.863281 -17.929688 41.46875 -22.039062 C 41.628906 -22.355469 41.785156 -22.671875 41.941406 -22.984375 L 42.179688 -23.695312 C 42.574219 -24.960938 42.8125 -26.222656 43.128906 -27.488281 C 42.96875 -27.644531 42.890625 -27.804688 42.8125 -27.960938 C 37.519531 -16.429688 27.332031 -9.636719 24.171875 -8.136719 C 22.511719 -7.265625 20.695312 -6.554688 18.878906 -6.082031 C 18.246094 -5.925781 13.585938 -4.898438 12.796875 -5.765625 C 14.535156 -5.765625 16.429688 -6.082031 18.089844 -6.554688 L 18.957031 -6.792969 C 22.273438 -7.660156 25.433594 -9.320312 28.277344 -11.296875 C 30.015625 -12.480469 31.597656 -13.980469 33.015625 -15.480469 C 35.78125 -18.007812 38.152344 -20.933594 40.125 -24.171875 C 41.707031 -26.621094 42.890625 -29.226562 43.917969 -31.992188 Z M 43.917969 -31.992188 "/></g></g></g><g fill="#39ff14" fill-opacity="1"><g transform="translate(128.676145, 120.682418)"><g><path d="M 43.917969 -31.992188 C 44.390625 -33.253906 44.628906 -34.753906 44.234375 -36.097656 C 43.679688 -37.992188 41.707031 -39.019531 39.8125 -38.785156 C 36.097656 -38.308594 32.464844 -37.28125 28.832031 -36.414062 C 25.199219 -35.546875 21.5625 -34.597656 18.007812 -33.570312 C 17.851562 -33.492188 17.695312 -33.492188 17.613281 -33.414062 C 16.035156 -33.015625 15.480469 -31.675781 15.640625 -30.410156 L 15.164062 -30.175781 C 12.085938 -28.515625 14.21875 -23.695312 17.535156 -24.566406 C 21.089844 -25.511719 24.566406 -26.621094 28.121094 -27.410156 C 29.859375 -27.804688 31.597656 -28.121094 33.332031 -28.515625 L 33.648438 -28.515625 C 32.9375 -27.25 32.226562 -25.988281 31.4375 -24.722656 C 29.777344 -22.039062 27.882812 -19.589844 25.59375 -17.378906 C 23.617188 -15.480469 21.167969 -13.824219 18.640625 -12.71875 C 18.167969 -12.558594 17.613281 -12.324219 17.0625 -12.164062 C 15.164062 -11.691406 13.269531 -11.53125 11.375 -11.847656 L 10.347656 -12.085938 C 8.453125 -13.269531 7.742188 -15.796875 7.820312 -18.167969 C 7.820312 -21.011719 8.769531 -23.933594 9.953125 -26.460938 C 12.324219 -31.515625 16.351562 -35.78125 21.25 -38.46875 C 24.089844 -39.96875 27.25 -40.996094 30.410156 -41.46875 C 31.992188 -41.707031 33.570312 -41.785156 35.148438 -41.785156 C 36.96875 -41.707031 38.703125 -41.863281 40.441406 -41.785156 C 40.996094 -41.785156 41.3125 -42.339844 41.152344 -42.8125 C 42.023438 -42.96875 42.8125 -43.207031 43.128906 -44.074219 C 44.074219 -46.917969 40.441406 -47.789062 38.46875 -48.183594 C 32.621094 -49.367188 26.382812 -48.421875 20.695312 -46.917969 C 20.0625 -46.761719 19.746094 -46.367188 19.667969 -45.894531 C 14.375 -44.234375 9.636719 -40.757812 6.003906 -36.570312 C 1.976562 -31.910156 -1.027344 -25.828125 -0.078125 -19.511719 C 0.316406 -16.429688 1.660156 -13.664062 3.632812 -11.53125 C 4.660156 -9.636719 6.082031 -8.058594 7.820312 -7.03125 C 9.242188 -6.160156 10.820312 -5.84375 12.402344 -5.765625 C 12.480469 -5.054688 13.664062 -4.816406 14.296875 -4.738281 C 16.429688 -4.738281 18.484375 -4.976562 20.539062 -5.449219 C 24.800781 -6.476562 28.59375 -8.609375 31.992188 -11.214844 C 35.78125 -14.21875 38.863281 -17.929688 41.46875 -22.039062 C 41.628906 -22.355469 41.785156 -22.671875 41.941406 -22.984375 L 42.179688 -23.695312 C 42.574219 -24.960938 42.8125 -26.222656 43.128906 -27.488281 C 42.96875 -27.644531 42.890625 -27.804688 42.8125 -27.960938 C 37.519531 -16.429688 27.332031 -9.636719 24.171875 -8.136719 C 22.511719 -7.265625 20.695312 -6.554688 18.878906 -6.082031 C 18.246094 -5.925781 13.585938 -4.898438 12.796875 -5.765625 C 14.535156 -5.765625 16.429688 -6.082031 18.089844 -6.554688 L 18.957031 -6.792969 C 22.273438 -7.660156 25.433594 -9.320312 28.277344 -11.296875 C 30.015625 -12.480469 31.597656 -13.980469 33.015625 -15.480469 C 35.78125 -18.007812 38.152344 -20.933594 40.125 -24.171875 C 41.707031 -26.621094 42.890625 -29.226562 43.917969 -31.992188 Z M 43.917969 -31.992188 "/></g></g></g><g fill="#04080b" fill-opacity="1"><g transform="translate(167.479781, 110.542913)"><g><path d="M 8.265625 -40.917969 C 8.085938 -40.789062 8.050781 -40.554688 8.191406 -40.449219 C 10.03125 -40.960938 11.859375 -41.394531 13.738281 -41.660156 C 19.171875 -42.644531 24.660156 -42.980469 30.152344 -43.320312 C 33.304688 -43.542969 36.550781 -43.832031 39.714844 -44.136719 C 39.011719 -44.246094 38.3125 -44.355469 37.597656 -44.386719 C 34.203125 -44.679688 30.90625 -44.558594 27.609375 -44.4375 L 25.742188 -44.25 C 19.890625 -43.652344 13.84375 -42.839844 8.265625 -40.917969 Z M 47.054688 -2.285156 C 48.101562 -2.839844 48.898438 -3.832031 49.039062 -5.25 C 49.425781 -9.746094 49.023438 -16.847656 42.816406 -16.542969 C 41.921875 -16.441406 41.082031 -16.175781 40.183594 -16.074219 L 36.996094 -15.617188 C 35.023438 -15.289062 33.039062 -14.878906 31.058594 -14.472656 C 29.824219 -14.265625 28.582031 -13.980469 27.339844 -13.695312 L 20.300781 -12.164062 C 18.472656 -11.730469 16.648438 -11.296875 14.808594 -10.789062 L 14.550781 -10.667969 C 14.574219 -10.824219 14.585938 -10.902344 14.597656 -10.980469 L 14.925781 -16.125 C 17.28125 -16.875 19.5625 -17.636719 21.972656 -18.21875 C 25.882812 -19.203125 29.734375 -19.796875 33.640625 -20.222656 C 35.585938 -20.398438 37.597656 -20.480469 39.519531 -20.5 C 41.375 -20.605469 43.082031 -20.257812 44.84375 -20.78125 C 46.355469 -21.261719 47.5625 -22.832031 47.484375 -24.363281 C 47.449219 -25.167969 47.105469 -26.023438 46.464844 -26.523438 C 46.386719 -26.535156 46.386719 -26.535156 46.320312 -26.625 C 46.292969 -26.949219 46.183594 -27.289062 46.078125 -27.625 C 46.023438 -27.792969 45.980469 -28.039062 45.863281 -28.296875 C 45.066406 -30.339844 43.203125 -30.714844 41.242188 -30.941406 C 40.292969 -31.011719 39.421875 -31.066406 38.460938 -31.058594 L 37.410156 -30.984375 C 34.800781 -30.675781 32.117188 -30.375 29.523438 -30.144531 C 24.816406 -29.203125 20.230469 -28.003906 15.566406 -26.820312 C 15.628906 -27.210938 15.601562 -30.09375 15.644531 -30.886719 L 15.824219 -31.015625 C 18.40625 -31.652344 21.046875 -32.195312 23.679688 -32.660156 C 24.601562 -32.917969 32.691406 -34.042969 36.84375 -34.511719 C 37 -34.488281 37.167969 -34.539062 37.335938 -34.59375 C 39.207031 -34.78125 41.085938 -35.042969 42.886719 -35.320312 L 46.972656 -35.878906 C 47.53125 -37.390625 47.554688 -39.066406 47.265625 -40.789062 C 46.925781 -41.164062 46.515625 -41.628906 46.175781 -42 L 45 -42.664062 C 44.558594 -42.894531 44.023438 -43.058594 43.488281 -43.222656 C 39.261719 -42.765625 35.03125 -42.3125 30.75 -42.027344 C 25.269531 -41.765625 19.78125 -41.429688 14.347656 -40.445312 C 12.625 -40.15625 10.808594 -39.800781 9.058594 -39.355469 C 8.945312 -39.132812 8.753906 -38.925781 8.648438 -38.78125 C 7.410156 -38.015625 6.523438 -36.957031 6.125 -35.417969 C 5.757812 -34.117188 5.992188 -32.5625 6.769531 -31.398438 L 6.308594 -22.355469 L 5.777344 -12.84375 C 5.582031 -10.078125 5.296875 -7.242188 5.347656 -4.515625 C 4.324219 -2.597656 5.285156 -0.0507812 7.113281 1.039062 C 6.972656 1.414062 6.925781 1.726562 7.019531 2.140625 C 7.4375 3.566406 8.828125 3.867188 10.113281 3.828125 C 10.425781 3.875 10.90625 3.871094 10.90625 3.871094 C 10.816406 3.9375 15.472656 3.308594 16.507812 2.832031 L 16.597656 2.765625 C 17.515625 2.511719 18.421875 2.335938 19.34375 2.078125 C 19.511719 2.023438 19.757812 1.984375 19.925781 1.929688 L 20.003906 1.941406 C 22.75 1.253906 25.550781 0.734375 28.351562 0.214844 C 34.199219 -0.863281 40.207031 -1.441406 46.152344 -1.625 C 46.632812 -1.628906 46.914062 -1.90625 47.054688 -2.285156 Z M 30.769531 -21.792969 L 30.808594 -21.546875 C 30.316406 -21.464844 29.902344 -21.371094 29.398438 -21.207031 C 25.25 -20.261719 20.960938 -19.414062 16.832031 -18.066406 C 17.539062 -18.511719 18.132812 -19.21875 18.421875 -20.054688 C 19.964844 -20.210938 21.523438 -20.445312 23.15625 -20.671875 C 25.699219 -21.070312 28.226562 -21.394531 30.769531 -21.792969 Z M 9.28125 2.496094 C 10.90625 2.351562 12.484375 1.960938 14.054688 1.648438 C 15.609375 1.414062 17.101562 1.085938 18.589844 0.761719 L 18.566406 0.917969 C 17.296875 1.359375 16.027344 1.796875 14.683594 2.226562 C 14.085938 2.453125 13.414062 2.667969 12.742188 2.878906 C 12.648438 2.945312 12.570312 2.933594 12.496094 2.921875 C 12.246094 2.964844 10.429688 2.835938 9.28125 2.496094 Z M 9.28125 2.496094 "/></g></g></g><g clip-path="url(#0eb6a399b9)"><g fill="#39ff14" fill-opacity="1"><g transform="translate(170.526164, 111.021425)"><g><path d="M 8.265625 -40.917969 C 8.085938 -40.789062 8.050781 -40.554688 8.191406 -40.449219 C 10.03125 -40.960938 11.859375 -41.394531 13.738281 -41.660156 C 19.171875 -42.644531 24.660156 -42.980469 30.152344 -43.320312 C 33.304688 -43.542969 36.550781 -43.832031 39.714844 -44.136719 C 39.011719 -44.246094 38.3125 -44.355469 37.597656 -44.386719 C 34.203125 -44.679688 30.90625 -44.558594 27.609375 -44.4375 L 25.742188 -44.25 C 19.890625 -43.652344 13.84375 -42.839844 8.265625 -40.917969 Z M 47.054688 -2.285156 C 48.101562 -2.839844 48.898438 -3.832031 49.039062 -5.25 C 49.425781 -9.746094 49.023438 -16.847656 42.816406 -16.542969 C 41.921875 -16.441406 41.082031 -16.175781 40.183594 -16.074219 L 36.996094 -15.617188 C 35.023438 -15.289062 33.039062 -14.878906 31.058594 -14.472656 C 29.824219 -14.265625 28.582031 -13.980469 27.339844 -13.695312 L 20.300781 -12.164062 C 18.472656 -11.730469 16.648438 -11.296875 14.808594 -10.789062 L 14.550781 -10.667969 C 14.574219 -10.824219 14.585938 -10.902344 14.597656 -10.980469 L 14.925781 -16.125 C 17.28125 -16.875 19.5625 -17.636719 21.972656 -18.21875 C 25.882812 -19.203125 29.734375 -19.796875 33.640625 -20.222656 C 35.585938 -20.398438 37.597656 -20.480469 39.519531 -20.5 C 41.375 -20.605469 43.082031 -20.257812 44.84375 -20.78125 C 46.355469 -21.261719 47.5625 -22.832031 47.484375 -24.363281 C 47.449219 -25.167969 47.105469 -26.023438 46.464844 -26.523438 C 46.386719 -26.535156 46.386719 -26.535156 46.320312 -26.625 C 46.292969 -26.949219 46.183594 -27.289062 46.078125 -27.625 C 46.023438 -27.792969 45.980469 -28.039062 45.863281 -28.296875 C 45.066406 -30.339844 43.203125 -30.714844 41.242188 -30.941406 C 40.292969 -31.011719 39.421875 -31.066406 38.460938 -31.058594 L 37.410156 -30.984375 C 34.800781 -30.675781 32.117188 -30.375 29.523438 -30.144531 C 24.816406 -29.203125 20.230469 -28.003906 15.566406 -26.820312 C 15.628906 -27.210938 15.601562 -30.09375 15.644531 -30.886719 L 15.824219 -31.015625 C 18.40625 -31.652344 21.046875 -32.195312 23.679688 -32.660156 C 24.601562 -32.917969 32.691406 -34.042969 36.84375 -34.511719 C 37 -34.488281 37.167969 -34.539062 37.335938 -34.59375 C 39.207031 -34.78125 41.085938 -35.042969 42.886719 -35.320312 L 46.972656 -35.878906 C 47.53125 -37.390625 47.554688 -39.066406 47.265625 -40.789062 C 46.925781 -41.164062 46.515625 -41.628906 46.175781 -42 L 45 -42.664062 C 44.558594 -42.894531 44.023438 -43.058594 43.488281 -43.222656 C 39.261719 -42.765625 35.03125 -42.3125 30.75 -42.027344 C 25.269531 -41.765625 19.78125 -41.429688 14.347656 -40.445312 C 12.625 -40.15625 10.808594 -39.800781 9.058594 -39.355469 C 8.945312 -39.132812 8.753906 -38.925781 8.648438 -38.78125 C 7.410156 -38.015625 6.523438 -36.957031 6.125 -35.417969 C 5.757812 -34.117188 5.992188 -32.5625 6.769531 -31.398438 L 6.308594 -22.355469 L 5.777344 -12.84375 C 5.582031 -10.078125 5.296875 -7.242188 5.347656 -4.515625 C 4.324219 -2.597656 5.285156 -0.0507812 7.113281 1.039062 C 6.972656 1.414062 6.925781 1.726562 7.019531 2.140625 C 7.4375 3.566406 8.828125 3.867188 10.113281 3.828125 C 10.425781 3.875 10.90625 3.871094 10.90625 3.871094 C 10.816406 3.9375 15.472656 3.308594 16.507812 2.832031 L 16.597656 2.765625 C 17.515625 2.511719 18.421875 2.335938 19.34375 2.078125 C 19.511719 2.023438 19.757812 1.984375 19.925781 1.929688 L 20.003906 1.941406 C 22.75 1.253906 25.550781 0.734375 28.351562 0.214844 C 34.199219 -0.863281 40.207031 -1.441406 46.152344 -1.625 C 46.632812 -1.628906 46.914062 -1.90625 47.054688 -2.285156 Z M 30.769531 -21.792969 L 30.808594 -21.546875 C 30.316406 -21.464844 29.902344 -21.371094 29.398438 -21.207031 C 25.25 -20.261719 20.960938 -19.414062 16.832031 -18.066406 C 17.539062 -18.511719 18.132812 -19.21875 18.421875 -20.054688 C 19.964844 -20.210938 21.523438 -20.445312 23.15625 -20.671875 C 25.699219 -21.070312 28.226562 -21.394531 30.769531 -21.792969 Z M 9.28125 2.496094 C 10.90625 2.351562 12.484375 1.960938 14.054688 1.648438 C 15.609375 1.414062 17.101562 1.085938 18.589844 0.761719 L 18.566406 0.917969 C 17.296875 1.359375 16.027344 1.796875 14.683594 2.226562 C 14.085938 2.453125 13.414062 2.667969 12.742188 2.878906 C 12.648438 2.945312 12.570312 2.933594 12.496094 2.921875 C 12.246094 2.964844 10.429688 2.835938 9.28125 2.496094 Z M 9.28125 2.496094 "/></g></g></g></g></svg>