<svg xmlns="http://www.w3.org/2000/svg" xmlns:xlink="http://www.w3.org/1999/xlink" width="500" zoomAndPan="magnify" viewBox="0 0 375 187.499995" height="250" preserveAspectRatio="xMidYMid meet" version="1.0"><defs><clipPath id="951638439e"><path d="M 147 9 L 228 9 L 228 185 L 147 185 Z M 147 9 " clip-rule="nonzero"/></clipPath><clipPath id="f640c958e8"><path d="M 139.085938 182.777344 L 152.652344 5.570312 L 233.28125 11.742188 L 219.71875 188.949219 Z M 139.085938 182.777344 " clip-rule="nonzero"/></clipPath><clipPath id="a89e4b4468"><path d="M 139.085938 182.777344 L 152.652344 5.570312 L 233.28125 11.742188 L 219.71875 188.949219 Z M 139.085938 182.777344 " clip-rule="nonzero"/></clipPath><clipPath id="d50f71ff79"><path d="M 152 4 L 233 4 L 233 180 L 152 180 Z M 152 4 " clip-rule="nonzero"/></clipPath><clipPath id="8e30652c42"><path d="M 143.738281 178.601562 L 157.304688 1.390625 L 237.933594 7.5625 L 224.367188 184.773438 Z M 143.738281 178.601562 " clip-rule="nonzero"/></clipPath><clipPath id="00d348e5ef"><path d="M 143.738281 178.601562 L 157.304688 1.390625 L 237.933594 7.5625 L 224.367188 184.773438 Z M 143.738281 178.601562 " clip-rule="nonzero"/></clipPath></defs><g clip-path="url(#951638439e)"><g clip-path="url(#f640c958e8)"><g clip-path="url(#a89e4b4468)"><path fill="#04080b" d="M 184.804688 9.257812 C 182.535156 9.566406 180.136719 10.929688 178.351562 10.589844 C 171.890625 9.332031 169.617188 13.121094 167.613281 17.929688 C 159.113281 38.199219 152.1875 58.957031 147.878906 80.542969 C 146.335938 88.261719 148.285156 90.347656 156.066406 89.210938 C 157.03125 89.066406 157.972656 88.777344 158.941406 88.585938 C 162.1875 87.976562 163.828125 85.714844 163.507812 82.738281 C 163.1875 79.828125 164.066406 77.304688 164.792969 74.722656 C 166.644531 68.105469 168.703125 61.566406 170.691406 54.988281 C 171.0625 54.816406 171.4375 54.8125 171.816406 54.980469 C 171.882812 62.246094 172.1875 69.511719 171.960938 76.753906 C 171.363281 95.328125 174.410156 113.855469 172.109375 132.519531 C 171.023438 141.398438 171.804688 150.558594 172.394531 159.546875 C 172.871094 166.625 171.800781 173.675781 172.742188 180.707031 C 173.21875 184.289062 174.070312 185.007812 177.097656 183.148438 C 183.15625 179.460938 189.199219 175.582031 188.003906 166.890625 C 187.792969 165.363281 188.089844 163.761719 188.039062 162.179688 C 187.683594 147.464844 187.980469 132.753906 188.167969 118.046875 C 188.371094 102.15625 188.511719 86.261719 188.636719 70.363281 C 188.683594 65.0625 188.589844 59.761719 188.566406 53.9375 C 191.035156 55.75 191.632812 57.902344 192.683594 59.714844 C 196.222656 65.855469 200.574219 71.402344 204.742188 77.109375 C 211.101562 85.820312 220.679688 83.027344 226.695312 79.476562 C 227.824219 78.8125 228.503906 77.894531 227.125 76.746094 C 222.957031 73.257812 220.710938 68.371094 218.027344 63.84375 C 210.3125 50.859375 203.554688 37.355469 196.800781 23.847656 C 195.039062 20.34375 193.3125 16.824219 191.613281 13.304688 C 190.242188 10.4375 188.640625 8.722656 184.804688 9.257812 Z M 171.152344 52.621094 C 171.113281 52.523438 171.105469 52.429688 171.035156 52.332031 C 171.109375 52.398438 171.148438 52.480469 171.1875 52.5625 C 171.1875 52.578125 171.171875 52.589844 171.152344 52.621094 Z M 171.152344 52.621094 " fill-opacity="1" fill-rule="nonzero"/></g></g></g><g clip-path="url(#d50f71ff79)"><g clip-path="url(#8e30652c42)"><g clip-path="url(#00d348e5ef)"><path fill="#39ff14" d="M 189.457031 5.078125 C 187.1875 5.390625 184.785156 6.75 183.003906 6.410156 C 176.542969 5.152344 174.269531 8.945312 172.261719 13.753906 C 163.765625 34.019531 156.835938 54.78125 152.53125 76.367188 C 150.988281 84.085938 152.9375 86.167969 160.71875 85.03125 C 161.683594 84.886719 162.625 84.601562 163.59375 84.410156 C 166.839844 83.800781 168.480469 81.535156 168.160156 78.5625 C 167.835938 75.648438 168.71875 73.125 169.445312 70.542969 C 171.292969 63.925781 173.355469 57.386719 175.34375 50.8125 C 175.714844 50.636719 176.089844 50.636719 176.464844 50.804688 C 176.535156 58.066406 176.835938 65.332031 176.609375 72.574219 C 176.015625 91.152344 179.0625 109.679688 176.757812 128.34375 C 175.675781 137.21875 176.457031 146.378906 177.046875 155.371094 C 177.519531 162.445312 176.449219 169.496094 177.394531 176.53125 C 177.871094 180.109375 178.71875 180.832031 181.75 178.972656 C 187.808594 175.285156 193.847656 171.40625 192.65625 162.714844 C 192.445312 161.183594 192.742188 159.582031 192.691406 158.003906 C 192.332031 143.285156 192.632812 128.574219 192.820312 113.871094 C 193.023438 97.980469 193.164062 82.082031 193.285156 66.1875 C 193.332031 60.882812 193.238281 55.585938 193.21875 49.761719 C 195.683594 51.574219 196.285156 53.726562 197.332031 55.539062 C 200.875 61.679688 205.226562 67.226562 209.394531 72.929688 C 215.75 81.644531 225.332031 78.847656 231.347656 75.296875 C 232.476562 74.632812 233.152344 73.71875 231.773438 72.566406 C 227.609375 69.078125 225.359375 64.195312 222.679688 59.664062 C 214.960938 46.679688 208.207031 33.175781 201.453125 19.671875 C 199.691406 16.164062 197.960938 12.644531 196.265625 9.128906 C 194.890625 6.261719 193.292969 4.546875 189.457031 5.078125 Z M 175.804688 48.445312 C 175.765625 48.347656 175.757812 48.253906 175.6875 48.152344 C 175.757812 48.222656 175.800781 48.300781 175.839844 48.382812 C 175.839844 48.398438 175.820312 48.414062 175.804688 48.445312 Z M 175.804688 48.445312 " fill-opacity="1" fill-rule="nonzero"/></g></g></g></svg>